<svg xmlns="http://www.w3.org/2000/svg" xmlns:xlink="http://www.w3.org/1999/xlink" contentStyleType="text/css" data-diagram-type="ACTIVITY" height="2230px" preserveAspectRatio="none" style="width:1537px;height:2230px;background:#FEFEFE;" version="1.1" viewBox="0 0 1537 2230" width="1537px" zoomAndPan="magnify"><title>Resource Allocation Algorithms Flow</title><defs/><g><rect fill="#FEFEFE" height="2230" style="stroke:none;stroke-width:1;" width="1537" x="0" y="0"/><g class="title" data-source-line="2"><text fill="#333333" font-family="Verdana" font-size="22" font-weight="bold" lengthAdjust="spacing" textLength="453.9219" x="540.4053" y="37.1182">Resource Allocation Algorithms Flow</text></g><rect fill="#FFFFFF" height="21.876" style="stroke:#FFFFFF;stroke-width:1;" width="1514.7324" x="10" y="55.0166"/><ellipse cx="326.7415" cy="91.8926" fill="#FFFFFF" rx="10" ry="10" style="stroke:#000000;stroke-width:1;"/><rect fill="#E3F2FD" height="34.584" rx="12.5" ry="12.5" style="stroke:#1976D2;stroke-width:1;" width="177.7754" x="237.8538" y="121.8926"/><text fill="#333333" font-family="Verdana" font-size="12" lengthAdjust="spacing" textLength="157.7754" x="247.8538" y="143.957">Receive allocation request</text><rect fill="#E3F2FD" height="34.584" rx="12.5" ry="12.5" style="stroke:#1976D2;stroke-width:1;" width="166.4727" x="243.5051" y="176.4766"/><text fill="#333333" font-family="Verdana" font-size="12" lengthAdjust="spacing" textLength="146.4727" x="253.5051" y="198.541">Start from first resource</text><polygon fill="#E3F2FD" points="245.5815,287.6196,407.9014,287.6196,419.9014,299.6196,407.9014,311.6196,245.5815,311.6196,233.5815,299.6196,245.5815,287.6196" style="stroke:#1976D2;stroke-width:1;"/><text fill="#333333" font-family="Verdana" font-size="11" lengthAdjust="spacing" textLength="162.3198" x="245.5815" y="303.9944">Resource size &gt;= requested?</text><text fill="#333333" font-family="Verdana" font-size="11" lengthAdjust="spacing" textLength="18.7935" x="214.7881" y="297.3101">yes</text><text fill="#333333" font-family="Verdana" font-size="11" lengthAdjust="spacing" textLength="13.6372" x="419.9014" y="297.3101">no</text><polygon fill="#E3F2FD" points="145.7405,321.6196,240.4382,321.6196,252.4382,333.6196,240.4382,345.6196,145.7405,345.6196,133.7405,333.6196,145.7405,321.6196" style="stroke:#1976D2;stroke-width:1;"/><text fill="#333333" font-family="Verdana" font-size="11" lengthAdjust="spacing" textLength="94.6978" x="145.7405" y="337.9944">Resource is free?</text><text fill="#333333" font-family="Verdana" font-size="11" lengthAdjust="spacing" textLength="18.7935" x="114.947" y="331.3101">yes</text><text fill="#333333" font-family="Verdana" font-size="11" lengthAdjust="spacing" textLength="13.6372" x="252.4382" y="331.3101">no</text><rect fill="#E3F2FD" height="34.584" rx="12.5" ry="12.5" style="stroke:#1976D2;stroke-width:1;" width="123.5469" x="48.8184" y="355.6196"/><text fill="#333333" font-family="Verdana" font-size="12" lengthAdjust="spacing" textLength="103.5469" x="58.8184" y="377.6841">Allocate resource</text><rect fill="#E3F2FD" height="34.584" rx="12.5" ry="12.5" style="stroke:#1976D2;stroke-width:1;" width="135.1836" x="43" y="425.2036"/><text fill="#333333" font-family="Verdana" font-size="12" lengthAdjust="spacing" textLength="115.1836" x="53" y="447.2681">Return resource ID</text><ellipse cx="110.5918" cy="490.7876" fill="none" rx="11" ry="11" style="stroke:#000000;stroke-width:1;"/><ellipse cx="110.5918" cy="490.7876" fill="#FFFFFF" rx="6" ry="6" style="stroke:#000000;stroke-width:1;"/><rect fill="#E3F2FD" height="34.584" rx="12.5" ry="12.5" style="stroke:#1976D2;stroke-width:1;" width="154.8066" x="198.1836" y="355.6196"/><text fill="#333333" font-family="Verdana" font-size="12" lengthAdjust="spacing" textLength="134.8066" x="208.1836" y="377.6841">Move to next resource</text><rect fill="#E3F2FD" height="34.584" rx="12.5" ry="12.5" style="stroke:#1976D2;stroke-width:1;" width="154.8066" x="382.9902" y="321.6196"/><text fill="#333333" font-family="Verdana" font-size="12" lengthAdjust="spacing" textLength="134.8066" x="392.9902" y="343.6841">Move to next resource</text><polygon fill="#E3F2FD" points="326.7415,511.7876,338.7415,523.7876,326.7415,535.7876,314.7415,523.7876,326.7415,511.7876" style="stroke:#1976D2;stroke-width:1;"/><polygon fill="#E3F2FD" points="256.4338,231.0605,397.0491,231.0605,409.0491,243.0605,397.0491,255.0605,256.4338,255.0605,244.4338,243.0605,256.4338,231.0605" style="stroke:#1976D2;stroke-width:1;"/><text fill="#333333" font-family="Verdana" font-size="11" lengthAdjust="spacing" textLength="18.7935" x="330.7415" y="266.1196">yes</text><text fill="#333333" font-family="Verdana" font-size="11" lengthAdjust="spacing" textLength="140.6152" x="256.4338" y="247.4353">More resources to check?</text><text fill="#333333" font-family="Verdana" font-size="11" lengthAdjust="spacing" textLength="13.6372" x="230.7966" y="240.751">no</text><rect fill="#E3F2FD" height="34.584" rx="12.5" ry="12.5" style="stroke:#1976D2;stroke-width:1;" width="159.0371" x="247.2229" y="577.7876"/><text fill="#333333" font-family="Verdana" font-size="12" lengthAdjust="spacing" textLength="139.0371" x="257.2229" y="599.8521">Return allocation failed</text><ellipse cx="326.7415" cy="643.3716" fill="none" rx="11" ry="11" style="stroke:#000000;stroke-width:1;"/><ellipse cx="326.7415" cy="643.3716" fill="#FFFFFF" rx="6" ry="6" style="stroke:#000000;stroke-width:1;"/><line style="stroke:#000000;stroke-width:1;" x1="10" x2="10" y1="55.0166" y2="2223.7861"/><ellipse cx="771.7661" cy="674.3716" fill="#FFFFFF" rx="10" ry="10" style="stroke:#000000;stroke-width:1;"/><rect fill="#E3F2FD" height="34.584" rx="12.5" ry="12.5" style="stroke:#1976D2;stroke-width:1;" width="177.7754" x="682.8784" y="704.3716"/><text fill="#333333" font-family="Verdana" font-size="12" lengthAdjust="spacing" textLength="157.7754" x="692.8784" y="726.436">Receive allocation request</text><rect fill="#E3F2FD" height="34.584" rx="12.5" ry="12.5" style="stroke:#1976D2;stroke-width:1;" width="191.0293" x="676.2515" y="758.9556"/><text fill="#333333" font-family="Verdana" font-size="12" lengthAdjust="spacing" textLength="171.0293" x="686.2515" y="781.02">Initialize best_size = infinity</text><rect fill="#E3F2FD" height="34.584" rx="12.5" ry="12.5" style="stroke:#1976D2;stroke-width:1;" width="172.6074" x="685.4624" y="813.5396"/><text fill="#333333" font-family="Verdana" font-size="12" lengthAdjust="spacing" textLength="152.6074" x="695.4624" y="835.604">Initialize best_index = -1</text><rect fill="#E3F2FD" height="34.584" rx="12.5" ry="12.5" style="stroke:#1976D2;stroke-width:1;" width="129.6582" x="706.937" y="868.1235"/><text fill="#333333" font-family="Verdana" font-size="12" lengthAdjust="spacing" textLength="109.6582" x="716.937" y="890.188">Scan all resources</text><rect fill="#E3F2FD" height="34.584" rx="12.5" ry="12.5" style="stroke:#1976D2;stroke-width:1;" width="123.2715" x="710.1304" y="1076.6353"/><text fill="#333333" font-family="Verdana" font-size="12" lengthAdjust="spacing" textLength="103.2715" x="720.1304" y="1098.6997">Update best_size</text><rect fill="#E3F2FD" height="34.584" rx="12.5" ry="12.5" style="stroke:#1976D2;stroke-width:1;" width="132.8867" x="705.3228" y="1146.2192"/><text fill="#333333" font-family="Verdana" font-size="12" lengthAdjust="spacing" textLength="112.8867" x="715.3228" y="1168.2837">Update best_index</text><polygon fill="#E3F2FD" points="696.877,1027.9509,846.6553,1027.9509,858.6553,1039.9509,846.6553,1051.9509,696.877,1051.9509,684.877,1039.9509,696.877,1027.9509" style="stroke:#1976D2;stroke-width:1;"/><text fill="#333333" font-family="Verdana" font-size="11" lengthAdjust="spacing" textLength="18.7935" x="775.7661" y="1063.01">yes</text><text fill="#333333" font-family="Verdana" font-size="11" lengthAdjust="spacing" textLength="149.7783" x="696.877" y="1044.3257">Resource size &lt; best_size?</text><polygon fill="#E3F2FD" points="771.7661,1200.8032,783.7661,1212.8032,771.7661,1224.8032,759.7661,1212.8032,771.7661,1200.8032" style="stroke:#1976D2;stroke-width:1;"/><polygon fill="#E3F2FD" points="657.4854,979.2666,886.0469,979.2666,898.0469,991.2666,886.0469,1003.2666,657.4854,1003.2666,645.4854,991.2666,657.4854,979.2666" style="stroke:#1976D2;stroke-width:1;"/><text fill="#333333" font-family="Verdana" font-size="11" lengthAdjust="spacing" textLength="18.7935" x="775.7661" y="1014.3257">yes</text><text fill="#333333" font-family="Verdana" font-size="11" lengthAdjust="spacing" textLength="228.5615" x="657.4854" y="995.6414">Resource is free AND size &gt;= requested?</text><polygon fill="#E3F2FD" points="771.7661,1244.8032,783.7661,1256.8032,771.7661,1268.8032,759.7661,1256.8032,771.7661,1244.8032" style="stroke:#1976D2;stroke-width:1;"/><rect fill="#E3F2FD" height="34.584" rx="12.5" ry="12.5" style="stroke:#1976D2;stroke-width:1;" width="154.8066" x="694.3628" y="1288.8032"/><text fill="#333333" font-family="Verdana" font-size="12" lengthAdjust="spacing" textLength="134.8066" x="704.3628" y="1310.8677">Move to next resource</text><polygon fill="#E3F2FD" points="701.4585,922.7075,842.0737,922.7075,854.0737,934.7075,842.0737,946.7075,701.4585,946.7075,689.4585,934.7075,701.4585,922.7075" style="stroke:#1976D2;stroke-width:1;"/><text fill="#333333" font-family="Verdana" font-size="11" lengthAdjust="spacing" textLength="18.7935" x="775.7661" y="957.7666">yes</text><text fill="#333333" font-family="Verdana" font-size="11" lengthAdjust="spacing" textLength="140.6152" x="701.4585" y="939.0823">More resources to check?</text><text fill="#333333" font-family="Verdana" font-size="11" lengthAdjust="spacing" textLength="13.6372" x="675.8213" y="932.3979">no</text><polygon fill="#E3F2FD" points="720.9932,1365.3872,822.5391,1365.3872,834.5391,1377.3872,822.5391,1389.3872,720.9932,1389.3872,708.9932,1377.3872,720.9932,1365.3872" style="stroke:#1976D2;stroke-width:1;"/><text fill="#333333" font-family="Verdana" font-size="11" lengthAdjust="spacing" textLength="101.5459" x="720.9932" y="1381.762">best_index found?</text><text fill="#333333" font-family="Verdana" font-size="11" lengthAdjust="spacing" textLength="18.7935" x="690.1997" y="1375.0776">yes</text><text fill="#333333" font-family="Verdana" font-size="11" lengthAdjust="spacing" textLength="13.6372" x="834.5391" y="1375.0776">no</text><rect fill="#E3F2FD" height="34.584" rx="12.5" ry="12.5" style="stroke:#1976D2;stroke-width:1;" width="193.6133" x="576.7969" y="1399.3872"/><text fill="#333333" font-family="Verdana" font-size="12" lengthAdjust="spacing" textLength="173.6133" x="586.7969" y="1421.4517">Allocate best_index resource</text><rect fill="#E3F2FD" height="34.584" rx="12.5" ry="12.5" style="stroke:#1976D2;stroke-width:1;" width="135.1836" x="606.0117" y="1453.9712"/><text fill="#333333" font-family="Verdana" font-size="12" lengthAdjust="spacing" textLength="115.1836" x="616.0117" y="1476.0356">Return resource ID</text><rect fill="#E3F2FD" height="34.584" rx="12.5" ry="12.5" style="stroke:#1976D2;stroke-width:1;" width="159.0371" x="790.4102" y="1399.3872"/><text fill="#333333" font-family="Verdana" font-size="12" lengthAdjust="spacing" textLength="139.0371" x="800.4102" y="1421.4517">Return allocation failed</text><polygon fill="#E3F2FD" points="771.7661,1494.5552,783.7661,1506.5552,771.7661,1518.5552,759.7661,1506.5552,771.7661,1494.5552" style="stroke:#1976D2;stroke-width:1;"/><ellipse cx="771.7661" cy="1549.5552" fill="none" rx="11" ry="11" style="stroke:#000000;stroke-width:1;"/><ellipse cx="771.7661" cy="1549.5552" fill="#FFFFFF" rx="6" ry="6" style="stroke:#000000;stroke-width:1;"/><line style="stroke:#000000;stroke-width:1;" x1="570.7969" x2="570.7969" y1="55.0166" y2="2223.7861"/><ellipse cx="1249.7676" cy="1580.5552" fill="#FFFFFF" rx="10" ry="10" style="stroke:#000000;stroke-width:1;"/><rect fill="#E3F2FD" height="34.584" rx="12.5" ry="12.5" style="stroke:#1976D2;stroke-width:1;" width="177.7754" x="1160.8799" y="1610.5552"/><text fill="#333333" font-family="Verdana" font-size="12" lengthAdjust="spacing" textLength="157.7754" x="1170.8799" y="1632.6196">Receive allocation request</text><rect fill="#E3F2FD" height="34.584" rx="12.5" ry="12.5" style="stroke:#1976D2;stroke-width:1;" width="140.3809" x="1179.5771" y="1665.1392"/><text fill="#333333" font-family="Verdana" font-size="12" lengthAdjust="spacing" textLength="120.3809" x="1189.5771" y="1687.2036">Get current position</text><rect fill="#E3F2FD" height="34.584" rx="12.5" ry="12.5" style="stroke:#1976D2;stroke-width:1;" width="133.3379" x="1183.0986" y="1719.7231"/><text fill="#333333" font-family="Verdana" font-size="12" lengthAdjust="spacing" textLength="113.3379" x="1193.0986" y="1741.7876">Save start position</text><polygon fill="#E3F2FD" points="1181.0229,1830.8662,1318.5122,1830.8662,1330.5122,1842.8662,1318.5122,1854.8662,1181.0229,1854.8662,1169.0229,1842.8662,1181.0229,1830.8662" style="stroke:#1976D2;stroke-width:1;"/><text fill="#333333" font-family="Verdana" font-size="11" lengthAdjust="spacing" textLength="137.4893" x="1181.0229" y="1847.241">Current resource is free?</text><text fill="#333333" font-family="Verdana" font-size="11" lengthAdjust="spacing" textLength="18.7935" x="1150.2295" y="1840.5566">yes</text><text fill="#333333" font-family="Verdana" font-size="11" lengthAdjust="spacing" textLength="13.6372" x="1330.5122" y="1840.5566">no</text><rect fill="#E3F2FD" height="34.584" rx="12.5" ry="12.5" style="stroke:#1976D2;stroke-width:1;" width="171.3242" x="1033.3252" y="1864.8662"/><text fill="#333333" font-family="Verdana" font-size="12" lengthAdjust="spacing" textLength="151.3242" x="1043.3252" y="1886.9307">Allocate current resource</text><rect fill="#E3F2FD" height="34.584" rx="12.5" ry="12.5" style="stroke:#1976D2;stroke-width:1;" width="265.0801" x="986.4473" y="1919.4502"/><text fill="#333333" font-family="Verdana" font-size="12" lengthAdjust="spacing" textLength="245.0801" x="996.4473" y="1941.5146">Update position = (position + 1) % total</text><rect fill="#E3F2FD" height="34.584" rx="12.5" ry="12.5" style="stroke:#1976D2;stroke-width:1;" width="135.1836" x="1051.3955" y="1974.0342"/><text fill="#333333" font-family="Verdana" font-size="12" lengthAdjust="spacing" textLength="115.1836" x="1061.3955" y="1996.0986">Return resource ID</text><ellipse cx="1118.9873" cy="2039.6182" fill="none" rx="11" ry="11" style="stroke:#000000;stroke-width:1;"/><ellipse cx="1118.9873" cy="2039.6182" fill="#FFFFFF" rx="6" ry="6" style="stroke:#000000;stroke-width:1;"/><rect fill="#E3F2FD" height="34.584" rx="12.5" ry="12.5" style="stroke:#1976D2;stroke-width:1;" width="150.0898" x="1305.5029" y="1864.8662"/><text fill="#333333" font-family="Verdana" font-size="12" lengthAdjust="spacing" textLength="130.0898" x="1315.5029" y="1886.9307">Move to next position</text><rect fill="#E3F2FD" height="34.584" rx="12.5" ry="12.5" style="stroke:#1976D2;stroke-width:1;" width="218.041" x="1271.5273" y="1919.4502"/><text fill="#333333" font-family="Verdana" font-size="12" lengthAdjust="spacing" textLength="198.041" x="1281.5273" y="1941.5146">position = (position + 1) % total</text><polygon fill="#E3F2FD" points="1200.1414,1774.3071,1299.3938,1774.3071,1311.3938,1786.3071,1299.3938,1798.3071,1200.1414,1798.3071,1188.1414,1786.3071,1200.1414,1774.3071" style="stroke:#1976D2;stroke-width:1;"/><text fill="#333333" font-family="Verdana" font-size="11" lengthAdjust="spacing" textLength="18.7935" x="1253.7676" y="1809.3662">yes</text><text fill="#333333" font-family="Verdana" font-size="11" lengthAdjust="spacing" textLength="99.2524" x="1200.1414" y="1790.6819">Not back to start?</text><text fill="#333333" font-family="Verdana" font-size="11" lengthAdjust="spacing" textLength="13.6372" x="1174.5042" y="1783.9976">no</text><rect fill="#E3F2FD" height="34.584" rx="12.5" ry="12.5" style="stroke:#1976D2;stroke-width:1;" width="150.3711" x="1174.582" y="2092.6182"/><text fill="#333333" font-family="Verdana" font-size="12" lengthAdjust="spacing" textLength="130.3711" x="1184.582" y="2114.6826">All resources checked</text><rect fill="#E3F2FD" height="34.584" rx="12.5" ry="12.5" style="stroke:#1976D2;stroke-width:1;" width="159.0371" x="1170.249" y="2147.2021"/><text fill="#333333" font-family="Verdana" font-size="12" lengthAdjust="spacing" textLength="139.0371" x="1180.249" y="2169.2666">Return allocation failed</text><ellipse cx="1249.7676" cy="2212.7861" fill="none" rx="11" ry="11" style="stroke:#000000;stroke-width:1;"/><ellipse cx="1249.7676" cy="2212.7861" fill="#FFFFFF" rx="6" ry="6" style="stroke:#000000;stroke-width:1;"/><line style="stroke:#000000;stroke-width:1;" x1="953.4473" x2="953.4473" y1="55.0166" y2="2223.7861"/><line style="stroke:#000000;stroke-width:1;" x1="1522.5684" x2="1522.5684" y1="55.0166" y2="2223.7861"/><line style="stroke:#000000;stroke-width:1;" x1="326.7415" x2="326.7415" y1="101.8926" y2="121.8926"/><polygon fill="#000000" points="322.7415,111.8926,326.7415,121.8926,330.7415,111.8926,326.7415,115.8926" style="stroke:#000000;stroke-width:1;"/><line style="stroke:#000000;stroke-width:1;" x1="326.7415" x2="326.7415" y1="156.4766" y2="176.4766"/><polygon fill="#000000" points="322.7415,166.4766,326.7415,176.4766,330.7415,166.4766,326.7415,170.4766" style="stroke:#000000;stroke-width:1;"/><line style="stroke:#000000;stroke-width:1;" x1="110.5918" x2="110.5918" y1="390.2036" y2="425.2036"/><polygon fill="#000000" points="106.5918,415.2036,110.5918,425.2036,114.5918,415.2036,110.5918,419.2036" style="stroke:#000000;stroke-width:1;"/><line style="stroke:#000000;stroke-width:1;" x1="110.5918" x2="110.5918" y1="459.7876" y2="479.7876"/><polygon fill="#000000" points="106.5918,469.7876,110.5918,479.7876,114.5918,469.7876,110.5918,473.7876" style="stroke:#000000;stroke-width:1;"/><line style="stroke:#000000;stroke-width:1;" x1="133.7405" x2="110.5918" y1="333.6196" y2="333.6196"/><line style="stroke:#000000;stroke-width:1;" x1="110.5918" x2="110.5918" y1="333.6196" y2="355.6196"/><polygon fill="#000000" points="106.5918,345.6196,110.5918,355.6196,114.5918,345.6196,110.5918,349.6196" style="stroke:#000000;stroke-width:1;"/><line style="stroke:#000000;stroke-width:1;" x1="252.4382" x2="275.5869" y1="333.6196" y2="333.6196"/><line style="stroke:#000000;stroke-width:1;" x1="275.5869" x2="275.5869" y1="333.6196" y2="355.6196"/><polygon fill="#000000" points="271.5869,345.6196,275.5869,355.6196,279.5869,345.6196,275.5869,349.6196" style="stroke:#000000;stroke-width:1;"/><line style="stroke:#000000;stroke-width:1;" x1="275.5869" x2="275.5869" y1="390.2036" y2="523.7876"/><line style="stroke:#000000;stroke-width:1;" x1="275.5869" x2="314.7415" y1="523.7876" y2="523.7876"/><polygon fill="#000000" points="304.7415,519.7876,314.7415,523.7876,304.7415,527.7876,308.7415,523.7876" style="stroke:#000000;stroke-width:1;"/><line style="stroke:#000000;stroke-width:1;" x1="233.5815" x2="193.0894" y1="299.6196" y2="299.6196"/><line style="stroke:#000000;stroke-width:1;" x1="193.0894" x2="193.0894" y1="299.6196" y2="321.6196"/><polygon fill="#000000" points="189.0894,311.6196,193.0894,321.6196,197.0894,311.6196,193.0894,315.6196" style="stroke:#000000;stroke-width:1;"/><line style="stroke:#000000;stroke-width:1;" x1="419.9014" x2="460.3936" y1="299.6196" y2="299.6196"/><line style="stroke:#000000;stroke-width:1;" x1="460.3936" x2="460.3936" y1="299.6196" y2="321.6196"/><polygon fill="#000000" points="456.3936,311.6196,460.3936,321.6196,464.3936,311.6196,460.3936,315.6196" style="stroke:#000000;stroke-width:1;"/><line style="stroke:#000000;stroke-width:1;" x1="460.3936" x2="460.3936" y1="356.2036" y2="523.7876"/><line style="stroke:#000000;stroke-width:1;" x1="460.3936" x2="338.7415" y1="523.7876" y2="523.7876"/><polygon fill="#000000" points="348.7415,519.7876,338.7415,523.7876,348.7415,527.7876,344.7415,523.7876" style="stroke:#000000;stroke-width:1;"/><line style="stroke:#000000;stroke-width:1;" x1="326.7415" x2="326.7415" y1="255.0605" y2="287.6196"/><polygon fill="#000000" points="322.7415,277.6196,326.7415,287.6196,330.7415,277.6196,326.7415,281.6196" style="stroke:#000000;stroke-width:1;"/><line style="stroke:#000000;stroke-width:1;" x1="326.7415" x2="326.7415" y1="535.7876" y2="545.7876"/><line style="stroke:#000000;stroke-width:1;" x1="326.7415" x2="551.7969" y1="545.7876" y2="545.7876"/><polygon fill="#000000" points="547.7969,411.5193,551.7969,401.5193,555.7969,411.5193,551.7969,407.5193" style="stroke:#000000;stroke-width:1;"/><line style="stroke:#000000;stroke-width:1;" x1="551.7969" x2="551.7969" y1="243.0605" y2="545.7876"/><line style="stroke:#000000;stroke-width:1;" x1="551.7969" x2="409.0491" y1="243.0605" y2="243.0605"/><polygon fill="#000000" points="419.0491,239.0605,409.0491,243.0605,419.0491,247.0605,415.0491,243.0605" style="stroke:#000000;stroke-width:1;"/><line style="stroke:#000000;stroke-width:1;" x1="244.4338" x2="29" y1="243.0605" y2="243.0605"/><polygon fill="#000000" points="25,397.5193,29,407.5193,33,397.5193,29,401.5193" style="stroke:#000000;stroke-width:1;"/><line style="stroke:#000000;stroke-width:1;" x1="29" x2="29" y1="243.0605" y2="557.7876"/><line style="stroke:#000000;stroke-width:1;" x1="29" x2="326.7415" y1="557.7876" y2="557.7876"/><line style="stroke:#000000;stroke-width:1;" x1="326.7415" x2="326.7415" y1="557.7876" y2="577.7876"/><polygon fill="#000000" points="322.7415,567.7876,326.7415,577.7876,330.7415,567.7876,326.7415,571.7876" style="stroke:#000000;stroke-width:1;"/><line style="stroke:#000000;stroke-width:1;" x1="326.7415" x2="326.7415" y1="211.0605" y2="231.0605"/><polygon fill="#000000" points="322.7415,221.0605,326.7415,231.0605,330.7415,221.0605,326.7415,225.0605" style="stroke:#000000;stroke-width:1;"/><line style="stroke:#000000;stroke-width:1;" x1="326.7415" x2="326.7415" y1="612.3716" y2="632.3716"/><polygon fill="#000000" points="322.7415,622.3716,326.7415,632.3716,330.7415,622.3716,326.7415,626.3716" style="stroke:#000000;stroke-width:1;"/><line style="stroke:#000000;stroke-width:1;" x1="771.7661" x2="771.7661" y1="684.3716" y2="704.3716"/><polygon fill="#000000" points="767.7661,694.3716,771.7661,704.3716,775.7661,694.3716,771.7661,698.3716" style="stroke:#000000;stroke-width:1;"/><line style="stroke:#000000;stroke-width:1;" x1="771.7661" x2="771.7661" y1="738.9556" y2="758.9556"/><polygon fill="#000000" points="767.7661,748.9556,771.7661,758.9556,775.7661,748.9556,771.7661,752.9556" style="stroke:#000000;stroke-width:1;"/><line style="stroke:#000000;stroke-width:1;" x1="771.7661" x2="771.7661" y1="793.5396" y2="813.5396"/><polygon fill="#000000" points="767.7661,803.5396,771.7661,813.5396,775.7661,803.5396,771.7661,807.5396" style="stroke:#000000;stroke-width:1;"/><line style="stroke:#000000;stroke-width:1;" x1="771.7661" x2="771.7661" y1="848.1235" y2="868.1235"/><polygon fill="#000000" points="767.7661,858.1235,771.7661,868.1235,775.7661,858.1235,771.7661,862.1235" style="stroke:#000000;stroke-width:1;"/><line style="stroke:#000000;stroke-width:1;" x1="771.7661" x2="771.7661" y1="1111.2192" y2="1146.2192"/><polygon fill="#000000" points="767.7661,1136.2192,771.7661,1146.2192,775.7661,1136.2192,771.7661,1140.2192" style="stroke:#000000;stroke-width:1;"/><line style="stroke:#000000;stroke-width:1;" x1="771.7661" x2="771.7661" y1="1051.9509" y2="1076.6353"/><polygon fill="#000000" points="767.7661,1066.6353,771.7661,1076.6353,775.7661,1066.6353,771.7661,1070.6353" style="stroke:#000000;stroke-width:1;"/><line style="stroke:#000000;stroke-width:1;" x1="858.6553" x2="870.6553" y1="1039.9509" y2="1039.9509"/><polygon fill="#000000" points="866.6553,1118.7192,870.6553,1128.7192,874.6553,1118.7192,870.6553,1122.7192" style="stroke:#000000;stroke-width:1;"/><line style="stroke:#000000;stroke-width:1;" x1="870.6553" x2="870.6553" y1="1039.9509" y2="1212.8032"/><line style="stroke:#000000;stroke-width:1;" x1="870.6553" x2="783.7661" y1="1212.8032" y2="1212.8032"/><polygon fill="#000000" points="793.7661,1208.8032,783.7661,1212.8032,793.7661,1216.8032,789.7661,1212.8032" style="stroke:#000000;stroke-width:1;"/><line style="stroke:#000000;stroke-width:1;" x1="771.7661" x2="771.7661" y1="1180.8032" y2="1200.8032"/><polygon fill="#000000" points="767.7661,1190.8032,771.7661,1200.8032,775.7661,1190.8032,771.7661,1194.8032" style="stroke:#000000;stroke-width:1;"/><line style="stroke:#000000;stroke-width:1;" x1="771.7661" x2="771.7661" y1="1003.2666" y2="1027.9509"/><polygon fill="#000000" points="767.7661,1017.9509,771.7661,1027.9509,775.7661,1017.9509,771.7661,1021.9509" style="stroke:#000000;stroke-width:1;"/><line style="stroke:#000000;stroke-width:1;" x1="898.0469" x2="910.0469" y1="991.2666" y2="991.2666"/><polygon fill="#000000" points="906.0469,1118.7192,910.0469,1128.7192,914.0469,1118.7192,910.0469,1122.7192" style="stroke:#000000;stroke-width:1;"/><line style="stroke:#000000;stroke-width:1;" x1="910.0469" x2="910.0469" y1="991.2666" y2="1256.8032"/><line style="stroke:#000000;stroke-width:1;" x1="910.0469" x2="783.7661" y1="1256.8032" y2="1256.8032"/><polygon fill="#000000" points="793.7661,1252.8032,783.7661,1256.8032,793.7661,1260.8032,789.7661,1256.8032" style="stroke:#000000;stroke-width:1;"/><line style="stroke:#000000;stroke-width:1;" x1="771.7661" x2="771.7661" y1="1224.8032" y2="1244.8032"/><polygon fill="#000000" points="767.7661,1234.8032,771.7661,1244.8032,775.7661,1234.8032,771.7661,1238.8032" style="stroke:#000000;stroke-width:1;"/><line style="stroke:#000000;stroke-width:1;" x1="771.7661" x2="771.7661" y1="1268.8032" y2="1288.8032"/><polygon fill="#000000" points="767.7661,1278.8032,771.7661,1288.8032,775.7661,1278.8032,771.7661,1282.8032" style="stroke:#000000;stroke-width:1;"/><line style="stroke:#000000;stroke-width:1;" x1="771.7661" x2="771.7661" y1="946.7075" y2="979.2666"/><polygon fill="#000000" points="767.7661,969.2666,771.7661,979.2666,775.7661,969.2666,771.7661,973.2666" style="stroke:#000000;stroke-width:1;"/><line style="stroke:#000000;stroke-width:1;" x1="771.7661" x2="771.7661" y1="1323.3872" y2="1333.3872"/><line style="stroke:#000000;stroke-width:1;" x1="771.7661" x2="922.0469" y1="1333.3872" y2="1333.3872"/><polygon fill="#000000" points="918.0469,1154.8269,922.0469,1144.8269,926.0469,1154.8269,922.0469,1150.8269" style="stroke:#000000;stroke-width:1;"/><line style="stroke:#000000;stroke-width:1;" x1="922.0469" x2="922.0469" y1="934.7075" y2="1333.3872"/><line style="stroke:#000000;stroke-width:1;" x1="922.0469" x2="854.0737" y1="934.7075" y2="934.7075"/><polygon fill="#000000" points="864.0737,930.7075,854.0737,934.7075,864.0737,938.7075,860.0737,934.7075" style="stroke:#000000;stroke-width:1;"/><line style="stroke:#000000;stroke-width:1;" x1="689.4585" x2="633.4854" y1="934.7075" y2="934.7075"/><polygon fill="#000000" points="629.4854,1140.8269,633.4854,1150.8269,637.4854,1140.8269,633.4854,1144.8269" style="stroke:#000000;stroke-width:1;"/><line style="stroke:#000000;stroke-width:1;" x1="633.4854" x2="633.4854" y1="934.7075" y2="1345.3872"/><line style="stroke:#000000;stroke-width:1;" x1="633.4854" x2="771.7661" y1="1345.3872" y2="1345.3872"/><line style="stroke:#000000;stroke-width:1;" x1="771.7661" x2="771.7661" y1="1345.3872" y2="1365.3872"/><polygon fill="#000000" points="767.7661,1355.3872,771.7661,1365.3872,775.7661,1355.3872,771.7661,1359.3872" style="stroke:#000000;stroke-width:1;"/><line style="stroke:#000000;stroke-width:1;" x1="771.7661" x2="771.7661" y1="902.7075" y2="922.7075"/><polygon fill="#000000" points="767.7661,912.7075,771.7661,922.7075,775.7661,912.7075,771.7661,916.7075" style="stroke:#000000;stroke-width:1;"/><line style="stroke:#000000;stroke-width:1;" x1="673.6035" x2="673.6035" y1="1433.9712" y2="1453.9712"/><polygon fill="#000000" points="669.6035,1443.9712,673.6035,1453.9712,677.6035,1443.9712,673.6035,1447.9712" style="stroke:#000000;stroke-width:1;"/><line style="stroke:#000000;stroke-width:1;" x1="708.9932" x2="673.6035" y1="1377.3872" y2="1377.3872"/><line style="stroke:#000000;stroke-width:1;" x1="673.6035" x2="673.6035" y1="1377.3872" y2="1399.3872"/><polygon fill="#000000" points="669.6035,1389.3872,673.6035,1399.3872,677.6035,1389.3872,673.6035,1393.3872" style="stroke:#000000;stroke-width:1;"/><line style="stroke:#000000;stroke-width:1;" x1="834.5391" x2="869.9287" y1="1377.3872" y2="1377.3872"/><line style="stroke:#000000;stroke-width:1;" x1="869.9287" x2="869.9287" y1="1377.3872" y2="1399.3872"/><polygon fill="#000000" points="865.9287,1389.3872,869.9287,1399.3872,873.9287,1389.3872,869.9287,1393.3872" style="stroke:#000000;stroke-width:1;"/><line style="stroke:#000000;stroke-width:1;" x1="673.6035" x2="673.6035" y1="1488.5552" y2="1506.5552"/><line style="stroke:#000000;stroke-width:1;" x1="673.6035" x2="759.7661" y1="1506.5552" y2="1506.5552"/><polygon fill="#000000" points="749.7661,1502.5552,759.7661,1506.5552,749.7661,1510.5552,753.7661,1506.5552" style="stroke:#000000;stroke-width:1;"/><line style="stroke:#000000;stroke-width:1;" x1="869.9287" x2="869.9287" y1="1433.9712" y2="1506.5552"/><line style="stroke:#000000;stroke-width:1;" x1="869.9287" x2="783.7661" y1="1506.5552" y2="1506.5552"/><polygon fill="#000000" points="793.7661,1502.5552,783.7661,1506.5552,793.7661,1510.5552,789.7661,1506.5552" style="stroke:#000000;stroke-width:1;"/><line style="stroke:#000000;stroke-width:1;" x1="771.7661" x2="771.7661" y1="1518.5552" y2="1538.5552"/><polygon fill="#000000" points="767.7661,1528.5552,771.7661,1538.5552,775.7661,1528.5552,771.7661,1532.5552" style="stroke:#000000;stroke-width:1;"/><line style="stroke:#000000;stroke-width:1;" x1="1249.7676" x2="1249.7676" y1="1590.5552" y2="1610.5552"/><polygon fill="#000000" points="1245.7676,1600.5552,1249.7676,1610.5552,1253.7676,1600.5552,1249.7676,1604.5552" style="stroke:#000000;stroke-width:1;"/><line style="stroke:#000000;stroke-width:1;" x1="1249.7676" x2="1249.7676" y1="1645.1392" y2="1665.1392"/><polygon fill="#000000" points="1245.7676,1655.1392,1249.7676,1665.1392,1253.7676,1655.1392,1249.7676,1659.1392" style="stroke:#000000;stroke-width:1;"/><line style="stroke:#000000;stroke-width:1;" x1="1249.7676" x2="1249.7676" y1="1699.7231" y2="1719.7231"/><polygon fill="#000000" points="1245.7676,1709.7231,1249.7676,1719.7231,1253.7676,1709.7231,1249.7676,1713.7231" style="stroke:#000000;stroke-width:1;"/><line style="stroke:#000000;stroke-width:1;" x1="1118.9873" x2="1118.9873" y1="1899.4502" y2="1919.4502"/><polygon fill="#000000" points="1114.9873,1909.4502,1118.9873,1919.4502,1122.9873,1909.4502,1118.9873,1913.4502" style="stroke:#000000;stroke-width:1;"/><line style="stroke:#000000;stroke-width:1;" x1="1118.9873" x2="1118.9873" y1="1954.0342" y2="1974.0342"/><polygon fill="#000000" points="1114.9873,1964.0342,1118.9873,1974.0342,1122.9873,1964.0342,1118.9873,1968.0342" style="stroke:#000000;stroke-width:1;"/><line style="stroke:#000000;stroke-width:1;" x1="1118.9873" x2="1118.9873" y1="2008.6182" y2="2028.6182"/><polygon fill="#000000" points="1114.9873,2018.6182,1118.9873,2028.6182,1122.9873,2018.6182,1118.9873,2022.6182" style="stroke:#000000;stroke-width:1;"/><line style="stroke:#000000;stroke-width:1;" x1="1380.5479" x2="1380.5479" y1="1899.4502" y2="1919.4502"/><polygon fill="#000000" points="1376.5479,1909.4502,1380.5479,1919.4502,1384.5479,1909.4502,1380.5479,1913.4502" style="stroke:#000000;stroke-width:1;"/><line style="stroke:#000000;stroke-width:1;" x1="1169.0229" x2="1118.9873" y1="1842.8662" y2="1842.8662"/><line style="stroke:#000000;stroke-width:1;" x1="1118.9873" x2="1118.9873" y1="1842.8662" y2="1864.8662"/><polygon fill="#000000" points="1114.9873,1854.8662,1118.9873,1864.8662,1122.9873,1854.8662,1118.9873,1858.8662" style="stroke:#000000;stroke-width:1;"/><line style="stroke:#000000;stroke-width:1;" x1="1330.5122" x2="1380.5479" y1="1842.8662" y2="1842.8662"/><line style="stroke:#000000;stroke-width:1;" x1="1380.5479" x2="1380.5479" y1="1842.8662" y2="1864.8662"/><polygon fill="#000000" points="1376.5479,1854.8662,1380.5479,1864.8662,1384.5479,1854.8662,1380.5479,1858.8662" style="stroke:#000000;stroke-width:1;"/><line style="stroke:#000000;stroke-width:1;" x1="1380.5479" x2="1380.5479" y1="1954.0342" y2="2060.6182"/><line style="stroke:#000000;stroke-width:1;" x1="1380.5479" x2="1503.5684" y1="2060.6182" y2="2060.6182"/><polygon fill="#000000" points="1499.5684,1942.5579,1503.5684,1932.5579,1507.5684,1942.5579,1503.5684,1938.5579" style="stroke:#000000;stroke-width:1;"/><line style="stroke:#000000;stroke-width:1;" x1="1503.5684" x2="1503.5684" y1="1786.3071" y2="2060.6182"/><line style="stroke:#000000;stroke-width:1;" x1="1503.5684" x2="1311.3938" y1="1786.3071" y2="1786.3071"/><polygon fill="#000000" points="1321.3938,1782.3071,1311.3938,1786.3071,1321.3938,1790.3071,1317.3938,1786.3071" style="stroke:#000000;stroke-width:1;"/><line style="stroke:#000000;stroke-width:1;" x1="1249.7676" x2="1249.7676" y1="1798.3071" y2="1830.8662"/><polygon fill="#000000" points="1245.7676,1820.8662,1249.7676,1830.8662,1253.7676,1820.8662,1249.7676,1824.8662" style="stroke:#000000;stroke-width:1;"/><line style="stroke:#000000;stroke-width:1;" x1="1188.1414" x2="972.4473" y1="1786.3071" y2="1786.3071"/><polygon fill="#000000" points="968.4473,1928.5579,972.4473,1938.5579,976.4473,1928.5579,972.4473,1932.5579" style="stroke:#000000;stroke-width:1;"/><line style="stroke:#000000;stroke-width:1;" x1="972.4473" x2="972.4473" y1="1786.3071" y2="2072.6182"/><line style="stroke:#000000;stroke-width:1;" x1="972.4473" x2="1249.7676" y1="2072.6182" y2="2072.6182"/><line style="stroke:#000000;stroke-width:1;" x1="1249.7676" x2="1249.7676" y1="2072.6182" y2="2092.6182"/><polygon fill="#000000" points="1245.7676,2082.6182,1249.7676,2092.6182,1253.7676,2082.6182,1249.7676,2086.6182" style="stroke:#000000;stroke-width:1;"/><line style="stroke:#000000;stroke-width:1;" x1="1249.7676" x2="1249.7676" y1="1754.3071" y2="1774.3071"/><polygon fill="#000000" points="1245.7676,1764.3071,1249.7676,1774.3071,1253.7676,1764.3071,1249.7676,1768.3071" style="stroke:#000000;stroke-width:1;"/><line style="stroke:#000000;stroke-width:1;" x1="1249.7676" x2="1249.7676" y1="2127.2021" y2="2147.2021"/><polygon fill="#000000" points="1245.7676,2137.2021,1249.7676,2147.2021,1253.7676,2137.2021,1249.7676,2141.2021" style="stroke:#000000;stroke-width:1;"/><line style="stroke:#000000;stroke-width:1;" x1="1249.7676" x2="1249.7676" y1="2181.7861" y2="2201.7861"/><polygon fill="#000000" points="1245.7676,2191.7861,1249.7676,2201.7861,1253.7676,2191.7861,1249.7676,2195.7861" style="stroke:#000000;stroke-width:1;"/><text fill="#333333" font-family="Verdana" font-size="18" lengthAdjust="spacing" textLength="164.3115" x="208.2427" y="73.1133">First-Fit Algorithm</text><text fill="#333333" font-family="Verdana" font-size="18" lengthAdjust="spacing" textLength="164.4082" x="679.918" y="73.1133">Best-Fit Algorithm</text><text fill="#333333" font-family="Verdana" font-size="18" lengthAdjust="spacing" textLength="210.9199" x="1132.5479" y="73.1133">Round-Robin Algorithm</text><!--SRC=[fLJVRzem47xtNt5JDGaqyK0hRHgicsXffZwq3wdsF9daKau4czcNjapyyRD3I1n8wOy52Lc-x-plxljy7tYEIuHLBaa99iuHOhIwC0d29Czr8fcqSijxROZdImjHhX-5i0jIAsda4cOoMTmRNQZqKkVQm4bqvNy1GYPC3yJhYttarLbq6asxaDgaQ2hKyEkNpzFJ3bIa5LUOi_8BC2bciiZv428s4HdBWuYugMeZB4l3OXHZWlI089lI3VufqF9OZEuy1ZAZbv3vCrneswcnU9oJwrplHXkiTosmXcIEoU977yX2RussBy1zb46lxhAblmZVptVtOEhGJXGLu0zot6cPGUn6-czKQOS1nrOyHYwCggDmFMq3BEjLlO6vTSKflNV7ZNQTSZKgVEAEUr2bb8dk_6EvspptNpNLv-tu1hfaqaNJiIYPYiq5la_KQqLCClSYpDpExrAESo2LaOkiEn2aKdnoaC7GUoAH9Qj6zVyoGoKiJ6wdxp96cVEjgUI8GtwjKk-F6Zf-FbnMt2bilNfEqBQCdclGmypFWaEAZNa3RDiZdVvjs-o8PRQqA-F4diGWrZDIR_NEJsH82cDGCQoq9H_sdf0keSmFTgikt6ek9wPlLGdfiiDbTQPvrNjlsfNivJMIxUJSyN7sxTNhJp3imqV7Y6KUf1mR4VLuUEbfDmseuw_aq3a69k5BsxudB-XBu-4V]--></g></svg>