<svg xmlns="http://www.w3.org/2000/svg" xmlns:xlink="http://www.w3.org/1999/xlink" contentStyleType="text/css" data-diagram-type="SEQUENCE" height="1638px" preserveAspectRatio="none" style="width:962px;height:1638px;background:#FEFEFE;" version="1.1" viewBox="0 0 962 1638" width="962px" zoomAndPan="magnify"><title>Banker's Algorithm - Deadlock Avoidance</title><defs/><g><rect fill="#FEFEFE" height="1638" style="stroke:none;stroke-width:1;" width="962" x="0" y="0"/><text fill="#333333" font-family="Verdana" font-size="22" font-weight="bold" lengthAdjust="spacing" textLength="511.5215" x="231.5952" y="37.1182">Banker's Algorithm - Deadlock Avoidance</text><g><title>Banker.s Algorithm</title><rect fill="#FAFAFA" height="647.2456" style="stroke:#000000;stroke-width:1;" width="10" x="447.1421" y="361.3438"/></g><g><title>Banker.s Algorithm</title><rect fill="#FAFAFA" height="512.3877" style="stroke:#000000;stroke-width:1;" width="10" x="447.1421" y="1038.3887"/></g><rect fill="#FFFFFF" height="326.5918" style="stroke:#000000;stroke-width:1;" width="289.6221" x="358.2012" y="585.8003"/><rect fill="#FFFFFF" height="378.1904" style="stroke:#000000;stroke-width:1;" width="445.2798" x="358.2012" y="1104.9873"/><g><title>Process P1</title><rect fill="#000000" fill-opacity="0.00000" height="1444.0244" width="8" x="60.7002" y="115.752"/><line style="stroke:#000000;stroke-width:1;" x1="64" x2="64" y1="115.752" y2="1559.7764"/></g><g><title>Process P2</title><rect fill="#000000" fill-opacity="0.00000" height="1444.0244" width="8" x="180.1006" y="115.752"/><line style="stroke:#000000;stroke-width:1;" x1="183.4004" x2="183.4004" y1="115.752" y2="1559.7764"/></g><g><title>Process P3</title><rect fill="#000000" fill-opacity="0.00000" height="1444.0244" width="8" x="299.501" y="115.752"/><line style="stroke:#000000;stroke-width:1;" x1="302.8008" x2="302.8008" y1="115.752" y2="1559.7764"/></g><g><title>Banker.s Algorithm</title><rect fill="#000000" fill-opacity="0.00000" height="1444.0244" width="8" x="448.1421" y="115.752"/><line style="stroke:#000000;stroke-width:1;" x1="451.2012" x2="451.2012" y1="115.752" y2="1559.7764"/></g><g><title>Resource Pool</title><rect fill="#000000" fill-opacity="0.00000" height="1444.0244" width="8" x="679.1924" y="115.752"/><line style="stroke:#000000;stroke-width:1;" x1="682.9258" x2="682.9258" y1="115.752" y2="1559.7764"/></g><g class="participant participant-head" data-participant="P1"><rect fill="#E3F2FD" height="31.0146" rx="2.5" ry="2.5" style="stroke:#000000;stroke-width:1;" width="89.4004" x="20" y="83.7373"/><text fill="#333333" font-family="Verdana" font-size="14" lengthAdjust="spacing" textLength="75.4004" x="27" y="104.8125">Process P1</text></g><g class="participant participant-tail" data-participant="P1"><rect fill="#E3F2FD" height="31.0146" rx="2.5" ry="2.5" style="stroke:#000000;stroke-width:1;" width="89.4004" x="20" y="1558.7764"/><text fill="#333333" font-family="Verdana" font-size="14" lengthAdjust="spacing" textLength="75.4004" x="27" y="1579.8516">Process P1</text></g><g class="participant participant-head" data-participant="P2"><rect fill="#E3F2FD" height="31.0146" rx="2.5" ry="2.5" style="stroke:#000000;stroke-width:1;" width="89.4004" x="139.4004" y="83.7373"/><text fill="#333333" font-family="Verdana" font-size="14" lengthAdjust="spacing" textLength="75.4004" x="146.4004" y="104.8125">Process P2</text></g><g class="participant participant-tail" data-participant="P2"><rect fill="#E3F2FD" height="31.0146" rx="2.5" ry="2.5" style="stroke:#000000;stroke-width:1;" width="89.4004" x="139.4004" y="1558.7764"/><text fill="#333333" font-family="Verdana" font-size="14" lengthAdjust="spacing" textLength="75.4004" x="146.4004" y="1579.8516">Process P2</text></g><g class="participant participant-head" data-participant="P3"><rect fill="#E3F2FD" height="31.0146" rx="2.5" ry="2.5" style="stroke:#000000;stroke-width:1;" width="89.4004" x="258.8008" y="83.7373"/><text fill="#333333" font-family="Verdana" font-size="14" lengthAdjust="spacing" textLength="75.4004" x="265.8008" y="104.8125">Process P3</text></g><g class="participant participant-tail" data-participant="P3"><rect fill="#E3F2FD" height="31.0146" rx="2.5" ry="2.5" style="stroke:#000000;stroke-width:1;" width="89.4004" x="258.8008" y="1558.7764"/><text fill="#333333" font-family="Verdana" font-size="14" lengthAdjust="spacing" textLength="75.4004" x="265.8008" y="1579.8516">Process P3</text></g><g class="participant participant-head" data-participant="BA"><rect fill="#E3F2FD" height="31.0146" rx="2.5" ry="2.5" style="stroke:#000000;stroke-width:1;" width="147.8818" x="378.2012" y="83.7373"/><text fill="#333333" font-family="Verdana" font-size="14" lengthAdjust="spacing" textLength="133.8818" x="385.2012" y="104.8125">Banker's Algorithm</text></g><g class="participant participant-tail" data-participant="BA"><rect fill="#E3F2FD" height="31.0146" rx="2.5" ry="2.5" style="stroke:#000000;stroke-width:1;" width="147.8818" x="378.2012" y="1558.7764"/><text fill="#333333" font-family="Verdana" font-size="14" lengthAdjust="spacing" textLength="133.8818" x="385.2012" y="1579.8516">Banker's Algorithm</text></g><g class="participant participant-head" data-participant="RP"><text fill="#333333" font-family="Verdana" font-size="14" lengthAdjust="spacing" textLength="98.5332" x="630.9258" y="112.8125">Resource Pool</text><path d="M665.1924,62.7373 C665.1924,52.7373 683.1924,52.7373 683.1924,52.7373 C683.1924,52.7373 701.1924,52.7373 701.1924,62.7373 L701.1924,88.7373 C701.1924,98.7373 683.1924,98.7373 683.1924,98.7373 C683.1924,98.7373 665.1924,98.7373 665.1924,88.7373 L665.1924,62.7373" fill="#FFFFFF" style="stroke:#000000;stroke-width:1;"/><path d="M665.1924,62.7373 C665.1924,72.7373 683.1924,72.7373 683.1924,72.7373 C683.1924,72.7373 701.1924,72.7373 701.1924,62.7373" fill="none" style="stroke:#000000;stroke-width:1;"/></g><g class="participant participant-tail" data-participant="RP"><text fill="#333333" font-family="Verdana" font-size="14" lengthAdjust="spacing" textLength="98.5332" x="630.9258" y="1572.8516">Resource Pool</text><path d="M665.1924,1585.791 C665.1924,1575.791 683.1924,1575.791 683.1924,1575.791 C683.1924,1575.791 701.1924,1575.791 701.1924,1585.791 L701.1924,1611.791 C701.1924,1621.791 683.1924,1621.791 683.1924,1621.791 C683.1924,1621.791 665.1924,1621.791 665.1924,1611.791 L665.1924,1585.791" fill="#FFFFFF" style="stroke:#000000;stroke-width:1;"/><path d="M665.1924,1585.791 C665.1924,1595.791 683.1924,1595.791 683.1924,1595.791 C683.1924,1595.791 701.1924,1595.791 701.1924,1585.791" fill="none" style="stroke:#000000;stroke-width:1;"/></g><g><title>Banker.s Algorithm</title><rect fill="#FAFAFA" height="647.2456" style="stroke:#000000;stroke-width:1;" width="10" x="447.1421" y="361.3438"/></g><g><title>Banker.s Algorithm</title><rect fill="#FAFAFA" height="512.3877" style="stroke:#000000;stroke-width:1;" width="10" x="447.1421" y="1038.3887"/></g><path d="M583,130.752 L583,171.752 L781,171.752 L781,140.752 L771,130.752 L583,130.752" fill="#FFFFFF" style="stroke:#000000;stroke-width:1;"/><path d="M771,130.752 L771,140.752 L781,140.752 L771,130.752" fill="#FFFFFF" style="stroke:#000000;stroke-width:1;"/><text fill="#333333" font-family="Verdana" font-size="13" lengthAdjust="spacing" textLength="177.417" x="589" y="148.8218">Total Resources: [10, 5, 7]</text><text fill="#333333" font-family="Verdana" font-size="13" lengthAdjust="spacing" textLength="124.4141" x="589" y="164.6211">Available: [3, 3, 2]</text><path d="M380,182.3506 L380,334.3506 L524,334.3506 L524,192.3506 L514,182.3506 L380,182.3506" fill="#FFFFFF" style="stroke:#000000;stroke-width:1;"/><path d="M514,182.3506 L514,192.3506 L524,192.3506 L514,182.3506" fill="#FFFFFF" style="stroke:#000000;stroke-width:1;"/><text fill="#333333" font-family="Verdana" font-size="13" lengthAdjust="spacing" textLength="123.2651" x="386" y="200.4204">Current Allocation:</text><text fill="#333333" font-family="Verdana" font-size="13" lengthAdjust="spacing" textLength="81.7769" x="386" y="216.2197">P1: [0, 1, 0]</text><text fill="#333333" font-family="Verdana" font-size="13" lengthAdjust="spacing" textLength="81.7769" x="386" y="232.019">P2: [2, 0, 0]</text><text fill="#333333" font-family="Verdana" font-size="13" lengthAdjust="spacing" textLength="81.7769" x="386" y="247.8184">P3: [3, 0, 2]</text><text fill="#333333" font-family="Verdana" font-size="13" lengthAdjust="spacing" textLength="4.5703" x="386" y="263.6177">&#160;</text><text fill="#333333" font-family="Verdana" font-size="13" lengthAdjust="spacing" textLength="91.4697" x="386" y="279.417">Max Demand:</text><text fill="#333333" font-family="Verdana" font-size="13" lengthAdjust="spacing" textLength="81.7769" x="386" y="295.2163">P1: [7, 5, 3]</text><text fill="#333333" font-family="Verdana" font-size="13" lengthAdjust="spacing" textLength="81.7769" x="386" y="311.0156">P2: [3, 2, 2]</text><text fill="#333333" font-family="Verdana" font-size="13" lengthAdjust="spacing" textLength="81.7769" x="386" y="326.8149">P3: [9, 0, 2]</text><g class="message" data-participant-1="P1" data-participant-2="BA"><polygon fill="#000000" points="435.1421,357.3438,445.1421,361.3438,435.1421,365.3438,439.1421,361.3438" style="stroke:#000000;stroke-width:1;"/><line style="stroke:#000000;stroke-width:1;" x1="64.7002" x2="441.1421" y1="361.3438" y2="361.3438"/><text fill="#333333" font-family="Verdana" font-size="13" lengthAdjust="spacing" textLength="112.5186" x="71.7002" y="356.6143">Request [1, 0, 2]</text></g><g class="message" data-participant-1="BA" data-participant-2="BA"><line style="stroke:#000000;stroke-width:1;" x1="457.1421" x2="499.1421" y1="405.873" y2="405.873"/><line style="stroke:#000000;stroke-width:1;" x1="499.1421" x2="499.1421" y1="405.873" y2="418.873"/><line style="stroke:#000000;stroke-width:1;" x1="458.1421" x2="499.1421" y1="418.873" y2="418.873"/><polygon fill="#000000" points="468.1421,414.873,458.1421,418.873,468.1421,422.873,464.1421,418.873" style="stroke:#000000;stroke-width:1;"/><text fill="#333333" font-family="Verdana" font-size="13" lengthAdjust="spacing" textLength="169.7808" x="464.1421" y="401.1436">Check if request &lt;= Need</text></g><path d="M655.7808,374.3438 L655.7808,436.3438 L923.7808,436.3438 L923.7808,384.3438 L913.7808,374.3438 L655.7808,374.3438" fill="#FFFFFF" style="stroke:#000000;stroke-width:1;"/><path d="M913.7808,374.3438 L913.7808,384.3438 L923.7808,384.3438 L913.7808,374.3438" fill="#FFFFFF" style="stroke:#000000;stroke-width:1;"/><text fill="#333333" font-family="Verdana" font-size="13" lengthAdjust="spacing" textLength="241.6235" x="661.7808" y="392.4136">Need[P1] = Max[P1] - Allocation[P1]</text><text fill="#333333" font-family="Verdana" font-size="17" font-weight="bold" lengthAdjust="spacing" textLength="247.2056" x="661.7808" y="412.2344">[7,5,3] - [0,1,0] = [7,4,3]</text><text fill="#333333" font-family="Verdana" font-size="13" lengthAdjust="spacing" textLength="137.0396" x="661.7808" y="428.8735">[1,0,2] &lt;= [7,4,3] &#10003;</text><g class="message" data-participant-1="BA" data-participant-2="BA"><line style="stroke:#000000;stroke-width:1;" x1="457.1421" x2="499.1421" y1="463.4023" y2="463.4023"/><line style="stroke:#000000;stroke-width:1;" x1="499.1421" x2="499.1421" y1="463.4023" y2="476.4023"/><line style="stroke:#000000;stroke-width:1;" x1="458.1421" x2="499.1421" y1="476.4023" y2="476.4023"/><polygon fill="#000000" points="468.1421,472.4023,458.1421,476.4023,468.1421,480.4023,464.1421,476.4023" style="stroke:#000000;stroke-width:1;"/><text fill="#333333" font-family="Verdana" font-size="13" lengthAdjust="spacing" textLength="195.2095" x="464.1421" y="458.6729">Check if request &lt;= Available</text></g><path d="M681.2095,450.103 L681.2095,475.103 L839.2095,475.103 L839.2095,460.103 L829.2095,450.103 L681.2095,450.103" fill="#FFFFFF" style="stroke:#000000;stroke-width:1;"/><path d="M829.2095,450.103 L829.2095,460.103 L839.2095,460.103 L829.2095,450.103" fill="#FFFFFF" style="stroke:#000000;stroke-width:1;"/><text fill="#333333" font-family="Verdana" font-size="13" lengthAdjust="spacing" textLength="137.0396" x="687.2095" y="468.1729">[1,0,2] &lt;= [3,3,2] &#10003;</text><g class="message" data-participant-1="BA" data-participant-2="BA"><line style="stroke:#000000;stroke-width:1;" x1="457.1421" x2="499.1421" y1="510.6013" y2="510.6013"/><line style="stroke:#000000;stroke-width:1;" x1="499.1421" x2="499.1421" y1="510.6013" y2="523.6013"/><line style="stroke:#000000;stroke-width:1;" x1="458.1421" x2="499.1421" y1="523.6013" y2="523.6013"/><polygon fill="#000000" points="468.1421,519.6013,458.1421,523.6013,468.1421,527.6013,464.1421,523.6013" style="stroke:#000000;stroke-width:1;"/><text fill="#333333" font-family="Verdana" font-size="13" lengthAdjust="spacing" textLength="127.1499" x="464.1421" y="505.8718">Tentatively allocate</text></g><path d="M613.1499,489.4023 L613.1499,530.4023 L922.1499,530.4023 L922.1499,499.4023 L912.1499,489.4023 L613.1499,489.4023" fill="#FFFFFF" style="stroke:#000000;stroke-width:1;"/><path d="M912.1499,489.4023 L912.1499,499.4023 L922.1499,499.4023 L912.1499,489.4023" fill="#FFFFFF" style="stroke:#000000;stroke-width:1;"/><text fill="#333333" font-family="Verdana" font-size="13" lengthAdjust="spacing" textLength="251.5195" x="619.1499" y="507.4722">Available = [3,3,2] - [1,0,2] = [2,3,0]</text><text fill="#333333" font-family="Verdana" font-size="13" lengthAdjust="spacing" textLength="288.7231" x="619.1499" y="523.2715">Allocation[P1] = [0,1,0] + [1,0,2] = [1,1,2]</text><g class="message" data-participant-1="BA" data-participant-2="BA"><line style="stroke:#000000;stroke-width:1;" x1="457.1421" x2="499.1421" y1="557.8003" y2="557.8003"/><line style="stroke:#000000;stroke-width:1;" x1="499.1421" x2="499.1421" y1="557.8003" y2="570.8003"/><line style="stroke:#000000;stroke-width:1;" x1="458.1421" x2="499.1421" y1="570.8003" y2="570.8003"/><polygon fill="#000000" points="468.1421,566.8003,458.1421,570.8003,468.1421,574.8003,464.1421,570.8003" style="stroke:#000000;stroke-width:1;"/><text fill="#333333" font-family="Verdana" font-size="13" lengthAdjust="spacing" textLength="140.0103" x="464.1421" y="553.0708">Run Safety Algorithm</text></g><path d="M626.0103,544.501 L626.0103,569.501 L771.0103,569.501 L771.0103,554.501 L761.0103,544.501 L626.0103,544.501" fill="#FFFFFF" style="stroke:#000000;stroke-width:1;"/><path d="M761.0103,544.501 L761.0103,554.501 L771.0103,554.501 L761.0103,544.501" fill="#FFFFFF" style="stroke:#000000;stroke-width:1;"/><text fill="#333333" font-family="Verdana" font-size="13" lengthAdjust="spacing" textLength="124.7314" x="632.0103" y="562.5708">Find safe sequence</text><path d="M358.2012,585.8003 L497.7432,585.8003 L497.7432,593.5996 L487.7432,603.5996 L358.2012,603.5996 L358.2012,585.8003" fill="#FFFFFF" style="stroke:#000000;stroke-width:1;"/><rect fill="none" height="326.5918" style="stroke:#000000;stroke-width:1;" width="289.6221" x="358.2012" y="585.8003"/><text fill="#333333" font-family="Verdana" font-size="13" font-weight="bold" lengthAdjust="spacing" textLength="94.542" x="373.2012" y="599.8701">Safety Check</text><g class="message" data-participant-1="BA" data-participant-2="BA"><line style="stroke:#000000;stroke-width:1;" x1="457.1421" x2="499.1421" y1="625.3989" y2="625.3989"/><line style="stroke:#000000;stroke-width:1;" x1="499.1421" x2="499.1421" y1="625.3989" y2="638.3989"/><line style="stroke:#000000;stroke-width:1;" x1="458.1421" x2="499.1421" y1="638.3989" y2="638.3989"/><polygon fill="#000000" points="468.1421,634.3989,458.1421,638.3989,468.1421,642.3989,464.1421,638.3989" style="stroke:#000000;stroke-width:1;"/><text fill="#333333" font-family="Verdana" font-size="13" lengthAdjust="spacing" textLength="99.8232" x="464.1421" y="620.6694">Work = [2,3,0]</text></g><g class="message" data-participant-1="BA" data-participant-2="BA"><line style="stroke:#000000;stroke-width:1;" x1="457.1421" x2="499.1421" y1="699.7969" y2="699.7969"/><line style="stroke:#000000;stroke-width:1;" x1="499.1421" x2="499.1421" y1="699.7969" y2="712.7969"/><line style="stroke:#000000;stroke-width:1;" x1="458.1421" x2="499.1421" y1="712.7969" y2="712.7969"/><polygon fill="#000000" points="468.1421,708.7969,458.1421,712.7969,468.1421,716.7969,464.1421,712.7969" style="stroke:#000000;stroke-width:1;"/><text fill="#333333" font-family="Verdana" font-size="13" lengthAdjust="spacing" textLength="92.3774" x="464.1421" y="663.4688">Can P2 finish?</text><text fill="#333333" font-family="Verdana" font-size="13" lengthAdjust="spacing" textLength="127.061" x="464.1421" y="679.2681">Need[P2] = [1,2,2]</text><text fill="#333333" font-family="Verdana" font-size="13" lengthAdjust="spacing" textLength="151.8105" x="464.1421" y="695.0674">[1,2,2] &lt;= [2,3,0]? No</text></g><g class="message" data-participant-1="BA" data-participant-2="BA"><line style="stroke:#000000;stroke-width:1;" x1="457.1421" x2="499.1421" y1="774.1948" y2="774.1948"/><line style="stroke:#000000;stroke-width:1;" x1="499.1421" x2="499.1421" y1="774.1948" y2="787.1948"/><line style="stroke:#000000;stroke-width:1;" x1="458.1421" x2="499.1421" y1="787.1948" y2="787.1948"/><polygon fill="#000000" points="468.1421,783.1948,458.1421,787.1948,468.1421,791.1948,464.1421,787.1948" style="stroke:#000000;stroke-width:1;"/><text fill="#333333" font-family="Verdana" font-size="13" lengthAdjust="spacing" textLength="92.3774" x="464.1421" y="737.8667">Can P3 finish?</text><text fill="#333333" font-family="Verdana" font-size="13" lengthAdjust="spacing" textLength="127.061" x="464.1421" y="753.666">Need[P3] = [6,0,0]</text><text fill="#333333" font-family="Verdana" font-size="13" lengthAdjust="spacing" textLength="151.8105" x="464.1421" y="769.4653">[6,0,0] &lt;= [2,3,0]? No</text></g><g class="message" data-participant-1="BA" data-participant-2="BA"><line style="stroke:#000000;stroke-width:1;" x1="457.1421" x2="499.1421" y1="848.5928" y2="848.5928"/><line style="stroke:#000000;stroke-width:1;" x1="499.1421" x2="499.1421" y1="848.5928" y2="861.5928"/><line style="stroke:#000000;stroke-width:1;" x1="458.1421" x2="499.1421" y1="861.5928" y2="861.5928"/><polygon fill="#000000" points="468.1421,857.5928,458.1421,861.5928,468.1421,865.5928,464.1421,861.5928" style="stroke:#000000;stroke-width:1;"/><text fill="#333333" font-family="Verdana" font-size="13" lengthAdjust="spacing" textLength="92.3774" x="464.1421" y="812.2646">Can P1 finish?</text><text fill="#333333" font-family="Verdana" font-size="13" lengthAdjust="spacing" textLength="127.061" x="464.1421" y="828.064">Need[P1] = [6,4,1]</text><text fill="#333333" font-family="Verdana" font-size="13" lengthAdjust="spacing" textLength="151.8105" x="464.1421" y="843.8633">[6,4,1] &lt;= [2,3,0]? No</text></g><g class="message" data-participant-1="BA" data-participant-2="BA"><line style="stroke:#000000;stroke-width:1;" x1="457.1421" x2="499.1421" y1="891.3921" y2="891.3921"/><line style="stroke:#000000;stroke-width:1;" x1="499.1421" x2="499.1421" y1="891.3921" y2="904.3921"/><line style="stroke:#000000;stroke-width:1;" x1="458.1421" x2="499.1421" y1="904.3921" y2="904.3921"/><polygon fill="#000000" points="468.1421,900.3921,458.1421,904.3921,468.1421,908.3921,464.1421,904.3921" style="stroke:#000000;stroke-width:1;"/><text fill="#333333" font-family="Verdana" font-size="13" lengthAdjust="spacing" textLength="161.6812" x="464.1421" y="886.6626">No safe sequence found!</text></g><g class="message" data-participant-1="BA" data-participant-2="BA"><line style="stroke:#000000;stroke-width:1;" x1="457.1421" x2="499.1421" y1="945.5911" y2="945.5911"/><line style="stroke:#000000;stroke-width:1;" x1="499.1421" x2="499.1421" y1="945.5911" y2="958.5911"/><line style="stroke:#000000;stroke-width:1;" x1="458.1421" x2="499.1421" y1="958.5911" y2="958.5911"/><polygon fill="#000000" points="468.1421,954.5911,458.1421,958.5911,468.1421,962.5911,464.1421,958.5911" style="stroke:#000000;stroke-width:1;"/><text fill="#333333" font-family="Verdana" font-size="13" lengthAdjust="spacing" textLength="121.2275" x="464.1421" y="940.8616">Rollback allocation</text></g><path d="M607.2275,924.3921 L607.2275,965.3921 L839.2275,965.3921 L839.2275,934.3921 L829.2275,924.3921 L607.2275,924.3921" fill="#FFFFFF" style="stroke:#000000;stroke-width:1;"/><path d="M829.2275,924.3921 L829.2275,934.3921 L839.2275,934.3921 L829.2275,924.3921" fill="#FFFFFF" style="stroke:#000000;stroke-width:1;"/><text fill="#333333" font-family="Verdana" font-size="13" lengthAdjust="spacing" textLength="179.0103" x="613.2275" y="942.4619">Restore Available = [3,3,2]</text><text fill="#333333" font-family="Verdana" font-size="13" lengthAdjust="spacing" textLength="211.4785" x="613.2275" y="958.2612">Restore Allocation[P1] = [0,1,0]</text><g class="message" data-participant-1="BA" data-participant-2="P1"><polygon fill="#000000" points="75.7002,1004.5894,65.7002,1008.5894,75.7002,1012.5894,71.7002,1008.5894" style="stroke:#000000;stroke-width:1;"/><line style="stroke:#000000;stroke-width:1;stroke-dasharray:2,2;" x1="69.7002" x2="451.1421" y1="1008.5894" y2="1008.5894"/><text fill="#333333" font-family="Verdana" font-size="13" lengthAdjust="spacing" textLength="102.7178" x="81.7002" y="988.0605">Request Denied</text><text fill="#333333" font-family="Verdana" font-size="13" lengthAdjust="spacing" textLength="179.3975" x="81.7002" y="1003.8599">(Would cause unsafe state)</text></g><g class="message" data-participant-1="P2" data-participant-2="BA"><polygon fill="#000000" points="435.1421,1034.3887,445.1421,1038.3887,435.1421,1042.3887,439.1421,1038.3887" style="stroke:#000000;stroke-width:1;"/><line style="stroke:#000000;stroke-width:1;" x1="184.1006" x2="441.1421" y1="1038.3887" y2="1038.3887"/><text fill="#333333" font-family="Verdana" font-size="13" lengthAdjust="spacing" textLength="112.5186" x="191.1006" y="1033.6592">Request [1, 0, 0]</text></g><g class="message" data-participant-1="BA" data-participant-2="BA"><line style="stroke:#000000;stroke-width:1;" x1="457.1421" x2="499.1421" y1="1072.5876" y2="1072.5876"/><line style="stroke:#000000;stroke-width:1;" x1="499.1421" x2="499.1421" y1="1072.5876" y2="1085.5876"/><line style="stroke:#000000;stroke-width:1;" x1="458.1421" x2="499.1421" y1="1085.5876" y2="1085.5876"/><polygon fill="#000000" points="468.1421,1081.5876,458.1421,1085.5876,468.1421,1089.5876,464.1421,1085.5876" style="stroke:#000000;stroke-width:1;"/><text fill="#333333" font-family="Verdana" font-size="13" lengthAdjust="spacing" textLength="197.0503" x="464.1421" y="1067.8582">Check and tentatively allocate</text></g><path d="M683.0503,1051.3887 L683.0503,1092.3887 L955.0503,1092.3887 L955.0503,1061.3887 L945.0503,1051.3887 L683.0503,1051.3887" fill="#FFFFFF" style="stroke:#000000;stroke-width:1;"/><path d="M945.0503,1051.3887 L945.0503,1061.3887 L955.0503,1061.3887 L945.0503,1051.3887" fill="#FFFFFF" style="stroke:#000000;stroke-width:1;"/><text fill="#333333" font-family="Verdana" font-size="13" lengthAdjust="spacing" textLength="251.5195" x="689.0503" y="1069.4585">Available = [3,3,2] - [1,0,0] = [2,3,2]</text><text fill="#333333" font-family="Verdana" font-size="13" lengthAdjust="spacing" textLength="157.0474" x="689.0503" y="1085.2578">Allocation[P2] = [3,0,0]</text><path d="M358.2012,1104.9873 L570.7222,1104.9873 L570.7222,1112.7866 L560.7222,1122.7866 L358.2012,1122.7866 L358.2012,1104.9873" fill="#FFFFFF" style="stroke:#000000;stroke-width:1;"/><rect fill="none" height="378.1904" style="stroke:#000000;stroke-width:1;" width="445.2798" x="358.2012" y="1104.9873"/><text fill="#333333" font-family="Verdana" font-size="13" font-weight="bold" lengthAdjust="spacing" textLength="167.521" x="373.2012" y="1119.0571">Safety Check - Success</text><g class="message" data-participant-1="BA" data-participant-2="BA"><line style="stroke:#000000;stroke-width:1;" x1="457.1421" x2="499.1421" y1="1144.5859" y2="1144.5859"/><line style="stroke:#000000;stroke-width:1;" x1="499.1421" x2="499.1421" y1="1144.5859" y2="1157.5859"/><line style="stroke:#000000;stroke-width:1;" x1="458.1421" x2="499.1421" y1="1157.5859" y2="1157.5859"/><polygon fill="#000000" points="468.1421,1153.5859,458.1421,1157.5859,468.1421,1161.5859,464.1421,1157.5859" style="stroke:#000000;stroke-width:1;"/><text fill="#333333" font-family="Verdana" font-size="13" lengthAdjust="spacing" textLength="99.8232" x="464.1421" y="1139.8564">Work = [2,3,2]</text></g><g class="message" data-participant-1="BA" data-participant-2="BA"><line style="stroke:#000000;stroke-width:1;" x1="457.1421" x2="499.1421" y1="1218.9839" y2="1218.9839"/><line style="stroke:#000000;stroke-width:1;" x1="499.1421" x2="499.1421" y1="1218.9839" y2="1231.9839"/><line style="stroke:#000000;stroke-width:1;" x1="458.1421" x2="499.1421" y1="1231.9839" y2="1231.9839"/><polygon fill="#000000" points="468.1421,1227.9839,458.1421,1231.9839,468.1421,1235.9839,464.1421,1231.9839" style="stroke:#000000;stroke-width:1;"/><text fill="#333333" font-family="Verdana" font-size="13" lengthAdjust="spacing" textLength="92.3774" x="464.1421" y="1182.6558">Can P2 finish?</text><text fill="#333333" font-family="Verdana" font-size="13" lengthAdjust="spacing" textLength="127.061" x="464.1421" y="1198.4551">Need[P2] = [0,2,2]</text><text fill="#333333" font-family="Verdana" font-size="13" lengthAdjust="spacing" textLength="161.8271" x="464.1421" y="1214.2544">[0,2,2] &lt;= [2,3,2]? Yes!</text></g><g class="message" data-participant-1="BA" data-participant-2="BA"><line style="stroke:#000000;stroke-width:1;" x1="457.1421" x2="499.1421" y1="1261.7832" y2="1261.7832"/><line style="stroke:#000000;stroke-width:1;" x1="499.1421" x2="499.1421" y1="1261.7832" y2="1274.7832"/><line style="stroke:#000000;stroke-width:1;" x1="458.1421" x2="499.1421" y1="1274.7832" y2="1274.7832"/><polygon fill="#000000" points="468.1421,1270.7832,458.1421,1274.7832,468.1421,1278.7832,464.1421,1274.7832" style="stroke:#000000;stroke-width:1;"/><text fill="#333333" font-family="Verdana" font-size="13" lengthAdjust="spacing" textLength="179.2451" x="464.1421" y="1257.0537">P2 finishes, Work = [5,3,2]</text></g><g class="message" data-participant-1="BA" data-participant-2="BA"><line style="stroke:#000000;stroke-width:1;" x1="457.1421" x2="499.1421" y1="1336.1812" y2="1336.1812"/><line style="stroke:#000000;stroke-width:1;" x1="499.1421" x2="499.1421" y1="1336.1812" y2="1349.1812"/><line style="stroke:#000000;stroke-width:1;" x1="458.1421" x2="499.1421" y1="1349.1812" y2="1349.1812"/><polygon fill="#000000" points="468.1421,1345.1812,458.1421,1349.1812,468.1421,1353.1812,464.1421,1349.1812" style="stroke:#000000;stroke-width:1;"/><text fill="#333333" font-family="Verdana" font-size="13" lengthAdjust="spacing" textLength="92.3774" x="464.1421" y="1299.853">Can P1 finish?</text><text fill="#333333" font-family="Verdana" font-size="13" lengthAdjust="spacing" textLength="127.061" x="464.1421" y="1315.6523">Need[P1] = [7,4,3]</text><text fill="#333333" font-family="Verdana" font-size="13" lengthAdjust="spacing" textLength="151.8105" x="464.1421" y="1331.4517">[7,4,3] &lt;= [5,3,2]? No</text></g><g class="message" data-participant-1="BA" data-participant-2="BA"><line style="stroke:#000000;stroke-width:1;" x1="457.1421" x2="499.1421" y1="1410.5791" y2="1410.5791"/><line style="stroke:#000000;stroke-width:1;" x1="499.1421" x2="499.1421" y1="1410.5791" y2="1423.5791"/><line style="stroke:#000000;stroke-width:1;" x1="458.1421" x2="499.1421" y1="1423.5791" y2="1423.5791"/><polygon fill="#000000" points="468.1421,1419.5791,458.1421,1423.5791,468.1421,1427.5791,464.1421,1423.5791" style="stroke:#000000;stroke-width:1;"/><text fill="#333333" font-family="Verdana" font-size="13" lengthAdjust="spacing" textLength="92.3774" x="464.1421" y="1374.251">Can P3 finish?</text><text fill="#333333" font-family="Verdana" font-size="13" lengthAdjust="spacing" textLength="127.061" x="464.1421" y="1390.0503">Need[P3] = [6,0,0]</text><text fill="#333333" font-family="Verdana" font-size="13" lengthAdjust="spacing" textLength="151.8105" x="464.1421" y="1405.8496">[6,0,0] &lt;= [5,3,2]? No</text></g><g class="message" data-participant-1="BA" data-participant-2="BA"><line style="stroke:#000000;stroke-width:1;" x1="457.1421" x2="499.1421" y1="1457.7781" y2="1457.7781"/><line style="stroke:#000000;stroke-width:1;" x1="499.1421" x2="499.1421" y1="1457.7781" y2="1470.7781"/><line style="stroke:#000000;stroke-width:1;" x1="458.1421" x2="499.1421" y1="1470.7781" y2="1470.7781"/><polygon fill="#000000" points="468.1421,1466.7781,458.1421,1470.7781,468.1421,1474.7781,464.1421,1470.7781" style="stroke:#000000;stroke-width:1;"/><text fill="#333333" font-family="Verdana" font-size="13" lengthAdjust="spacing" textLength="133.9419" x="464.1421" y="1453.0486">Continue checking...</text></g><path d="M619.9419,1436.5791 L619.9419,1477.5791 L782.9419,1477.5791 L782.9419,1446.5791 L772.9419,1436.5791 L619.9419,1436.5791" fill="#FFFFFF" style="stroke:#000000;stroke-width:1;"/><path d="M772.9419,1436.5791 L772.9419,1446.5791 L782.9419,1446.5791 L772.9419,1436.5791" fill="#FFFFFF" style="stroke:#000000;stroke-width:1;"/><text fill="#333333" font-family="Verdana" font-size="13" lengthAdjust="spacing" textLength="142.397" x="625.9419" y="1454.6489">Safe sequence found:</text><text fill="#333333" font-family="Verdana" font-size="13" lengthAdjust="spacing" textLength="88.188" x="625.9419" y="1470.4482">&lt;P2, P3, P1&gt;</text><g class="message" data-participant-1="BA" data-participant-2="P2"><polygon fill="#000000" points="195.1006,1507.9771,185.1006,1511.9771,195.1006,1515.9771,191.1006,1511.9771" style="stroke:#000000;stroke-width:1;"/><line style="stroke:#000000;stroke-width:1;stroke-dasharray:2,2;" x1="189.1006" x2="446.1421" y1="1511.9771" y2="1511.9771"/><text fill="#333333" font-family="Verdana" font-size="13" lengthAdjust="spacing" textLength="109.9478" x="201.1006" y="1507.2476">Request Granted</text></g><g class="message" data-participant-1="BA" data-participant-2="RP"><polygon fill="#000000" points="671.1924,1537.7764,681.1924,1541.7764,671.1924,1545.7764,675.1924,1541.7764" style="stroke:#000000;stroke-width:1;"/><line style="stroke:#000000;stroke-width:1;" x1="457.1421" x2="677.1924" y1="1541.7764" y2="1541.7764"/><text fill="#333333" font-family="Verdana" font-size="13" lengthAdjust="spacing" textLength="113.9785" x="464.1421" y="1537.0469">Update resources</text></g><!--SRC=[hLNDRjf04BxxAIRfeQrg8lyaZOf28a9ABqraaLHH5JXix05Mc5swNgFcENhjq_L9Ehl6nYP0MhL0WfcP_UQRcMzt3_GKvmYBb77XQAvJX4icPgXUPz1D9r9nFPr32wwG9QcCPz1TIfum4QFZP3Ck5aonEJooU3PHCXT9JwPImQl-H_EkHMJuBKTQ5J6bUSmNJEZBpKKVmtxGlzgow3CVqv_0PolwNVFUdwOlXLw5X_Qr9VmQiunDS5-ea7glFy4nozCjsPp5cWiSHah6b0mY_n2O-ThX3WftiCCT5kwmwNu-EHjssNKIfjaZon0E1vZ9NCK8aPIfTGyYnp7LWLoYCh-0NdTIinJAuAmD3xxdmeaBfoFhxouPJzbZYkG9NQ1FC79G9BPFTJnARk9xkL987BifgOXfBaNRsYEV00ZPTy4haAE0B07zN5l28ebdanYB_NVDlfCivqmaDQXJIpAiGHbgrK8BzQ64MlEDV6YT4rTeKysaYKnJmMKOYpLVCYg8Qd4efepiJP4s11-3MYqvwy0DOb9Kh_XagYdAM1uYVmGTmzW-jMfjC8QXw1Zc9sveVDGEt_LCFDcEoJOKnCLpWv59iBB1hvy_NYHJ3Qd9g8uMkg5vt4IxeraHlIMcJy0AhXiW5JQiKLeLTCUCCAGgXg9Pgl6iwdjNZ_R9HgskSnZa0cxP6FNJMizD3drE0ymefDh8ZcFEXqMvpZR53hw6Uo_LR4rmqzjZWdG3OovuDhqOYc9y9Sc0IDfn16K32vGBk95RaS9DfD0YlQV2JNDM3t-2v6yY-IkaOzSlaCp32qWtijal69lJzC3iX6RlPPgQGxqSFaslsNew6RHKk4q6Gr4vTuo-I4MvgAZrXhj2mJ4PYZVtCayJY5bEvrKk2hwaHdph9DZOYpId7RlMUsdNqga1-bz4xbKY3pP4NcWbj37Rz4W8jtbipl5zoWp-IfbUgKolgSo0LF0LiuDDh0e7CxTAUx8xxGxnLUVJwb0wgr3-nuROWqItB1SvGcmQoiNawEZ8nZIcT_jSwUsXE8leEeZeLeZyyxNkZHY3ceu-ARfHwIWlaWuYSdrP94PEghmJdTy0]--></g></svg>