<svg xmlns="http://www.w3.org/2000/svg" xmlns:xlink="http://www.w3.org/1999/xlink" contentStyleType="text/css" data-diagram-type="DESCRIPTION" height="1217px" preserveAspectRatio="none" style="width:1742px;height:1217px;background:#FEFEFE;" version="1.1" viewBox="0 0 1742 1217" width="1742px" zoomAndPan="magnify"><title>Buddy System Memory Allocation</title><defs/><g><rect fill="#FEFEFE" height="1217" style="stroke:none;stroke-width:1;" width="1742" x="0" y="0"/><g class="title" data-source-line="2"><text fill="#333333" font-family="Verdana" font-size="22" font-weight="bold" lengthAdjust="spacing" textLength="413.2627" x="660.2108" y="37.1182">Buddy System Memory Allocation</text></g><!--cluster init--><g class="cluster" data-entity="init" data-source-line="11" data-uid="ent0002" id="cluster_init"><rect fill="#C8E6C9" height="105.01" rx="2.5" ry="2.5" style="stroke:#000000;stroke-width:1;" width="229" x="408" y="59.7373"/><text fill="#333333" font-family="Verdana" font-size="14" font-weight="bold" lengthAdjust="spacing" textLength="213.001" x="415.9995" y="75.8125">Initial State: 1024KB Block</text></g><!--cluster step1--><g class="cluster" data-entity="step1" data-source-line="15" data-uid="ent0004" id="cluster_step1"><rect fill="#E3F2FD" height="173.02" rx="2.5" ry="2.5" style="stroke:#000000;stroke-width:1;" width="509" x="115" y="229.7473"/><text fill="#333333" font-family="Verdana" font-size="14" font-weight="bold" lengthAdjust="spacing" textLength="164.2949" x="287.3525" y="245.8225">After 300KB Request</text></g><!--cluster split1--><g class="cluster" data-entity="split1" data-source-line="16" data-uid="ent0005" id="cluster_split1"><rect fill="#E3F2FD" height="89.02" rx="2.5" ry="2.5" style="stroke:#000000;stroke-width:1;" width="235" x="147" y="281.7473"/><text fill="#333333" font-family="Verdana" font-size="14" font-weight="bold" lengthAdjust="spacing" textLength="101.7393" x="213.6304" y="297.8225">Split 1024KB</text></g><!--cluster step2--><g class="cluster" data-entity="step2" data-source-line="29" data-uid="ent0011" id="cluster_step2"><rect fill="#E3F2FD" height="369.03" rx="2.5" ry="2.5" style="stroke:#000000;stroke-width:1;" width="612" x="12" y="467.7673"/><text fill="#333333" font-family="Verdana" font-size="14" font-weight="bold" lengthAdjust="spacing" textLength="249.1973" x="193.4014" y="483.8425">After Additional 200KB Request</text></g><!--cluster layout2--><g class="cluster" data-entity="layout2" data-source-line="30" data-uid="ent0012" id="cluster_layout2"><rect fill="#E3F2FD" height="285.03" rx="2.5" ry="2.5" style="stroke:#000000;stroke-width:1;" width="540" x="44" y="519.7673"/><text fill="#333333" font-family="Verdana" font-size="14" font-weight="bold" lengthAdjust="spacing" textLength="121.1943" x="253.4028" y="535.8425">Memory Layout</text></g><!--cluster step3--><g class="cluster" data-entity="step3" data-source-line="37" data-uid="ent0016" id="cluster_step3"><rect fill="#E3F2FD" height="427.03" rx="2.5" ry="2.5" style="stroke:#000000;stroke-width:1;" width="477" x="664" y="663.7773"/><text fill="#333333" font-family="Verdana" font-size="14" font-weight="bold" lengthAdjust="spacing" textLength="164.2949" x="820.3525" y="679.8525">After 100KB Request</text></g><!--cluster layout3--><g class="cluster" data-entity="layout3" data-source-line="38" data-uid="ent0017" id="cluster_layout3"><rect fill="#E3F2FD" height="343.03" rx="2.5" ry="2.5" style="stroke:#000000;stroke-width:1;" width="405" x="696" y="715.7773"/><text fill="#333333" font-family="Verdana" font-size="14" font-weight="bold" lengthAdjust="spacing" textLength="96.1338" x="850.4331" y="731.8525">Final Layout</text></g><!--cluster step4--><g class="cluster" data-entity="step4" data-source-line="46" data-uid="ent0022" id="cluster_step4"><rect fill="#E3F2FD" height="309.61" rx="2.5" ry="2.5" style="stroke:#000000;stroke-width:1;" width="514" x="1181" y="901.7973"/><text fill="#333333" font-family="Verdana" font-size="14" font-weight="bold" lengthAdjust="spacing" textLength="245.7451" x="1315.1274" y="917.8725">After Deallocating 200KB Block</text></g><!--cluster coal--><g class="cluster" data-entity="coal" data-source-line="47" data-uid="ent0023" id="cluster_coal"><rect fill="#E3F2FD" height="105.01" rx="2.5" ry="2.5" style="stroke:#000000;stroke-width:1;" width="426" x="1221" y="961.7973"/><text fill="#333333" font-family="Verdana" font-size="14" font-weight="bold" lengthAdjust="spacing" textLength="151.6553" x="1358.1724" y="977.8725">Coalescing Buddies</text></g><!--entity b1024--><g class="entity" data-entity="b1024" data-source-line="12" data-uid="ent0003" id="entity_b1024"><rect fill="#E3F2FD" height="37.0146" rx="2.5" ry="2.5" style="stroke:#000000;stroke-width:1;" width="110.5215" x="456.74" y="103.7373"/><text fill="#333333" font-family="Verdana" font-size="14" lengthAdjust="spacing" textLength="90.5215" x="466.74" y="127.8125">1024KB Free</text></g><g class="entity" data-entity="GMN8" data-source-line="22" data-uid="ent0009" id="entity_GMN8"><path d="M401.22,299.6573 L401.22,372.8546 L580.7845,372.8546 L580.7845,309.6573 L570.7845,299.6573 L401.22,299.6573" fill="#FFF9C4" style="stroke:#000000;stroke-width:1;"/><path d="M570.7845,299.6573 L570.7845,309.6573 L580.7845,309.6573 L570.7845,299.6573" fill="#FFF9C4" style="stroke:#000000;stroke-width:1;"/><text fill="#333333" font-family="Verdana" font-size="13" lengthAdjust="spacing" textLength="155.3525" x="407.22" y="317.7271">Further split for 300KB:</text><text fill="#333333" font-family="Verdana" font-size="13" lengthAdjust="spacing" textLength="119.8438" x="407.22" y="333.5264">512 -&gt; 256 + 256</text><text fill="#333333" font-family="Verdana" font-size="13" lengthAdjust="spacing" textLength="98.6426" x="407.22" y="349.3258">Allocate 512KB</text><text fill="#333333" font-family="Verdana" font-size="13" lengthAdjust="spacing" textLength="158.5645" x="407.22" y="365.1251">(internal fragmentation)</text></g><!--entity b512_1--><g class="entity" data-entity="b512_1" data-source-line="17" data-uid="ent0006" id="entity_b512_1"><rect fill="#FFCDD2" height="37.0146" rx="2.5" ry="2.5" style="stroke:#000000;stroke-width:1;" width="65.999" x="163" y="317.7473"/><text fill="#333333" font-family="Verdana" font-size="14" lengthAdjust="spacing" textLength="45.999" x="173" y="341.8225">512KB</text></g><!--entity b512_2--><g class="entity" data-entity="b512_2" data-source-line="18" data-uid="ent0007" id="entity_b512_2"><rect fill="#E3F2FD" height="37.0146" rx="2.5" ry="2.5" style="stroke:#000000;stroke-width:1;" width="101.6211" x="264.19" y="317.7473"/><text fill="#333333" font-family="Verdana" font-size="14" lengthAdjust="spacing" textLength="81.6211" x="274.19" y="341.8225">512KB Free</text></g><!--entity used1--><g class="entity" data-entity="used1" data-source-line="31" data-uid="ent0013" id="entity_used1"><rect fill="#FFCDD2" height="37.0146" rx="2.5" ry="2.5" style="stroke:#000000;stroke-width:1;" width="236.7266" x="59.64" y="555.7673"/><text fill="#333333" font-family="Verdana" font-size="14" lengthAdjust="spacing" textLength="216.7266" x="69.64" y="579.8425">512KB Allocated (300KB used)</text></g><!--entity used2--><g class="entity" data-entity="used2" data-source-line="32" data-uid="ent0014" id="entity_used2"><rect fill="#FFCDD2" height="37.0146" rx="2.5" ry="2.5" style="stroke:#000000;stroke-width:1;" width="236.7266" x="331.64" y="555.7673"/><text fill="#333333" font-family="Verdana" font-size="14" lengthAdjust="spacing" textLength="216.7266" x="341.64" y="579.8425">256KB Allocated (200KB used)</text></g><!--entity free2--><g class="entity" data-entity="free2" data-source-line="33" data-uid="ent0015" id="entity_free2"><rect fill="#C8E6C9" height="37.0146" rx="2.5" ry="2.5" style="stroke:#000000;stroke-width:1;" width="101.6211" x="127.19" y="751.7773"/><text fill="#333333" font-family="Verdana" font-size="14" lengthAdjust="spacing" textLength="81.6211" x="137.19" y="775.8525">256KB Free</text></g><!--entity a1--><g class="entity" data-entity="a1" data-source-line="39" data-uid="ent0018" id="entity_a1"><rect fill="#FFCDD2" height="37.0146" rx="2.5" ry="2.5" style="stroke:#000000;stroke-width:1;" width="134.9531" x="762.52" y="751.7773"/><text fill="#333333" font-family="Verdana" font-size="14" lengthAdjust="spacing" textLength="114.9531" x="772.52" y="775.8525">512KB Allocated</text></g><!--entity a2--><g class="entity" data-entity="a2" data-source-line="40" data-uid="ent0019" id="entity_a2"><rect fill="#FFCDD2" height="37.0146" rx="2.5" ry="2.5" style="stroke:#000000;stroke-width:1;" width="134.9531" x="932.52" y="751.7773"/><text fill="#333333" font-family="Verdana" font-size="14" lengthAdjust="spacing" textLength="114.9531" x="942.52" y="775.8525">256KB Allocated</text></g><!--entity a3--><g class="entity" data-entity="a3" data-source-line="41" data-uid="ent0020" id="entity_a3"><rect fill="#FFCDD2" height="37.0146" rx="2.5" ry="2.5" style="stroke:#000000;stroke-width:1;" width="236.7266" x="711.64" y="1005.7973"/><text fill="#333333" font-family="Verdana" font-size="14" lengthAdjust="spacing" textLength="216.7266" x="721.64" y="1029.8725">128KB Allocated (100KB used)</text></g><!--entity f3--><g class="entity" data-entity="f3" data-source-line="42" data-uid="ent0021" id="entity_f3"><rect fill="#C8E6C9" height="37.0146" rx="2.5" ry="2.5" style="stroke:#000000;stroke-width:1;" width="101.6211" x="983.19" y="1005.7973"/><text fill="#333333" font-family="Verdana" font-size="14" lengthAdjust="spacing" textLength="81.6211" x="993.19" y="1029.8725">128KB Free</text></g><g class="entity" data-entity="GMN26" data-source-line="53" data-uid="ent0027" id="entity_GMN26"><path d="M1481.31,1145.8073 L1481.31,1187.4059 L1662.6962,1187.4059 L1662.6962,1155.8073 L1652.6962,1145.8073 L1481.31,1145.8073" fill="#FFF9C4" style="stroke:#000000;stroke-width:1;"/><path d="M1652.6962,1145.8073 L1652.6962,1155.8073 L1662.6962,1155.8073 L1652.6962,1145.8073" fill="#FFF9C4" style="stroke:#000000;stroke-width:1;"/><text fill="#333333" font-family="Verdana" font-size="13" lengthAdjust="spacing" textLength="160.3862" x="1487.31" y="1163.8771">256KB + 256KB buddies</text><text fill="#333333" font-family="Verdana" font-size="13" lengthAdjust="spacing" textLength="139.8325" x="1487.31" y="1179.6764">coalesced into 512KB</text></g><!--entity c1--><g class="entity" data-entity="c1" data-source-line="48" data-uid="ent0024" id="entity_c1"><rect fill="#FFCDD2" height="37.0146" rx="2.5" ry="2.5" style="stroke:#000000;stroke-width:1;" width="134.9531" x="1244.52" y="1005.7973"/><text fill="#333333" font-family="Verdana" font-size="14" lengthAdjust="spacing" textLength="114.9531" x="1254.52" y="1029.8725">512KB Allocated</text></g><!--entity c2--><g class="entity" data-entity="c2" data-source-line="49" data-uid="ent0025" id="entity_c2"><rect fill="#C8E6C9" height="37.0146" rx="2.5" ry="2.5" style="stroke:#000000;stroke-width:1;" width="189.7705" x="1414.11" y="1005.7973"/><text fill="#333333" font-family="Verdana" font-size="14" lengthAdjust="spacing" textLength="169.7705" x="1424.11" y="1029.8725">512KB Free (Coalesced)</text></g><!--link b512_1 to GMN8--><g class="link" data-entity-1="b512_1" data-entity-2="GMN8" data-source-line="22" data-uid="lnk10" id="link_b512_1_GMN8"><path d="M197.8,317.3273 C202.19,283.9073 216.87,216.1673 264.5,197.2473 C305.81,180.8473 323.19,180.8473 364.5,197.2473 C412.57,216.3373 449.61,265.0773 470.85,299.4273" fill="none" id="b512_1-GMN8" style="stroke:#000000;stroke-width:1;stroke-dasharray:7,7;"/></g><!--link coal to GMN26--><g class="link" data-entity-1="coal" data-entity-2="GMN26" data-source-line="53" data-uid="lnk28" id="link_coal_GMN26"><path d="M1633.0353,1067.1975 C1633.0059,1067.3327 1632.9763,1067.4681 1632.9466,1067.6035 C1631.9961,1071.9382 1630.9028,1076.3915 1629.6469,1080.852 C1627.135,1089.7729 1623.9725,1098.7223 1620,1106.8073 C1613.02,1120.9973 1602.04,1134.8073 1592.34,1145.4673" fill="none" id="coal-GMN26" style="stroke:#000000;stroke-width:1;stroke-dasharray:7,7;"/></g><!--link init to step1--><g class="link" data-entity-1="init" data-entity-2="step1" data-source-line="58" data-uid="lnk29" id="link_init_step1"><path d="M616,164.9272 C616,165.2538 616,165.5818 616,165.911 C616,168.5448 616,171.2609 616,174.0476 C616,179.6211 616,185.477 616,191.521 C616,203.609 616,210.4498 616,223.2898" fill="none" id="init-to-step1" style="stroke:#000000;stroke-width:1;"/><polygon fill="#000000" points="616,229.2898,620,220.2898,616,224.2898,612,220.2898,616,229.2898" style="stroke:#000000;stroke-width:1;"/><text fill="#333333" font-family="Verdana" font-size="13" lengthAdjust="spacing" textLength="100.0327" x="617" y="202.8171">Request 300KB</text></g><!--link step1 to step2--><g class="link" data-entity-1="step1" data-entity-2="step2" data-source-line="59" data-uid="lnk30" id="link_step1_step2"><path d="M616,402.9073 C616,403.3155 616,403.7248 616,404.1352 C616,404.9559 616,405.7806 616,406.6093 C616,408.2666 616,409.9394 616,411.6261 C616,425.1193 616,439.4986 616,453.9048 C616,457.5064 616,461.1096 616,464.7011 C616,465.599 616,460.4962 616,461.3924" fill="none" id="step1-to-step2" style="stroke:#000000;stroke-width:1;"/><polygon fill="#000000" points="616,467.3924,620,458.3924,616,462.3924,612,458.3924,616,467.3924" style="stroke:#000000;stroke-width:1;"/><text fill="#333333" font-family="Verdana" font-size="13" lengthAdjust="spacing" textLength="100.0327" x="617" y="440.8371">Request 200KB</text></g><!--link step2 to step3--><g class="link" data-entity-1="step2" data-entity-2="step3" data-source-line="60" data-uid="lnk31" id="link_step2_step3"><path d="M624.3668,575.3096 C625.3533,575.3174 626.4219,575.3266 627.57,575.3375 C629.8663,575.3593 632.4803,575.388 635.3905,575.4257 C647.0313,575.5767 663.4107,575.8723 683.1427,576.4523 C722.6066,577.6123 775.4806,579.9098 830.6763,584.4623 C941.0675,593.5673 1060.745,611.6923 1101,647.7773 C1106.1163,652.3648 1107.2293,652.6058 1110.9096,658.3705" fill="none" id="step2-to-step3" style="stroke:#000000;stroke-width:1;"/><polygon fill="#000000" points="1114.1383,663.4278,1112.6668,653.6895,1111.4477,659.2134,1105.9238,657.9944,1114.1383,663.4278" style="stroke:#000000;stroke-width:1;"/><text fill="#333333" font-family="Verdana" font-size="13" lengthAdjust="spacing" textLength="100.0327" x="1090.76" y="636.8471">Request 100KB</text></g><!--link step3 to step4--><g class="link" data-entity-1="step3" data-entity-2="step4" data-source-line="61" data-uid="lnk32" id="link_step3_step4"><path d="M1141.4972,773.1532 C1141.7023,773.1983 1141.9109,773.2442 1142.1231,773.2908 C1142.5474,773.384 1142.9858,773.4804 1143.4381,773.5798 C1144.3428,773.7786 1145.3032,773.9897 1146.3181,774.2128 C1154.4379,775.9973 1166.0488,778.5491 1180.5339,781.7321 C1209.5041,788.0982 1249.9706,796.9892 1296.9963,807.3161 C1391.0475,827.9698 1511.335,854.3673 1618.36,877.7973 C1634.64,881.3573 1643.13,874.0873 1655,885.7973 C1657.7481,888.5079 1660.2792,891.4055 1662.6096,894.4568 C1663.7748,895.9824 1664.8898,897.5465 1665.9566,899.1448 C1666.4901,899.9439 1663.8326,895.663 1664.3422,896.4788" fill="none" id="step3-to-step4" style="stroke:#000000;stroke-width:1;"/><polygon fill="#000000" points="1667.5211,901.5674,1666.1452,891.8152,1664.872,897.3269,1659.3603,896.0537,1667.5211,901.5674" style="stroke:#000000;stroke-width:1;"/><text fill="#333333" font-family="Verdana" font-size="13" lengthAdjust="spacing" textLength="115.3242" x="1619.36" y="874.8671">Deallocate 200KB</text></g><!--SRC=[bPHTQzim58Rl_IlEsfkKKeZbjBIv62HE36FRpV83YcBBgOWiPRBC2AF_VVgowgzbcGEsa9xpwkJLqVcataX5uCGmvP6YYX5ODqLnXjsvLgI2xwGIyWmhnaIE5HKyYkeZvISiSGLxd1yFKZIyI0KJ4cwphVbr24boXVc1aVKGtIOPoZOTb0irfh8iUqaNKuAPuCf3YNq6KfVM2rBYXgan4WLvkFd2gQAOmKvXHPOGpz7YwnhMseVZ3U0Qg5w7s_Hv-vI-mEy8zDE9zdWc2R7qtan4xxqTLgKY4fBvN8C_oC-6rCgoslXJF9RSdPZUqGaxpaoqu01-Z96dzdhu6Xihqyq6_PNjf6e27FXkt_PbF0L93syAHEb5WrZMI5r7qcK4fV3_QXa0ZSF3Pq2FJt1ltc715nO1cqIOdb6klU7Q_bBYGqMuiiLtPm722vlEf9sheg06rQ5eqbaqTjON-JTy5eq3cHsY2zw6p0kOkIDiQbBSsMWpkkYuTg2lW2OKKAlWJs1I8vnQgGUehKT_U5F-n9Ec96DJCcey77cINEM93S3_uu6BG9SYOlJSToqUk8QJVuT_69PSuTQ6OD_v-C7NqqS7CCOjniQb0ZDIvoR2j59AQaldUlfwx_8hRopC_7Qj1_cm2FetU2-K4fMvmYQVeEqEuzv_zoxji9gtM-YcfqJdgdPleks73uNunVL5TorisTQPQmUHc-qogCEWmA0UatIOE319Zrbe9fmLyL9_0000]--></g></svg>