<svg xmlns="http://www.w3.org/2000/svg" xmlns:xlink="http://www.w3.org/1999/xlink" contentStyleType="text/css" data-diagram-type="DESCRIPTION" height="606px" preserveAspectRatio="none" style="width:2376px;height:606px;background:#FEFEFE;" version="1.1" viewBox="0 0 2376 606" width="2376px" zoomAndPan="magnify"><title>Hierarchical Resource Allocation</title><defs/><g><rect fill="#FEFEFE" height="606" style="stroke:none;stroke-width:1;" width="2376" x="0" y="0"/><g class="title" data-source-line="2"><text fill="#333333" font-family="Verdana" font-size="22" font-weight="bold" lengthAdjust="spacing" textLength="400.7695" x="983.5726" y="37.1182">Hierarchical Resource Allocation</text></g><!--cluster System Level (1000 Resources)--><g class="cluster" data-entity="System Level .1000 Resources." data-source-line="10" data-uid="ent0002" id="cluster_System Level .1000 Resources."><rect fill="#E3F2FD" height="541.15" rx="2.5" ry="2.5" style="stroke:#000000;stroke-width:1;" width="1773" x="12" y="59.7373"/><text fill="#333333" font-family="Verdana" font-size="14" font-weight="bold" lengthAdjust="spacing" textLength="249.5732" x="773.7134" y="75.8125">System Level (1000 Resources)</text></g><!--cluster Department A (400 Resources)--><g class="cluster" data-entity="Department A .400 Resources." data-source-line="13" data-uid="ent0004" id="cluster_Department A .400 Resources."><rect fill="#E8F5E9" height="381.14" rx="2.5" ry="2.5" style="stroke:#000000;stroke-width:1;" width="829" x="304" y="195.7473"/><text fill="#333333" font-family="Verdana" font-size="14" font-weight="bold" lengthAdjust="spacing" textLength="245.0957" x="595.9521" y="211.8225">Department A (400 Resources)</text></g><!--cluster Team 1 (200 Resources)--><g class="cluster" data-entity="Team 1 .200 Resources." data-source-line="16" data-uid="ent0006" id="cluster_Team 1 .200 Resources."><rect fill="#FFFFFF" height="203.03" rx="2.5" ry="2.5" style="stroke:#000000;stroke-width:1;" width="434" x="328" y="349.8573"/><text fill="#333333" font-family="Verdana" font-size="14" font-weight="bold" lengthAdjust="spacing" textLength="193.3271" x="448.3364" y="365.9325">Team 1 (200 Resources)</text></g><!--cluster Team 2 (200 Resources)--><g class="cluster" data-entity="Team 2 .200 Resources." data-source-line="23" data-uid="ent0011" id="cluster_Team 2 .200 Resources."><rect fill="#FFFFFF" height="203.03" rx="2.5" ry="2.5" style="stroke:#000000;stroke-width:1;" width="323" x="786" y="349.8573"/><text fill="#333333" font-family="Verdana" font-size="14" font-weight="bold" lengthAdjust="spacing" textLength="193.3271" x="850.8364" y="365.9325">Team 2 (200 Resources)</text></g><!--cluster Department B (350 Resources)--><g class="cluster" data-entity="Department B .350 Resources." data-source-line="31" data-uid="ent0016" id="cluster_Department B .350 Resources."><rect fill="#FFEBEE" height="381.14" rx="2.5" ry="2.5" style="stroke:#000000;stroke-width:1;" width="604" x="1157" y="195.7473"/><text fill="#333333" font-family="Verdana" font-size="14" font-weight="bold" lengthAdjust="spacing" textLength="244.8906" x="1336.5547" y="211.8225">Department B (350 Resources)</text></g><!--cluster Team 3 (200 Resources)--><g class="cluster" data-entity="Team 3 .200 Resources." data-source-line="34" data-uid="ent0018" id="cluster_Team 3 .200 Resources."><rect fill="#FFFFFF" height="203.03" rx="2.5" ry="2.5" style="stroke:#000000;stroke-width:1;" width="323" x="1181" y="349.8573"/><text fill="#333333" font-family="Verdana" font-size="14" font-weight="bold" lengthAdjust="spacing" textLength="193.3271" x="1245.8364" y="365.9325">Team 3 (200 Resources)</text></g><!--cluster Team 4 (150 Resources)--><g class="cluster" data-entity="Team 4 .150 Resources." data-source-line="41" data-uid="ent0023" id="cluster_Team 4 .150 Resources."><rect fill="#FFFFFF" height="203.03" rx="2.5" ry="2.5" style="stroke:#000000;stroke-width:1;" width="209" x="1528" y="349.8573"/><text fill="#333333" font-family="Verdana" font-size="14" font-weight="bold" lengthAdjust="spacing" textLength="193.3271" x="1535.8364" y="365.9325">Team 4 (150 Resources)</text></g><!--cluster Unallocated (250 Resources)--><g class="cluster" data-entity="Unallocated .250 Resources." data-source-line="47" data-uid="ent0026" id="cluster_Unallocated .250 Resources."><rect fill="#FFF9C4" height="89.02" rx="2.5" ry="2.5" style="stroke:#000000;stroke-width:1;" width="244" x="36" y="195.7473"/><text fill="#333333" font-family="Verdana" font-size="14" font-weight="bold" lengthAdjust="spacing" textLength="228.5117" x="43.7441" y="211.8225">Unallocated (250 Resources)</text></g><!--entity GRM--><g class="entity" data-entity="GRM" data-source-line="11" data-uid="ent0003" id="entity_GRM"><rect fill="#FFFFFF" height="37.0146" rx="2.5" ry="2.5" style="stroke:#000000;stroke-width:1;" width="198.8555" x="934.57" y="95.7373"/><text fill="#333333" font-family="Verdana" font-size="14" lengthAdjust="spacing" textLength="178.8555" x="944.57" y="119.8125">Global Resource Manager</text></g><!--entity DAM--><g class="entity" data-entity="DAM" data-source-line="14" data-uid="ent0005" id="entity_DAM"><rect fill="#FFFFFF" height="37.0146" rx="2.5" ry="2.5" style="stroke:#000000;stroke-width:1;" width="133.292" x="804.35" y="231.7473"/><text fill="#333333" font-family="Verdana" font-size="14" lengthAdjust="spacing" textLength="113.292" x="814.35" y="255.8225">Dept A Manager</text></g><!--entity T1M--><g class="entity" data-entity="T1M" data-source-line="17" data-uid="ent0007" id="entity_T1M"><rect fill="#FFFFFF" height="37.0146" rx="2.5" ry="2.5" style="stroke:#000000;stroke-width:1;" width="138.248" x="524.88" y="385.8573"/><text fill="#333333" font-family="Verdana" font-size="14" lengthAdjust="spacing" textLength="118.248" x="534.88" y="409.9325">Team 1 Manager</text></g><!--entity UA1--><g class="entity" data-entity="UA1" data-source-line="18" data-uid="ent0008" id="entity_UA1"><rect fill="#FFCDD2" height="37.0146" rx="2.5" ry="2.5" style="stroke:#000000;stroke-width:1;" width="110.6855" x="343.66" y="499.8773"/><text fill="#333333" font-family="Verdana" font-size="14" lengthAdjust="spacing" textLength="90.6855" x="353.66" y="523.9525">User A1 (50)</text></g><!--entity UA2--><g class="entity" data-entity="UA2" data-source-line="19" data-uid="ent0009" id="entity_UA2"><rect fill="#FFCDD2" height="37.0146" rx="2.5" ry="2.5" style="stroke:#000000;stroke-width:1;" width="110.6855" x="489.66" y="499.8773"/><text fill="#333333" font-family="Verdana" font-size="14" lengthAdjust="spacing" textLength="90.6855" x="499.66" y="523.9525">User A2 (75)</text></g><!--entity UA3--><g class="entity" data-entity="UA3" data-source-line="20" data-uid="ent0010" id="entity_UA3"><rect fill="#FFCDD2" height="37.0146" rx="2.5" ry="2.5" style="stroke:#000000;stroke-width:1;" width="110.6855" x="635.66" y="499.8773"/><text fill="#333333" font-family="Verdana" font-size="14" lengthAdjust="spacing" textLength="90.6855" x="645.66" y="523.9525">User A3 (75)</text></g><!--entity T2M--><g class="entity" data-entity="T2M" data-source-line="24" data-uid="ent0012" id="entity_T2M"><rect fill="#FFFFFF" height="37.0146" rx="2.5" ry="2.5" style="stroke:#000000;stroke-width:1;" width="138.248" x="801.88" y="385.8573"/><text fill="#333333" font-family="Verdana" font-size="14" lengthAdjust="spacing" textLength="118.248" x="811.88" y="409.9325">Team 2 Manager</text></g><!--entity UB1--><g class="entity" data-entity="UB1" data-source-line="25" data-uid="ent0013" id="entity_UB1"><rect fill="#FFCDD2" height="37.0146" rx="2.5" ry="2.5" style="stroke:#000000;stroke-width:1;" width="119.6133" x="804.19" y="499.8773"/><text fill="#333333" font-family="Verdana" font-size="14" lengthAdjust="spacing" textLength="99.6133" x="814.19" y="523.9525">User B1 (100)</text></g><!--entity UB2--><g class="entity" data-entity="UB2" data-source-line="26" data-uid="ent0014" id="entity_UB2"><rect fill="#FFCDD2" height="37.0146" rx="2.5" ry="2.5" style="stroke:#000000;stroke-width:1;" width="110.7129" x="958.64" y="499.8773"/><text fill="#333333" font-family="Verdana" font-size="14" lengthAdjust="spacing" textLength="90.7129" x="968.64" y="523.9525">User B2 (50)</text></g><!--entity T2A--><g class="entity" data-entity="T2A" data-source-line="27" data-uid="ent0015" id="entity_T2A"><rect fill="#FFF9C4" height="37.0146" rx="2.5" ry="2.5" style="stroke:#000000;stroke-width:1;" width="118.6973" x="974.65" y="385.8573"/><text fill="#333333" font-family="Verdana" font-size="14" lengthAdjust="spacing" textLength="98.6973" x="984.65" y="409.9325">Available (50)</text></g><!--entity DBM--><g class="entity" data-entity="DBM" data-source-line="32" data-uid="ent0017" id="entity_DBM"><rect fill="#FFFFFF" height="37.0146" rx="2.5" ry="2.5" style="stroke:#000000;stroke-width:1;" width="133.3193" x="1199.34" y="231.7473"/><text fill="#333333" font-family="Verdana" font-size="14" lengthAdjust="spacing" textLength="113.3193" x="1209.34" y="255.8225">Dept B Manager</text></g><!--entity T3M--><g class="entity" data-entity="T3M" data-source-line="35" data-uid="ent0019" id="entity_T3M"><rect fill="#FFFFFF" height="37.0146" rx="2.5" ry="2.5" style="stroke:#000000;stroke-width:1;" width="138.248" x="1196.88" y="385.8573"/><text fill="#333333" font-family="Verdana" font-size="14" lengthAdjust="spacing" textLength="118.248" x="1206.88" y="409.9325">Team 3 Manager</text></g><!--entity UC1--><g class="entity" data-entity="UC1" data-source-line="36" data-uid="ent0020" id="entity_UC1"><rect fill="#FFCDD2" height="37.0146" rx="2.5" ry="2.5" style="stroke:#000000;stroke-width:1;" width="110.8906" x="1201.55" y="499.8773"/><text fill="#333333" font-family="Verdana" font-size="14" lengthAdjust="spacing" textLength="90.8906" x="1211.55" y="523.9525">User C1 (80)</text></g><!--entity UC2--><g class="entity" data-entity="UC2" data-source-line="37" data-uid="ent0021" id="entity_UC2"><rect fill="#FFCDD2" height="37.0146" rx="2.5" ry="2.5" style="stroke:#000000;stroke-width:1;" width="110.8906" x="1347.55" y="499.8773"/><text fill="#333333" font-family="Verdana" font-size="14" lengthAdjust="spacing" textLength="90.8906" x="1357.55" y="523.9525">User C2 (70)</text></g><!--entity T3A--><g class="entity" data-entity="T3A" data-source-line="38" data-uid="ent0022" id="entity_T3A"><rect fill="#FFF9C4" height="37.0146" rx="2.5" ry="2.5" style="stroke:#000000;stroke-width:1;" width="118.6973" x="1369.65" y="385.8573"/><text fill="#333333" font-family="Verdana" font-size="14" lengthAdjust="spacing" textLength="98.6973" x="1379.65" y="409.9325">Available (50)</text></g><!--entity T4M--><g class="entity" data-entity="T4M" data-source-line="42" data-uid="ent0024" id="entity_T4M"><rect fill="#FFFFFF" height="37.0146" rx="2.5" ry="2.5" style="stroke:#000000;stroke-width:1;" width="138.248" x="1543.88" y="385.8573"/><text fill="#333333" font-family="Verdana" font-size="14" lengthAdjust="spacing" textLength="118.248" x="1553.88" y="409.9325">Team 4 Manager</text></g><!--entity UD1--><g class="entity" data-entity="UD1" data-source-line="43" data-uid="ent0025" id="entity_UD1"><rect fill="#FFCDD2" height="37.0146" rx="2.5" ry="2.5" style="stroke:#000000;stroke-width:1;" width="120.8027" x="1543.6" y="499.8773"/><text fill="#333333" font-family="Verdana" font-size="14" lengthAdjust="spacing" textLength="100.8027" x="1553.6" y="523.9525">User D1 (150)</text></g><!--entity RP--><g class="entity" data-entity="RP" data-source-line="48" data-uid="ent0027" id="entity_RP"><rect fill="#FFFFFF" height="37.0146" rx="2.5" ry="2.5" style="stroke:#000000;stroke-width:1;" width="110.5078" x="153.75" y="231.7473"/><text fill="#333333" font-family="Verdana" font-size="14" lengthAdjust="spacing" textLength="90.5078" x="163.75" y="255.8225">Reserve Pool</text></g><g class="entity" data-entity="GMN43" data-source-line="75" data-uid="ent0044" id="entity_GMN43"><path d="M1800.95,213.6573 L1800.95,286.8546 L2077.0496,286.8546 L2077.0496,223.6573 L2067.0496,213.6573 L1800.95,213.6573" fill="#FFFFFF" style="stroke:#000000;stroke-width:1;"/><path d="M2067.0496,213.6573 L2067.0496,223.6573 L2077.0496,223.6573 L2067.0496,213.6573" fill="#FFFFFF" style="stroke:#000000;stroke-width:1;"/><text fill="#333333" font-family="Verdana" font-size="13" lengthAdjust="spacing" textLength="133.9419" x="1806.95" y="231.7271">Enforcement Levels:</text><text fill="#333333" font-family="Verdana" font-size="13" lengthAdjust="spacing" textLength="234.4063" x="1806.95" y="247.5264">1. Hard Limit: Cannot exceed quota</text><text fill="#333333" font-family="Verdana" font-size="13" lengthAdjust="spacing" textLength="255.0996" x="1806.95" y="263.3258">2. Soft Limit: Can borrow from reserve</text><text fill="#333333" font-family="Verdana" font-size="13" lengthAdjust="spacing" textLength="253.189" x="1806.95" y="279.1251">3. Elastic: Can scale based on demand</text></g><g class="entity" data-entity="GMN46" data-source-line="82" data-uid="ent0047" id="entity_GMN46"><path d="M2112.09,213.6573 L2112.09,286.8546 L2369.9147,286.8546 L2369.9147,223.6573 L2359.9147,213.6573 L2112.09,213.6573" fill="#FFFFFF" style="stroke:#000000;stroke-width:1;"/><path d="M2359.9147,213.6573 L2359.9147,223.6573 L2369.9147,223.6573 L2359.9147,213.6573" fill="#FFFFFF" style="stroke:#000000;stroke-width:1;"/><text fill="#333333" font-family="Verdana" font-size="13" lengthAdjust="spacing" textLength="145.2217" x="2118.09" y="231.7271">Reserve pool handles:</text><text fill="#333333" font-family="Verdana" font-size="13" lengthAdjust="spacing" textLength="105.6567" x="2118.09" y="247.5264">- Burst requests</text><text fill="#333333" font-family="Verdana" font-size="13" lengthAdjust="spacing" textLength="156.73" x="2118.09" y="263.3258">- Emergency allocations</text><text fill="#333333" font-family="Verdana" font-size="13" lengthAdjust="spacing" textLength="236.8247" x="2118.09" y="279.1251">- Rebalancing between departments</text></g><!--link GRM to DAM--><g class="link" data-entity-1="GRM" data-entity-2="DAM" data-source-line="52" data-uid="lnk28" id="link_GRM_DAM"><path d="M1012.35,133.0373 C981.18,158.6773 928.5951,201.9074 897.3651,227.5774" fill="none" id="GRM-to-DAM" style="stroke:#000000;stroke-width:1;"/><polygon fill="#000000" points="892.73,231.3873,902.2227,228.7625,896.5926,228.2124,897.1428,222.5823,892.73,231.3873" style="stroke:#000000;stroke-width:1;"/><text fill="#333333" font-family="Verdana" font-size="13" lengthAdjust="spacing" textLength="74.5469" x="972.89" y="176.8171">Quota: 400</text></g><!--link GRM to DBM--><g class="link" data-entity-1="GRM" data-entity-2="DBM" data-source-line="53" data-uid="lnk29" id="link_GRM_DBM"><path d="M1064.81,133.0373 C1109.18,158.6773 1185.4245,202.7162 1229.8645,228.3862" fill="none" id="GRM-to-DBM" style="stroke:#000000;stroke-width:1;"/><polygon fill="#000000" points="1235.06,231.3873,1229.2675,223.422,1230.7304,228.8864,1225.266,230.3493,1235.06,231.3873" style="stroke:#000000;stroke-width:1;"/><text fill="#333333" font-family="Verdana" font-size="13" lengthAdjust="spacing" textLength="74.5469" x="1144.04" y="176.8171">Quota: 350</text></g><!--link GRM to RP--><g class="link" data-entity-1="GRM" data-entity-2="RP" data-source-line="54" data-uid="lnk30" id="link_GRM_RP"><path d="M934.19,119.3373 C762.26,127.3573 417.74,147.9273 304,187.7473 C276.18,197.4873 253.0595,213.2197 234.7795,227.6497" fill="none" id="GRM-to-RP" style="stroke:#000000;stroke-width:1;"/><polygon fill="#000000" points="230.07,231.3673,239.6127,228.9305,233.9946,228.2693,234.6558,222.6512,230.07,231.3673" style="stroke:#000000;stroke-width:1;"/><text fill="#333333" font-family="Verdana" font-size="13" lengthAdjust="spacing" textLength="87.5532" x="407.2" y="176.8171">Reserve: 250</text></g><!--link DAM to T1M--><g class="link" data-entity-1="DAM" data-entity-2="T1M" data-source-line="56" data-uid="lnk31" id="link_DAM_T1M"><path d="M838.41,269.1573 C785.07,298.4473 684.9891,353.3991 631.7291,382.6491" fill="none" id="DAM-to-T1M" style="stroke:#000000;stroke-width:1;"/><polygon fill="#000000" points="626.47,385.5373,636.2841,384.711,630.8526,383.1304,632.4331,377.6989,626.47,385.5373" style="stroke:#000000;stroke-width:1;"/><text fill="#333333" font-family="Verdana" font-size="13" lengthAdjust="spacing" textLength="74.5469" x="750.08" y="330.9271">Quota: 200</text></g><!--link DAM to T2M--><g class="link" data-entity-1="DAM" data-entity-2="T2M" data-source-line="57" data-uid="lnk32" id="link_DAM_T2M"><path d="M871,269.0073 C871,298.3173 871,350.4973 871,379.7273" fill="none" id="DAM-to-T2M" style="stroke:#000000;stroke-width:1;"/><polygon fill="#000000" points="871,385.7273,875,376.7273,871,380.7273,867,376.7273,871,385.7273" style="stroke:#000000;stroke-width:1;"/><text fill="#333333" font-family="Verdana" font-size="13" lengthAdjust="spacing" textLength="74.5469" x="872" y="330.9271">Quota: 200</text></g><!--link DBM to T3M--><g class="link" data-entity-1="DBM" data-entity-2="T3M" data-source-line="59" data-uid="lnk33" id="link_DBM_T3M"><path d="M1266,269.0073 C1266,298.3173 1266,350.4973 1266,379.7273" fill="none" id="DBM-to-T3M" style="stroke:#000000;stroke-width:1;"/><polygon fill="#000000" points="1266,385.7273,1270,376.7273,1266,380.7273,1262,376.7273,1266,385.7273" style="stroke:#000000;stroke-width:1;"/><text fill="#333333" font-family="Verdana" font-size="13" lengthAdjust="spacing" textLength="74.5469" x="1267" y="330.9271">Quota: 200</text></g><!--link DBM to T4M--><g class="link" data-entity-1="DBM" data-entity-2="T4M" data-source-line="60" data-uid="lnk34" id="link_DBM_T4M"><path d="M1319.89,269.1673 C1368.76,286.0273 1442.36,312.9373 1504,341.8573 C1531.93,354.9673 1557.2665,369.3679 1578.8765,382.3479" fill="none" id="DBM-to-T4M" style="stroke:#000000;stroke-width:1;"/><polygon fill="#000000" points="1584.02,385.4373,1578.3644,377.3742,1579.7338,382.8628,1574.2452,384.2322,1584.02,385.4373" style="stroke:#000000;stroke-width:1;"/><text fill="#333333" font-family="Verdana" font-size="13" lengthAdjust="spacing" textLength="74.5469" x="1486.24" y="330.9271">Quota: 150</text></g><!--link T1M to UA1--><g class="link" data-entity-1="T1M" data-entity-2="UA1" data-source-line="62" data-uid="lnk35" id="link_T1M_UA1"><path d="M524.61,411.7173 C492.1,417.8173 454.74,429.7173 428,452.8773 C414.07,464.9273 408.0523,479.2089 404.1823,493.7589" fill="none" id="T1M-to-UA1" style="stroke:#000000;stroke-width:1;"/><polygon fill="#000000" points="402.64,499.5573,408.819,491.8879,403.9252,494.7253,401.0878,489.8315,402.64,499.5573" style="stroke:#000000;stroke-width:1;"/><text fill="#333333" font-family="Verdana" font-size="13" lengthAdjust="spacing" textLength="86.4614" x="429" y="466.9471">Allocated: 50</text></g><!--link T1M to UA2--><g class="link" data-entity-1="T1M" data-entity-2="UA2" data-source-line="63" data-uid="lnk36" id="link_T1M_UA2"><path d="M555.92,423.3573 C544.51,430.7873 533.35,440.5873 527,452.8773 C519.37,467.6473 523.026,480.7596 530.256,494.1296" fill="none" id="T1M-to-UA2" style="stroke:#000000;stroke-width:1;"/><polygon fill="#000000" points="533.11,499.4073,532.3475,489.588,530.7317,495.0092,525.3105,493.3934,533.11,499.4073" style="stroke:#000000;stroke-width:1;"/><text fill="#333333" font-family="Verdana" font-size="13" lengthAdjust="spacing" textLength="86.4614" x="528" y="466.9471">Allocated: 75</text></g><!--link T1M to UA3--><g class="link" data-entity-1="T1M" data-entity-2="UA3" data-source-line="64" data-uid="lnk37" id="link_T1M_UA3"><path d="M609.58,423.3673 C627.69,444.2673 653.4424,474.0115 671.5224,494.8915" fill="none" id="T1M-to-UA3" style="stroke:#000000;stroke-width:1;"/><polygon fill="#000000" points="675.45,499.4273,672.5825,490.0051,672.177,495.6474,666.5347,495.2419,675.45,499.4273" style="stroke:#000000;stroke-width:1;"/><text fill="#333333" font-family="Verdana" font-size="13" lengthAdjust="spacing" textLength="86.4614" x="649.31" y="466.9471">Allocated: 75</text></g><!--link T2M to UB1--><g class="link" data-entity-1="T2M" data-entity-2="UB1" data-source-line="66" data-uid="lnk38" id="link_T2M_UB1"><path d="M868.25,423.3673 C867.02,432.2273 865.69,443.0873 865,452.8773 C863.89,468.6273 863.6769,480.5973 863.7269,493.5573" fill="none" id="T2M-to-UB1" style="stroke:#000000;stroke-width:1;"/><polygon fill="#000000" points="863.75,499.5573,867.7152,490.5419,863.7307,494.5573,859.7153,490.5728,863.75,499.5573" style="stroke:#000000;stroke-width:1;"/><text fill="#333333" font-family="Verdana" font-size="13" lengthAdjust="spacing" textLength="94.7261" x="866" y="466.9471">Allocated: 100</text></g><!--link T2M to UB2--><g class="link" data-entity-1="T2M" data-entity-2="UB2" data-source-line="67" data-uid="lnk39" id="link_T2M_UB2"><path d="M916.57,423.2973 C932.84,430.9673 950.67,440.9373 965,452.8773 C980.88,466.1073 991.4754,480.3348 1000.3454,494.3748" fill="none" id="T2M-to-UB2" style="stroke:#000000;stroke-width:1;"/><polygon fill="#000000" points="1003.55,499.4473,1002.1247,489.7021,1000.8795,495.2202,995.3614,493.975,1003.55,499.4473" style="stroke:#000000;stroke-width:1;"/><text fill="#333333" font-family="Verdana" font-size="13" lengthAdjust="spacing" textLength="86.4614" x="981.72" y="466.9471">Allocated: 50</text></g><!--link T3M to UC1--><g class="link" data-entity-1="T3M" data-entity-2="UC1" data-source-line="69" data-uid="lnk40" id="link_T3M_UC1"><path d="M1264.55,423.3673 C1262.87,444.2673 1260.6012,472.5666 1258.9212,493.4466" fill="none" id="T3M-to-UC1" style="stroke:#000000;stroke-width:1;"/><polygon fill="#000000" points="1258.44,499.4273,1263.1489,490.7771,1258.841,494.4434,1255.1747,490.1355,1258.44,499.4273" style="stroke:#000000;stroke-width:1;"/><text fill="#333333" font-family="Verdana" font-size="13" lengthAdjust="spacing" textLength="86.4614" x="1263.04" y="466.9471">Allocated: 80</text></g><!--link T3M to UC2--><g class="link" data-entity-1="T3M" data-entity-2="UC2" data-source-line="70" data-uid="lnk41" id="link_T3M_UC2"><path d="M1311.32,423.3673 C1327.14,430.9973 1344.34,440.9073 1358,452.8773 C1373.1,466.0973 1382.7324,480.1926 1390.7224,494.2326" fill="none" id="T3M-to-UC2" style="stroke:#000000;stroke-width:1;"/><polygon fill="#000000" points="1393.69,499.4473,1392.715,489.6468,1391.217,495.1017,1385.7621,493.6037,1393.69,499.4473" style="stroke:#000000;stroke-width:1;"/><text fill="#333333" font-family="Verdana" font-size="13" lengthAdjust="spacing" textLength="86.4614" x="1373.78" y="466.9471">Allocated: 70</text></g><!--link T4M to UD1--><g class="link" data-entity-1="T4M" data-entity-2="UD1" data-source-line="72" data-uid="lnk42" id="link_T4M_UD1"><path d="M1611.55,423.3673 C1609.87,444.2673 1607.6012,472.5666 1605.9212,493.4466" fill="none" id="T4M-to-UD1" style="stroke:#000000;stroke-width:1;"/><polygon fill="#000000" points="1605.44,499.4273,1610.1489,490.7771,1605.841,494.4434,1602.1747,490.1355,1605.44,499.4273" style="stroke:#000000;stroke-width:1;"/><text fill="#333333" font-family="Verdana" font-size="13" lengthAdjust="spacing" textLength="94.7261" x="1610.04" y="466.9471">Allocated: 150</text></g><!--link GRM to GMN43--><g class="link" data-entity-1="GRM" data-entity-2="GMN43" data-source-line="75" data-uid="lnk45" id="link_GRM_GMN43"><path d="M1133.93,117.8573 C1275.14,123.2073 1540.47,139.3473 1761,187.7473 C1789.74,194.0573 1820.27,203.5373 1847.79,213.1673" fill="none" id="GRM-GMN43" style="stroke:#000000;stroke-width:1;stroke-dasharray:7,7;"/></g><!--link RP to GMN46--><g class="link" data-entity-1="RP" data-entity-2="GMN46" data-source-line="82" data-uid="lnk48" id="link_RP_GMN46"><path d="M224.97,231.3773 C244.93,209.3973 281.38,174.3273 321.5,160.2473 C413.56,127.9573 1983.02,135.9673 2077.5,160.2473 C2117.83,170.6173 2158.86,193.2573 2189.74,213.2373" fill="none" id="RP-GMN46" style="stroke:#000000;stroke-width:1;stroke-dasharray:7,7;"/></g><!--SRC=[dLPTJ-f047tlhvYBB_YWeIr4xSDDw9S-IAAeFs1f1sXiTt6xw3Kt_lSxkxQb5Arw8I7OCsVEzFGuoo-rnW9XaxECMofJES9LXfB9P9qbB8Svbc8h4uHfdek4gKnmooeVCxvXaXMmOCdZIeejJmEH2mb7SQJVhOeKbsoRgrXmLPMuvjNkaeXY8pXoTQTUQG29YM9ybMEhP4D2R8NT0gkw3eExrr9X0TVuZ3aCxT5erCnU7W_WA79Z9mxXhmNqQWHXS9cBHVi-PunJFpa0LiBbV6RApKUZ52ADf0hDdi9mV21q7a-YYqge8qPKJMfhXDDPKzbyQRJkaUxTXg7JKTbrxoXKXBR2lJtRgsxSWy53YHAcr7yoEZQr3_J7KHm7OUZqSnmOdargZlCzZjlck0USjwzyS7xgWxFlWzFlWs-Rt5G3-jypmdTQvlbV6Z5zPbdE5lIrOTqxKysABu9nnugt_l3vC7GddV35SUH7KK_u_Ftm-L-6p_sfwUw-wMw_wG6PVbxx5tpFyq27h-7yb-VkPvxtE36cU4n-uiHutubnlnEXRVfNjnNQd_n_V1IA1yxUjpEczBGECw7ly-DCK27APuGR8N8ZFB-fLDuiYzOVd9pyrYiAFBZT2iKye7st0_mMG5biWFaDNQzwUq0JMPPkeY7QHZiE9Mi7E1t0qkqDudOfDJ1k0RPMqTqrelUOLvzPc7f0u0vpzh6pIGjp3p1BJsP0lzEKjaKBT0uKBJsv0OCEytpKmhhZQEAu0iEkf6xBXK9O2AL40MBP75CHNmfww6Ovc7EmzCnr-nIkc4pXEYiovK70E3K0_9CWvUL9ksVAd5Eu4qlLAYCDASKBB2K9oVV7QKhTKuXoLgeiUQyhwQS2JSHAQYWudVa5uwc5F0KzQZMmp5PhfUUjCbPdRqFPWpKHSgm6FW5_Aqj5aazRB5LPNOmAb2laoIkmviT8ZSsHJd76auolO87g1L6FKU_ASZVBFm00]--></g></svg>