<svg xmlns="http://www.w3.org/2000/svg" xmlns:xlink="http://www.w3.org/1999/xlink" contentStyleType="text/css" data-diagram-type="SEQUENCE" height="2000px" preserveAspectRatio="none" style="width:1702px;height:2000px;background:#FEFEFE;" version="1.1" viewBox="0 0 1702 2000" width="1702px" zoomAndPan="magnify"><title>Practical Implementation: Multi-Layer Resource Allocator</title><defs/><g><rect fill="#FEFEFE" height="2000" style="stroke:none;stroke-width:1;" width="1702" x="0" y="0"/><text fill="#333333" font-family="Verdana" font-size="22" font-weight="bold" lengthAdjust="spacing" textLength="711.5088" x="493.9272" y="37.1182">Practical Implementation: Multi-Layer Resource Allocator</text><g><title>Service Instance 1</title><rect fill="#FFFFFF" height="505.7856" style="stroke:#000000;stroke-width:1;" width="10" x="578.0142" y="283.7632"/></g><g><title>Service Instance 1</title><rect fill="#FFFFFF" height="346.7925" style="stroke:#000000;stroke-width:1;" width="10" x="578.0142" y="1089.3413"/></g><g><title>Service Instance 1</title><rect fill="#FFFFFF" height="196.7959" style="stroke:#000000;stroke-width:1;" width="10" x="578.0142" y="1516.7324"/></g><g><title>Service Instance 2</title><rect fill="#FFFFFF" height="346.7925" style="stroke:#000000;stroke-width:1;" width="10" x="782.1948" y="1089.3413"/></g><g><title>Service Instance 3</title><rect fill="#FFFFFF" height="346.7925" style="stroke:#000000;stroke-width:1;" width="10" x="1213.7275" y="1089.3413"/></g><g><title>User Application</title><rect fill="#000000" fill-opacity="0.00000" height="1772.1563" width="8" x="65.9468" y="132.7666"/><line style="stroke:#000000;stroke-width:1;" x1="69" x2="69" y1="132.7666" y2="1904.9229"/></g><g><title>API Gateway</title><rect fill="#000000" fill-opacity="0.00000" height="1772.1563" width="8" x="262.4824" y="132.7666"/><line style="stroke:#000000;stroke-width:1;" x1="266.4336" x2="266.4336" y1="132.7666" y2="1904.9229"/></g><g><title>Load Balancer</title><rect fill="#000000" fill-opacity="0.00000" height="1772.1563" width="8" x="401.0645" y="132.7666"/><line style="stroke:#000000;stroke-width:1;" x1="404.5313" x2="404.5313" y1="132.7666" y2="1904.9229"/></g><g><title>Service Instance 1</title><rect fill="#000000" fill-opacity="0.00000" height="1772.1563" width="8" x="579.0142" y="132.7666"/><line style="stroke:#000000;stroke-width:1;" x1="582.5874" x2="582.5874" y1="132.7666" y2="1904.9229"/></g><g><title>Service Instance 2</title><rect fill="#000000" fill-opacity="0.00000" height="1772.1563" width="8" x="783.1948" y="132.7666"/><line style="stroke:#000000;stroke-width:1;" x1="786.7681" x2="786.7681" y1="132.7666" y2="1904.9229"/></g><g><title>Redis Cache</title><rect fill="#000000" fill-opacity="0.00000" height="1772.1563" width="8" x="933.3252" y="132.7666"/><line style="stroke:#000000;stroke-width:1;" x1="936.5596" x2="936.5596" y1="132.7666" y2="1904.9229"/></g><g><title>ScyllaDB</title><rect fill="#000000" fill-opacity="0.00000" height="1772.1563" width="8" x="1055.6958" y="132.7666"/><line style="stroke:#000000;stroke-width:1;" x1="1059.0908" x2="1059.0908" y1="132.7666" y2="1904.9229"/></g><g><title>Service Instance 3</title><rect fill="#000000" fill-opacity="0.00000" height="1772.1563" width="8" x="1214.7275" y="132.7666"/><line style="stroke:#000000;stroke-width:1;" x1="1218.3008" x2="1218.3008" y1="132.7666" y2="1904.9229"/></g><g><title>Bloom Filter</title><rect fill="#000000" fill-opacity="0.00000" height="1772.1563" width="8" x="1366.4209" y="132.7666"/><line style="stroke:#000000;stroke-width:1;" x1="1370.1543" x2="1370.1543" y1="132.7666" y2="1904.9229"/></g><g><title>LRU Cache</title><rect fill="#000000" fill-opacity="0.00000" height="1772.1563" width="8" x="1490.374" y="132.7666"/><line style="stroke:#000000;stroke-width:1;" x1="1493.6875" x2="1493.6875" y1="132.7666" y2="1904.9229"/></g><g><title>Lock Manager</title><rect fill="#000000" fill-opacity="0.00000" height="1772.1563" width="8" x="1620.7119" y="132.7666"/><line style="stroke:#000000;stroke-width:1;" x1="1624.0605" x2="1624.0605" y1="132.7666" y2="1904.9229"/></g><g class="participant participant-head" data-participant="user"><text fill="#333333" font-family="Verdana" font-size="14" lengthAdjust="spacing" textLength="113.8936" x="10" y="129.8271">User Application</text><ellipse cx="69.9468" cy="63.752" fill="#E3F2FD" rx="8" ry="8" style="stroke:#000000;stroke-width:1;"/><path d="M69.9468,71.752 L69.9468,98.752 M56.9468,79.752 L82.9468,79.752 M69.9468,98.752 L56.9468,113.752 M69.9468,98.752 L82.9468,113.752" fill="none" style="stroke:#000000;stroke-width:1;"/></g><g class="participant participant-tail" data-participant="user"><text fill="#333333" font-family="Verdana" font-size="14" lengthAdjust="spacing" textLength="113.8936" x="10" y="1917.998">User Application</text><ellipse cx="69.9468" cy="1929.9375" fill="#E3F2FD" rx="8" ry="8" style="stroke:#000000;stroke-width:1;"/><path d="M69.9468,1937.9375 L69.9468,1964.9375 M56.9468,1945.9375 L82.9468,1945.9375 M69.9468,1964.9375 L56.9468,1979.9375 M69.9468,1964.9375 L82.9468,1979.9375" fill="none" style="stroke:#000000;stroke-width:1;"/></g><g class="participant participant-head" data-participant="api"><rect fill="#F3E5F5" height="31.0146" rx="2.5" ry="2.5" style="stroke:#000000;stroke-width:1;" width="104.0977" x="214.4336" y="100.752"/><text fill="#333333" font-family="Verdana" font-size="14" lengthAdjust="spacing" textLength="90.0977" x="221.4336" y="121.8271">API Gateway</text></g><g class="participant participant-tail" data-participant="api"><rect fill="#F3E5F5" height="31.0146" rx="2.5" ry="2.5" style="stroke:#000000;stroke-width:1;" width="104.0977" x="214.4336" y="1903.9229"/><text fill="#333333" font-family="Verdana" font-size="14" lengthAdjust="spacing" textLength="90.0977" x="221.4336" y="1924.998">API Gateway</text></g><g class="participant participant-head" data-participant="lb"><rect fill="#F3E5F5" height="31.0146" rx="2.5" ry="2.5" style="stroke:#000000;stroke-width:1;" width="113.0664" x="348.5313" y="100.752"/><text fill="#333333" font-family="Verdana" font-size="14" lengthAdjust="spacing" textLength="99.0664" x="355.5313" y="121.8271">Load Balancer</text></g><g class="participant participant-tail" data-participant="lb"><rect fill="#F3E5F5" height="31.0146" rx="2.5" ry="2.5" style="stroke:#000000;stroke-width:1;" width="113.0664" x="348.5313" y="1903.9229"/><text fill="#333333" font-family="Verdana" font-size="14" lengthAdjust="spacing" textLength="99.0664" x="355.5313" y="1924.998">Load Balancer</text></g><g class="participant participant-head" data-participant="s1"><rect fill="#F3E5F5" height="31.0146" rx="2.5" ry="2.5" style="stroke:#000000;stroke-width:1;" width="144.8535" x="510.5874" y="100.752"/><text fill="#333333" font-family="Verdana" font-size="14" lengthAdjust="spacing" textLength="130.8535" x="517.5874" y="121.8271">Service Instance 1</text></g><g class="participant participant-tail" data-participant="s1"><rect fill="#F3E5F5" height="31.0146" rx="2.5" ry="2.5" style="stroke:#000000;stroke-width:1;" width="144.8535" x="510.5874" y="1903.9229"/><text fill="#333333" font-family="Verdana" font-size="14" lengthAdjust="spacing" textLength="130.8535" x="517.5874" y="1924.998">Service Instance 1</text></g><g class="participant participant-head" data-participant="s2"><rect fill="#F3E5F5" height="31.0146" rx="2.5" ry="2.5" style="stroke:#000000;stroke-width:1;" width="144.8535" x="714.7681" y="100.752"/><text fill="#333333" font-family="Verdana" font-size="14" lengthAdjust="spacing" textLength="130.8535" x="721.7681" y="121.8271">Service Instance 2</text></g><g class="participant participant-tail" data-participant="s2"><rect fill="#F3E5F5" height="31.0146" rx="2.5" ry="2.5" style="stroke:#000000;stroke-width:1;" width="144.8535" x="714.7681" y="1903.9229"/><text fill="#333333" font-family="Verdana" font-size="14" lengthAdjust="spacing" textLength="130.8535" x="721.7681" y="1924.998">Service Instance 2</text></g><g class="participant participant-head" data-participant="redis"><text fill="#333333" font-family="Verdana" font-size="14" lengthAdjust="spacing" textLength="85.5313" x="891.5596" y="112.8125">Redis Cache</text><text fill="#333333" font-family="Verdana" font-size="14" lengthAdjust="spacing" textLength="77.0068" x="895.8218" y="129.8271">(L1 Cache)</text><path d="M919.3252,62.7373 C919.3252,52.7373 937.3252,52.7373 937.3252,52.7373 C937.3252,52.7373 955.3252,52.7373 955.3252,62.7373 L955.3252,88.7373 C955.3252,98.7373 937.3252,98.7373 937.3252,98.7373 C937.3252,98.7373 919.3252,98.7373 919.3252,88.7373 L919.3252,62.7373" fill="#E8F5E9" style="stroke:#000000;stroke-width:1;"/><path d="M919.3252,62.7373 C919.3252,72.7373 937.3252,72.7373 937.3252,72.7373 C937.3252,72.7373 955.3252,72.7373 955.3252,62.7373" fill="none" style="stroke:#000000;stroke-width:1;"/></g><g class="participant participant-tail" data-participant="redis"><text fill="#333333" font-family="Verdana" font-size="14" lengthAdjust="spacing" textLength="85.5313" x="891.5596" y="1917.998">Redis Cache</text><text fill="#333333" font-family="Verdana" font-size="14" lengthAdjust="spacing" textLength="77.0068" x="895.8218" y="1935.0127">(L1 Cache)</text><path d="M919.3252,1947.9521 C919.3252,1937.9521 937.3252,1937.9521 937.3252,1937.9521 C937.3252,1937.9521 955.3252,1937.9521 955.3252,1947.9521 L955.3252,1973.9521 C955.3252,1983.9521 937.3252,1983.9521 937.3252,1983.9521 C937.3252,1983.9521 919.3252,1983.9521 919.3252,1973.9521 L919.3252,1947.9521" fill="#E8F5E9" style="stroke:#000000;stroke-width:1;"/><path d="M919.3252,1947.9521 C919.3252,1957.9521 937.3252,1957.9521 937.3252,1957.9521 C937.3252,1957.9521 955.3252,1957.9521 955.3252,1947.9521" fill="none" style="stroke:#000000;stroke-width:1;"/></g><g class="participant participant-head" data-participant="scylla"><text fill="#333333" font-family="Verdana" font-size="14" lengthAdjust="spacing" textLength="61.626" x="1025.8828" y="112.8125">ScyllaDB</text><text fill="#333333" font-family="Verdana" font-size="14" lengthAdjust="spacing" textLength="127.21" x="993.0908" y="129.8271">(Primary Storage)</text><path d="M1041.6958,62.7373 C1041.6958,52.7373 1059.6958,52.7373 1059.6958,52.7373 C1059.6958,52.7373 1077.6958,52.7373 1077.6958,62.7373 L1077.6958,88.7373 C1077.6958,98.7373 1059.6958,98.7373 1059.6958,98.7373 C1059.6958,98.7373 1041.6958,98.7373 1041.6958,88.7373 L1041.6958,62.7373" fill="#E8F5E9" style="stroke:#000000;stroke-width:1;"/><path d="M1041.6958,62.7373 C1041.6958,72.7373 1059.6958,72.7373 1059.6958,72.7373 C1059.6958,72.7373 1077.6958,72.7373 1077.6958,62.7373" fill="none" style="stroke:#000000;stroke-width:1;"/></g><g class="participant participant-tail" data-participant="scylla"><text fill="#333333" font-family="Verdana" font-size="14" lengthAdjust="spacing" textLength="61.626" x="1025.8828" y="1917.998">ScyllaDB</text><text fill="#333333" font-family="Verdana" font-size="14" lengthAdjust="spacing" textLength="127.21" x="993.0908" y="1935.0127">(Primary Storage)</text><path d="M1041.6958,1947.9521 C1041.6958,1937.9521 1059.6958,1937.9521 1059.6958,1937.9521 C1059.6958,1937.9521 1077.6958,1937.9521 1077.6958,1947.9521 L1077.6958,1973.9521 C1077.6958,1983.9521 1059.6958,1983.9521 1059.6958,1983.9521 C1059.6958,1983.9521 1041.6958,1983.9521 1041.6958,1973.9521 L1041.6958,1947.9521" fill="#E8F5E9" style="stroke:#000000;stroke-width:1;"/><path d="M1041.6958,1947.9521 C1041.6958,1957.9521 1059.6958,1957.9521 1059.6958,1957.9521 C1059.6958,1957.9521 1077.6958,1957.9521 1077.6958,1947.9521" fill="none" style="stroke:#000000;stroke-width:1;"/></g><g class="participant participant-head" data-participant="s3"><rect fill="#F3E5F5" height="31.0146" rx="2.5" ry="2.5" style="stroke:#000000;stroke-width:1;" width="144.8535" x="1146.3008" y="100.752"/><text fill="#333333" font-family="Verdana" font-size="14" lengthAdjust="spacing" textLength="130.8535" x="1153.3008" y="121.8271">Service Instance 3</text></g><g class="participant participant-tail" data-participant="s3"><rect fill="#F3E5F5" height="31.0146" rx="2.5" ry="2.5" style="stroke:#000000;stroke-width:1;" width="144.8535" x="1146.3008" y="1903.9229"/><text fill="#333333" font-family="Verdana" font-size="14" lengthAdjust="spacing" textLength="130.8535" x="1153.3008" y="1924.998">Service Instance 3</text></g><g class="participant participant-head" data-participant="bloom"><rect fill="#F3E5F5" height="31.0146" rx="2.5" ry="2.5" style="stroke:#000000;stroke-width:1;" width="98.5332" x="1321.1543" y="100.752"/><text fill="#333333" font-family="Verdana" font-size="14" lengthAdjust="spacing" textLength="84.5332" x="1328.1543" y="121.8271">Bloom Filter</text></g><g class="participant participant-tail" data-participant="bloom"><rect fill="#F3E5F5" height="31.0146" rx="2.5" ry="2.5" style="stroke:#000000;stroke-width:1;" width="98.5332" x="1321.1543" y="1903.9229"/><text fill="#333333" font-family="Verdana" font-size="14" lengthAdjust="spacing" textLength="84.5332" x="1328.1543" y="1924.998">Bloom Filter</text></g><g class="participant participant-head" data-participant="lru"><rect fill="#F3E5F5" height="31.0146" rx="2.5" ry="2.5" style="stroke:#000000;stroke-width:1;" width="89.373" x="1449.6875" y="100.752"/><text fill="#333333" font-family="Verdana" font-size="14" lengthAdjust="spacing" textLength="75.373" x="1456.6875" y="121.8271">LRU Cache</text></g><g class="participant participant-tail" data-participant="lru"><rect fill="#F3E5F5" height="31.0146" rx="2.5" ry="2.5" style="stroke:#000000;stroke-width:1;" width="89.373" x="1449.6875" y="1903.9229"/><text fill="#333333" font-family="Verdana" font-size="14" lengthAdjust="spacing" textLength="75.373" x="1456.6875" y="1924.998">LRU Cache</text></g><g class="participant participant-head" data-participant="lock"><rect fill="#F3E5F5" height="31.0146" rx="2.5" ry="2.5" style="stroke:#000000;stroke-width:1;" width="111.3027" x="1569.0605" y="100.752"/><text fill="#333333" font-family="Verdana" font-size="14" lengthAdjust="spacing" textLength="97.3027" x="1576.0605" y="121.8271">Lock Manager</text></g><g class="participant participant-tail" data-participant="lock"><rect fill="#F3E5F5" height="31.0146" rx="2.5" ry="2.5" style="stroke:#000000;stroke-width:1;" width="111.3027" x="1569.0605" y="1903.9229"/><text fill="#333333" font-family="Verdana" font-size="14" lengthAdjust="spacing" textLength="97.3027" x="1576.0605" y="1924.998">Lock Manager</text></g><g><title>Service Instance 1</title><rect fill="#FFFFFF" height="505.7856" style="stroke:#000000;stroke-width:1;" width="10" x="578.0142" y="283.7632"/></g><g><title>Service Instance 1</title><rect fill="#FFFFFF" height="346.7925" style="stroke:#000000;stroke-width:1;" width="10" x="578.0142" y="1089.3413"/></g><g><title>Service Instance 1</title><rect fill="#FFFFFF" height="196.7959" style="stroke:#000000;stroke-width:1;" width="10" x="578.0142" y="1516.7324"/></g><g><title>Service Instance 2</title><rect fill="#FFFFFF" height="346.7925" style="stroke:#000000;stroke-width:1;" width="10" x="782.1948" y="1089.3413"/></g><g><title>Service Instance 3</title><rect fill="#FFFFFF" height="346.7925" style="stroke:#000000;stroke-width:1;" width="10" x="1213.7275" y="1089.3413"/></g><rect fill="#FFFFFF" height="3" style="stroke:#FFFFFF;stroke-width:1;" width="1690.3633" x="5" y="163.6663"/><line style="stroke:#000000;stroke-width:0.5;" x1="5" x2="1695.3633" y1="163.6663" y2="163.6663"/><line style="stroke:#000000;stroke-width:0.5;" x1="5" x2="1695.3633" y1="166.6663" y2="166.6663"/><rect fill="#FFFFFF" height="23.7993" style="stroke:#000000;stroke-width:1;" width="194.0957" x="753.1338" y="152.7666"/><text fill="#333333" font-family="Verdana" font-size="13" font-weight="bold" lengthAdjust="spacing" textLength="175.6523" x="759.1338" y="169.8364">Allocation Request Flow</text><g class="message" data-participant-1="user" data-participant-2="api"><polygon fill="#000000" points="254.4824,220.1646,264.4824,224.1646,254.4824,228.1646,258.4824,224.1646" style="stroke:#000000;stroke-width:1;"/><line style="stroke:#000000;stroke-width:1;" x1="69.9468" x2="260.4824" y1="224.1646" y2="224.1646"/><text fill="#333333" font-family="Verdana" font-size="13" lengthAdjust="spacing" textLength="95.7227" x="76.9468" y="203.6357">POST /allocate</text><text fill="#333333" font-family="Verdana" font-size="13" lengthAdjust="spacing" textLength="172.5356" x="76.9468" y="219.4351">{user_id: 123, count: 10}</text></g><g class="message" data-participant-1="api" data-participant-2="lb"><polygon fill="#000000" points="393.0645,249.9639,403.0645,253.9639,393.0645,257.9639,397.0645,253.9639" style="stroke:#000000;stroke-width:1;"/><line style="stroke:#000000;stroke-width:1;" x1="266.4824" x2="399.0645" y1="253.9639" y2="253.9639"/><text fill="#333333" font-family="Verdana" font-size="13" lengthAdjust="spacing" textLength="91.8506" x="273.4824" y="249.2344">Route request</text></g><g class="message" data-participant-1="lb" data-participant-2="s1"><polygon fill="#000000" points="566.0142,279.7632,576.0142,283.7632,566.0142,287.7632,570.0142,283.7632" style="stroke:#000000;stroke-width:1;"/><line style="stroke:#000000;stroke-width:1;" x1="405.0645" x2="572.0142" y1="283.7632" y2="283.7632"/><text fill="#333333" font-family="Verdana" font-size="13" lengthAdjust="spacing" textLength="153.9497" x="412.0645" y="279.0337">Forward to least loaded</text></g><g class="message" data-participant-1="s1" data-participant-2="lock"><polygon fill="#000000" points="1612.7119,325.3618,1622.7119,329.3618,1612.7119,333.3618,1616.7119,329.3618" style="stroke:#000000;stroke-width:1;"/><line style="stroke:#000000;stroke-width:1;" x1="588.0142" x2="1618.7119" y1="329.3618" y2="329.3618"/><text fill="#333333" font-family="Verdana" font-size="13" lengthAdjust="spacing" textLength="112.2012" x="595.0142" y="308.833">Acquire user lock</text><text fill="#333333" font-family="Verdana" font-size="13" lengthAdjust="spacing" textLength="112.271" x="595.0142" y="324.6323">(distributed lock)</text></g><g class="message" data-participant-1="s1" data-participant-2="lru"><polygon fill="#000000" points="1482.374,355.1611,1492.374,359.1611,1482.374,363.1611,1486.374,359.1611" style="stroke:#000000;stroke-width:1;"/><line style="stroke:#000000;stroke-width:1;" x1="588.0142" x2="1488.374" y1="359.1611" y2="359.1611"/><text fill="#333333" font-family="Verdana" font-size="13" lengthAdjust="spacing" textLength="115.5845" x="595.0142" y="354.4316">Check local cache</text></g><g class="message" data-participant-1="lru" data-participant-2="s1"><polygon fill="#000000" points="599.0142,384.9604,589.0142,388.9604,599.0142,392.9604,595.0142,388.9604" style="stroke:#000000;stroke-width:1;"/><line style="stroke:#000000;stroke-width:1;stroke-dasharray:2,2;" x1="593.0142" x2="1493.374" y1="388.9604" y2="388.9604"/><text fill="#333333" font-family="Verdana" font-size="13" lengthAdjust="spacing" textLength="73.9565" x="605.0142" y="384.231">Cache miss</text></g><g class="message" data-participant-1="s1" data-participant-2="bloom"><polygon fill="#000000" points="1358.4209,430.5591,1368.4209,434.5591,1358.4209,438.5591,1362.4209,434.5591" style="stroke:#000000;stroke-width:1;"/><line style="stroke:#000000;stroke-width:1;" x1="588.0142" x2="1364.4209" y1="434.5591" y2="434.5591"/><text fill="#333333" font-family="Verdana" font-size="13" lengthAdjust="spacing" textLength="85.084" x="595.0142" y="414.0303">Check if user</text><text fill="#333333" font-family="Verdana" font-size="13" lengthAdjust="spacing" textLength="96.3701" x="595.0142" y="429.8296">has allocations</text></g><g class="message" data-participant-1="bloom" data-participant-2="s1"><polygon fill="#000000" points="599.0142,460.3584,589.0142,464.3584,599.0142,468.3584,595.0142,464.3584" style="stroke:#000000;stroke-width:1;"/><line style="stroke:#000000;stroke-width:1;stroke-dasharray:2,2;" x1="593.0142" x2="1369.4209" y1="464.3584" y2="464.3584"/><text fill="#333333" font-family="Verdana" font-size="13" lengthAdjust="spacing" textLength="83.3257" x="605.0142" y="459.6289">Probably yes</text></g><g class="message" data-participant-1="s1" data-participant-2="redis"><polygon fill="#000000" points="925.3252,490.1577,935.3252,494.1577,925.3252,498.1577,929.3252,494.1577" style="stroke:#000000;stroke-width:1;"/><line style="stroke:#000000;stroke-width:1;" x1="588.0142" x2="931.3252" y1="494.1577" y2="494.1577"/><text fill="#333333" font-family="Verdana" font-size="13" lengthAdjust="spacing" textLength="128.3433" x="595.0142" y="489.4282">GET user:123:state</text></g><g class="message" data-participant-1="redis" data-participant-2="s1"><polygon fill="#000000" points="599.0142,551.5557,589.0142,555.5557,599.0142,559.5557,595.0142,555.5557" style="stroke:#000000;stroke-width:1;"/><line style="stroke:#000000;stroke-width:1;stroke-dasharray:2,2;" x1="593.0142" x2="936.3252" y1="555.5557" y2="555.5557"/><text fill="#333333" font-family="Verdana" font-size="13" lengthAdjust="spacing" textLength="89.0068" x="605.0142" y="519.2275">{cursor: 450,</text><text fill="#333333" font-family="Verdana" font-size="13" lengthAdjust="spacing" textLength="74.731" x="605.0142" y="535.0269">bitmap: ...,</text><text fill="#333333" font-family="Verdana" font-size="13" lengthAdjust="spacing" textLength="94.0532" x="605.0142" y="550.8262">last_alloc: ...}</text></g><g class="message" data-participant-1="s1" data-participant-2="s1"><line style="stroke:#000000;stroke-width:1;" x1="588.0142" x2="630.0142" y1="597.6543" y2="597.6543"/><line style="stroke:#000000;stroke-width:1;" x1="630.0142" x2="630.0142" y1="597.6543" y2="610.6543"/><line style="stroke:#000000;stroke-width:1;" x1="589.0142" x2="630.0142" y1="610.6543" y2="610.6543"/><polygon fill="#000000" points="599.0142,606.6543,589.0142,610.6543,599.0142,614.6543,595.0142,610.6543" style="stroke:#000000;stroke-width:1;"/><text fill="#333333" font-family="Verdana" font-size="13" lengthAdjust="spacing" textLength="170.1807" x="595.0142" y="592.9248">Apply allocation algorithm</text></g><path d="M787.1807,568.5557 L787.1807,625.5557 L960.1807,625.5557 L960.1807,578.5557 L950.1807,568.5557 L787.1807,568.5557" fill="#FFFFFF" style="stroke:#000000;stroke-width:1;"/><path d="M950.1807,568.5557 L950.1807,578.5557 L960.1807,578.5557 L950.1807,568.5557" fill="#FFFFFF" style="stroke:#000000;stroke-width:1;"/><text fill="#333333" font-family="Verdana" font-size="13" lengthAdjust="spacing" textLength="152.3184" x="793.1807" y="586.6255">Deterministic sequence</text><text fill="#333333" font-family="Verdana" font-size="13" lengthAdjust="spacing" textLength="133.7578" x="793.1807" y="602.4248">generation based on</text><text fill="#333333" font-family="Verdana" font-size="13" lengthAdjust="spacing" textLength="122.2559" x="793.1807" y="618.2241">user_id and cursor</text><g class="message" data-participant-1="s1" data-participant-2="redis"><polygon fill="#000000" points="925.3252,664.5522,935.3252,668.5522,925.3252,672.5522,929.3252,668.5522" style="stroke:#000000;stroke-width:1;"/><line style="stroke:#000000;stroke-width:1;" x1="588.0142" x2="931.3252" y1="668.5522" y2="668.5522"/><text fill="#333333" font-family="Verdana" font-size="13" lengthAdjust="spacing" textLength="127.1499" x="595.0142" y="648.0234">SET user:123:state</text><text fill="#333333" font-family="Verdana" font-size="13" lengthAdjust="spacing" textLength="65.0063" x="595.0142" y="663.8228">(updated)</text></g><g class="message" data-participant-1="s1" data-participant-2="scylla"><polygon fill="#000000" points="1047.6958,710.1509,1057.6958,714.1509,1047.6958,718.1509,1051.6958,714.1509" style="stroke:#000000;stroke-width:1;"/><line style="stroke:#000000;stroke-width:1;" x1="588.0142" x2="1053.6958" y1="714.1509" y2="714.1509"/><text fill="#333333" font-family="Verdana" font-size="13" lengthAdjust="spacing" textLength="116.1431" x="595.0142" y="693.6221">INSERT allocation</text><text fill="#333333" font-family="Verdana" font-size="13" lengthAdjust="spacing" textLength="86.271" x="595.0142" y="709.4214">(async write)</text></g><g class="message" data-participant-1="s1" data-participant-2="s3"><polygon fill="#000000" points="1206.7275,755.7495,1216.7275,759.7495,1206.7275,763.7495,1210.7275,759.7495" style="stroke:#000000;stroke-width:1;"/><line style="stroke:#000000;stroke-width:1;" x1="588.0142" x2="1212.7275" y1="759.7495" y2="759.7495"/><text fill="#333333" font-family="Verdana" font-size="13" lengthAdjust="spacing" textLength="100.6611" x="595.0142" y="739.2207">Log transaction</text><text fill="#333333" font-family="Verdana" font-size="13" lengthAdjust="spacing" textLength="49.0801" x="595.0142" y="755.02">(async)</text></g><g class="message" data-participant-1="s1" data-participant-2="lock"><polygon fill="#000000" points="1612.7119,785.5488,1622.7119,789.5488,1612.7119,793.5488,1616.7119,789.5488" style="stroke:#000000;stroke-width:1;"/><line style="stroke:#000000;stroke-width:1;" x1="583.0142" x2="1618.7119" y1="789.5488" y2="789.5488"/><text fill="#333333" font-family="Verdana" font-size="13" lengthAdjust="spacing" textLength="113.7754" x="590.0142" y="784.8193">Release user lock</text></g><g class="message" data-participant-1="s1" data-participant-2="api"><polygon fill="#000000" points="277.4824,831.1475,267.4824,835.1475,277.4824,839.1475,273.4824,835.1475" style="stroke:#000000;stroke-width:1;"/><line style="stroke:#000000;stroke-width:1;stroke-dasharray:2,2;" x1="271.4824" x2="582.0142" y1="835.1475" y2="835.1475"/><text fill="#333333" font-family="Verdana" font-size="13" lengthAdjust="spacing" textLength="99.9312" x="283.4824" y="814.6187">{success: true,</text><text fill="#333333" font-family="Verdana" font-size="13" lengthAdjust="spacing" textLength="149.043" x="283.4824" y="830.418">resources: [451-460]}</text></g><g class="message" data-participant-1="api" data-participant-2="user"><polygon fill="#000000" points="80.9468,876.7461,70.9468,880.7461,80.9468,884.7461,76.9468,880.7461" style="stroke:#000000;stroke-width:1;"/><line style="stroke:#000000;stroke-width:1;stroke-dasharray:2,2;" x1="74.9468" x2="265.4824" y1="880.7461" y2="880.7461"/><text fill="#333333" font-family="Verdana" font-size="13" lengthAdjust="spacing" textLength="48.604" x="86.9468" y="860.2173">200 OK</text><text fill="#333333" font-family="Verdana" font-size="13" lengthAdjust="spacing" textLength="115.9907" x="86.9468" y="876.0166">{resources: [...]}</text></g><rect fill="#FFFFFF" height="3" style="stroke:#FFFFFF;stroke-width:1;" width="1690.3633" x="5" y="909.6458"/><line style="stroke:#000000;stroke-width:0.5;" x1="5" x2="1695.3633" y1="909.6458" y2="909.6458"/><line style="stroke:#000000;stroke-width:0.5;" x1="5" x2="1695.3633" y1="912.6458" y2="912.6458"/><rect fill="#FFFFFF" height="23.7993" style="stroke:#000000;stroke-width:1;" width="204.2646" x="748.0493" y="898.7461"/><text fill="#333333" font-family="Verdana" font-size="13" font-weight="bold" lengthAdjust="spacing" textLength="185.8213" x="754.0493" y="915.8159">High Contention Scenario</text><g class="message" data-participant-1="user" data-participant-2="api"><polygon fill="#000000" points="254.4824,966.144,264.4824,970.144,254.4824,974.144,258.4824,970.144" style="stroke:#000000;stroke-width:1;"/><line style="stroke:#000000;stroke-width:1;" x1="69.9468" x2="260.4824" y1="970.144" y2="970.144"/><text fill="#333333" font-family="Verdana" font-size="13" lengthAdjust="spacing" textLength="125.4995" x="76.9468" y="949.6152">Multiple concurrent</text><text fill="#333333" font-family="Verdana" font-size="13" lengthAdjust="spacing" textLength="56.0308" x="76.9468" y="965.4146">requests</text></g><g class="message" data-participant-1="api" data-participant-2="lb"><polygon fill="#000000" points="393.0645,995.9434,403.0645,999.9434,393.0645,1003.9434,397.0645,999.9434" style="stroke:#000000;stroke-width:1;"/><line style="stroke:#000000;stroke-width:1;" x1="266.4824" x2="399.0645" y1="999.9434" y2="999.9434"/><text fill="#333333" font-family="Verdana" font-size="13" lengthAdjust="spacing" textLength="95.7227" x="273.4824" y="995.2139">Distribute load</text></g><g class="message" data-participant-1="lb" data-participant-2="s1"><polygon fill="#000000" points="571.0142,1025.7427,581.0142,1029.7427,571.0142,1033.7427,575.0142,1029.7427" style="stroke:#000000;stroke-width:1;"/><line style="stroke:#000000;stroke-width:1;" x1="405.0645" x2="577.0142" y1="1029.7427" y2="1029.7427"/><text fill="#333333" font-family="Verdana" font-size="13" lengthAdjust="spacing" textLength="65.584" x="412.0645" y="1025.0132">Request 1</text></g><g class="message" data-participant-1="lb" data-participant-2="s2"><polygon fill="#000000" points="775.1948,1055.542,785.1948,1059.542,775.1948,1063.542,779.1948,1059.542" style="stroke:#000000;stroke-width:1;"/><line style="stroke:#000000;stroke-width:1;" x1="405.0645" x2="781.1948" y1="1059.542" y2="1059.542"/><text fill="#333333" font-family="Verdana" font-size="13" lengthAdjust="spacing" textLength="65.584" x="412.0645" y="1054.8125">Request 2</text></g><g class="message" data-participant-1="lb" data-participant-2="s3"><polygon fill="#000000" points="1201.7275,1085.3413,1211.7275,1089.3413,1201.7275,1093.3413,1205.7275,1089.3413" style="stroke:#000000;stroke-width:1;"/><line style="stroke:#000000;stroke-width:1;" x1="405.0645" x2="1207.7275" y1="1089.3413" y2="1089.3413"/><text fill="#333333" font-family="Verdana" font-size="13" lengthAdjust="spacing" textLength="65.584" x="412.0645" y="1084.6118">Request 3</text></g><g class="message" data-participant-1="s1" data-participant-2="lock"><polygon fill="#000000" points="1612.7119,1115.1406,1622.7119,1119.1406,1612.7119,1123.1406,1616.7119,1119.1406" style="stroke:#000000;stroke-width:1;"/><line style="stroke:#000000;stroke-width:1;" x1="588.0142" x2="1618.7119" y1="1119.1406" y2="1119.1406"/><text fill="#333333" font-family="Verdana" font-size="13" lengthAdjust="spacing" textLength="104.0825" x="595.0142" y="1114.4111">Try acquire lock</text></g><g class="message" data-participant-1="s2" data-participant-2="lock"><polygon fill="#000000" points="1612.7119,1144.9399,1622.7119,1148.9399,1612.7119,1152.9399,1616.7119,1148.9399" style="stroke:#000000;stroke-width:1;"/><line style="stroke:#000000;stroke-width:1;" x1="792.1948" x2="1618.7119" y1="1148.9399" y2="1148.9399"/><text fill="#333333" font-family="Verdana" font-size="13" lengthAdjust="spacing" textLength="104.0825" x="799.1948" y="1144.2104">Try acquire lock</text></g><g class="message" data-participant-1="s3" data-participant-2="lock"><polygon fill="#000000" points="1612.7119,1174.7393,1622.7119,1178.7393,1612.7119,1182.7393,1616.7119,1178.7393" style="stroke:#000000;stroke-width:1;"/><line style="stroke:#000000;stroke-width:1;" x1="1223.7275" x2="1618.7119" y1="1178.7393" y2="1178.7393"/><text fill="#333333" font-family="Verdana" font-size="13" lengthAdjust="spacing" textLength="104.0825" x="1230.7275" y="1174.0098">Try acquire lock</text></g><g class="message" data-participant-1="lock" data-participant-2="s1"><polygon fill="#000000" points="599.0142,1204.5386,589.0142,1208.5386,599.0142,1212.5386,595.0142,1208.5386" style="stroke:#000000;stroke-width:1;"/><line style="stroke:#000000;stroke-width:1;stroke-dasharray:2,2;" x1="593.0142" x2="1623.7119" y1="1208.5386" y2="1208.5386"/><text fill="#333333" font-family="Verdana" font-size="13" lengthAdjust="spacing" textLength="90.0288" x="605.0142" y="1203.8091">Lock acquired</text></g><g class="message" data-participant-1="lock" data-participant-2="s2"><polygon fill="#000000" points="803.1948,1234.3379,793.1948,1238.3379,803.1948,1242.3379,799.1948,1238.3379" style="stroke:#000000;stroke-width:1;"/><line style="stroke:#000000;stroke-width:1;stroke-dasharray:2,2;" x1="797.1948" x2="1623.7119" y1="1238.3379" y2="1238.3379"/><text fill="#333333" font-family="Verdana" font-size="13" lengthAdjust="spacing" textLength="93.1328" x="809.1948" y="1233.6084">Wait (backoff)</text></g><g class="message" data-participant-1="lock" data-participant-2="s3"><polygon fill="#000000" points="1234.7275,1264.1372,1224.7275,1268.1372,1234.7275,1272.1372,1230.7275,1268.1372" style="stroke:#000000;stroke-width:1;"/><line style="stroke:#000000;stroke-width:1;stroke-dasharray:2,2;" x1="1228.7275" x2="1623.7119" y1="1268.1372" y2="1268.1372"/><text fill="#333333" font-family="Verdana" font-size="13" lengthAdjust="spacing" textLength="93.1328" x="1240.7275" y="1263.4077">Wait (backoff)</text></g><g class="message" data-participant-1="s1" data-participant-2="s1"><line style="stroke:#000000;stroke-width:1;" x1="588.0142" x2="630.0142" y1="1297.9365" y2="1297.9365"/><line style="stroke:#000000;stroke-width:1;" x1="630.0142" x2="630.0142" y1="1297.9365" y2="1310.9365"/><line style="stroke:#000000;stroke-width:1;" x1="589.0142" x2="630.0142" y1="1310.9365" y2="1310.9365"/><polygon fill="#000000" points="599.0142,1306.9365,589.0142,1310.9365,599.0142,1314.9365,595.0142,1310.9365" style="stroke:#000000;stroke-width:1;"/><text fill="#333333" font-family="Verdana" font-size="13" lengthAdjust="spacing" textLength="116.1304" x="595.0142" y="1293.207">Process allocation</text></g><g class="message" data-participant-1="s1" data-participant-2="redis"><polygon fill="#000000" points="925.3252,1336.7358,935.3252,1340.7358,925.3252,1344.7358,929.3252,1340.7358" style="stroke:#000000;stroke-width:1;"/><line style="stroke:#000000;stroke-width:1;" x1="588.0142" x2="931.3252" y1="1340.7358" y2="1340.7358"/><text fill="#333333" font-family="Verdana" font-size="13" lengthAdjust="spacing" textLength="83.5288" x="595.0142" y="1336.0063">Update state</text></g><g class="message" data-participant-1="s1" data-participant-2="lock"><polygon fill="#000000" points="1612.7119,1366.5352,1622.7119,1370.5352,1612.7119,1374.5352,1616.7119,1370.5352" style="stroke:#000000;stroke-width:1;"/><line style="stroke:#000000;stroke-width:1;" x1="588.0142" x2="1618.7119" y1="1370.5352" y2="1370.5352"/><text fill="#333333" font-family="Verdana" font-size="13" lengthAdjust="spacing" textLength="50.4194" x="595.0142" y="1365.8057">Release</text></g><g class="message" data-participant-1="lock" data-participant-2="s2"><polygon fill="#000000" points="803.1948,1396.3345,793.1948,1400.3345,803.1948,1404.3345,799.1948,1400.3345" style="stroke:#000000;stroke-width:1;"/><line style="stroke:#000000;stroke-width:1;stroke-dasharray:2,2;" x1="797.1948" x2="1623.7119" y1="1400.3345" y2="1400.3345"/><text fill="#333333" font-family="Verdana" font-size="13" lengthAdjust="spacing" textLength="90.0288" x="809.1948" y="1395.605">Lock acquired</text></g><g class="message" data-participant-1="s2" data-participant-2="s2"><line style="stroke:#000000;stroke-width:1;" x1="792.1948" x2="834.1948" y1="1435.1338" y2="1435.1338"/><line style="stroke:#000000;stroke-width:1;" x1="834.1948" x2="834.1948" y1="1435.1338" y2="1448.1338"/><line style="stroke:#000000;stroke-width:1;" x1="787.1948" x2="834.1948" y1="1448.1338" y2="1448.1338"/><polygon fill="#000000" points="797.1948,1444.1338,787.1948,1448.1338,797.1948,1452.1338,793.1948,1448.1338" style="stroke:#000000;stroke-width:1;"/><text fill="#333333" font-family="Verdana" font-size="13" lengthAdjust="spacing" textLength="116.1304" x="799.1948" y="1430.4043">Process allocation</text></g><rect fill="#FFFFFF" height="3" style="stroke:#FFFFFF;stroke-width:1;" width="1690.3633" x="5" y="1472.0334"/><line style="stroke:#000000;stroke-width:0.5;" x1="5" x2="1695.3633" y1="1472.0334" y2="1472.0334"/><line style="stroke:#000000;stroke-width:0.5;" x1="5" x2="1695.3633" y1="1475.0334" y2="1475.0334"/><rect fill="#FFFFFF" height="23.7993" style="stroke:#000000;stroke-width:1;" width="140.6484" x="779.8574" y="1461.1338"/><text fill="#333333" font-family="Verdana" font-size="13" font-weight="bold" lengthAdjust="spacing" textLength="122.2051" x="785.8574" y="1478.2036">Failure Recovery</text><g class="message" data-participant-1="s1" data-participant-2="redis"><polygon fill="#000000" points="925.3252,1512.7324,935.3252,1516.7324,925.3252,1520.7324,929.3252,1516.7324" style="stroke:#000000;stroke-width:1;"/><line style="stroke:#000000;stroke-width:1;" x1="588.0142" x2="931.3252" y1="1516.7324" y2="1516.7324"/><text fill="#333333" font-family="Verdana" font-size="13" lengthAdjust="spacing" textLength="112.6709" x="595.0142" y="1512.0029">Connection failed</text></g><g class="message" data-participant-1="s1" data-participant-2="s1"><line style="stroke:#000000;stroke-width:1;" x1="588.0142" x2="630.0142" y1="1546.5317" y2="1546.5317"/><line style="stroke:#000000;stroke-width:1;" x1="630.0142" x2="630.0142" y1="1546.5317" y2="1559.5317"/><line style="stroke:#000000;stroke-width:1;" x1="589.0142" x2="630.0142" y1="1559.5317" y2="1559.5317"/><polygon fill="#000000" points="599.0142,1555.5317,589.0142,1559.5317,599.0142,1563.5317,595.0142,1559.5317" style="stroke:#000000;stroke-width:1;"/><text fill="#333333" font-family="Verdana" font-size="13" lengthAdjust="spacing" textLength="132.1646" x="595.0142" y="1541.8022">Fallback to ScyllaDB</text></g><g class="message" data-participant-1="s1" data-participant-2="scylla"><polygon fill="#000000" points="1047.6958,1585.3311,1057.6958,1589.3311,1047.6958,1593.3311,1051.6958,1589.3311" style="stroke:#000000;stroke-width:1;"/><line style="stroke:#000000;stroke-width:1;" x1="588.0142" x2="1053.6958" y1="1589.3311" y2="1589.3311"/><text fill="#333333" font-family="Verdana" font-size="13" lengthAdjust="spacing" textLength="102.6924" x="595.0142" y="1584.6016">Read user state</text></g><g class="message" data-participant-1="scylla" data-participant-2="s1"><polygon fill="#000000" points="599.0142,1615.1304,589.0142,1619.1304,599.0142,1623.1304,595.0142,1619.1304" style="stroke:#000000;stroke-width:1;"/><line style="stroke:#000000;stroke-width:1;stroke-dasharray:2,2;" x1="593.0142" x2="1058.6958" y1="1619.1304" y2="1619.1304"/><text fill="#333333" font-family="Verdana" font-size="13" lengthAdjust="spacing" textLength="68.0913" x="605.0142" y="1614.4009">State data</text></g><g class="message" data-participant-1="s1" data-participant-2="s1"><line style="stroke:#000000;stroke-width:1;" x1="588.0142" x2="630.0142" y1="1648.9297" y2="1648.9297"/><line style="stroke:#000000;stroke-width:1;" x1="630.0142" x2="630.0142" y1="1648.9297" y2="1661.9297"/><line style="stroke:#000000;stroke-width:1;" x1="589.0142" x2="630.0142" y1="1661.9297" y2="1661.9297"/><polygon fill="#000000" points="599.0142,1657.9297,589.0142,1661.9297,599.0142,1665.9297,595.0142,1661.9297" style="stroke:#000000;stroke-width:1;"/><text fill="#333333" font-family="Verdana" font-size="13" lengthAdjust="spacing" textLength="124.8711" x="595.0142" y="1644.2002">Continue allocation</text></g><g class="message" data-participant-1="s1" data-participant-2="s1"><line style="stroke:#000000;stroke-width:1;" x1="588.0142" x2="630.0142" y1="1712.5283" y2="1712.5283"/><line style="stroke:#000000;stroke-width:1;" x1="630.0142" x2="630.0142" y1="1712.5283" y2="1725.5283"/><line style="stroke:#000000;stroke-width:1;" x1="583.0142" x2="630.0142" y1="1725.5283" y2="1725.5283"/><polygon fill="#000000" points="593.0142,1721.5283,583.0142,1725.5283,593.0142,1729.5283,589.0142,1725.5283" style="stroke:#000000;stroke-width:1;"/><text fill="#333333" font-family="Verdana" font-size="13" lengthAdjust="spacing" textLength="99.1123" x="595.0142" y="1691.9995">Queue for later</text><text fill="#333333" font-family="Verdana" font-size="13" lengthAdjust="spacing" textLength="86.9946" x="595.0142" y="1707.7988">cache update</text></g><path d="M984,1733.5283 L984,1806.5283 L1135,1806.5283 L1135,1743.5283 L1125,1733.5283 L984,1733.5283" fill="#FFFFFF" style="stroke:#000000;stroke-width:1;"/><path d="M1125,1733.5283 L1125,1743.5283 L1135,1743.5283 L1125,1733.5283" fill="#FFFFFF" style="stroke:#000000;stroke-width:1;"/><text fill="#333333" font-family="Verdana" font-size="13" lengthAdjust="spacing" textLength="123.1128" x="990" y="1751.5981">ScyllaDB provides:</text><text fill="#333333" font-family="Verdana" font-size="13" lengthAdjust="spacing" textLength="88.3403" x="990" y="1767.3975">- Consistency</text><text fill="#333333" font-family="Verdana" font-size="13" lengthAdjust="spacing" textLength="73.6899" x="990" y="1783.1968">- Durability</text><text fill="#333333" font-family="Verdana" font-size="13" lengthAdjust="spacing" textLength="130.1587" x="990" y="1798.9961">- Partition tolerance</text><path d="M867,1816.7256 L867,1889.7256 L1007,1889.7256 L1007,1826.7256 L997,1816.7256 L867,1816.7256" fill="#FFFFFF" style="stroke:#000000;stroke-width:1;"/><path d="M997,1816.7256 L997,1826.7256 L1007,1826.7256 L997,1816.7256" fill="#FFFFFF" style="stroke:#000000;stroke-width:1;"/><text fill="#333333" font-family="Verdana" font-size="13" lengthAdjust="spacing" textLength="101.1118" x="873" y="1834.7954">Redis provides:</text><text fill="#333333" font-family="Verdana" font-size="13" lengthAdjust="spacing" textLength="112.5122" x="873" y="1850.5947">- Sub-ms latency</text><text fill="#333333" font-family="Verdana" font-size="13" lengthAdjust="spacing" textLength="117.4951" x="873" y="1866.394">- High throughput</text><text fill="#333333" font-family="Verdana" font-size="13" lengthAdjust="spacing" textLength="119.6279" x="873" y="1882.1934">- Distributed locks</text><!--SRC=[XLPjRo8t4Fw-lsAQVhb8HnhOKBL8gPGNk4QNz2WaweUcEfbT0rQClMTx4w7e_diVUrzYbeW32UtEFECPppmpmqzkpJUS2ic4IfnmajFKiCo9Z4cwsHGIMkMO4rgDwAwKJlHksPORcd6hIvDnkf1IPynfaoJsIQY26RQX1SkULaQNAh_IKXlwUJBstmYHwKsX5SwUkosS6fuvfbQIHn24eSrbzwHnEXbChYDOpXnRCCltaRzDXkFV8oH-SJ5HCENsm9DqF9mCkzudMhaQa8RF-wSTWZNX7S9O_gtaAkDtt5gsEWXLsXtKvtp9KAPzI18kH4SF5jMxA0g94lko7X6pL4AOH1UYeulf3NrYZh-mRK2mGkm2RZNBwP99XhXDWCX5iWkPS_CiG94RPPs7KJ_WRFy7i4456_m0bbOmNAt9CHtDU2uiNR5ipH_LXzj-zNWSaCRh8kmysqh9hYy1d1gnOMPBSwG81QZmDkXZWnJGYp8NZcxroXwt_dVYl9HQRsWYfAlpil22Jl9c3rLaLU9CsSrjzaHtJ26KEhKG9CdvUTDjg1iw4AInZYPIlz3vUPBu8bBl3ryg6j7qo_oUVc4L7ibuzUgl8XzHVv1-HF-Lok7vz7lYyJ2J2rZDTEbyDuQZ4uYWi7qe9jgyC9EJqoGvWrk9-lCyq4eymuClAv3-81_zY2woRwKmF70ho90y5C0PiO2FF8YEayR6b32vMdEO-eWbPJuzYPVtcXX2ncWZh6tCGcfRGx4CpXxLsXEspPHDAbXxpjJe1Ll8BMrvUr8W1tIVnlVXa16oD0BH74ygLMlzcfN6QZEYi-7fnqUr46x3YX6Td9pWJI8rNuFh8FdU71yiVTTjey3mkD96kFKcyMrDHgpM3hXh3kfiX4AoHDOEXqUruegRoj8JCYUj7bLTLc8gfogoxfNcUrT29Se2lERvSHDVu3h0Dt_DnxFxA4XWcTsgZ5uGAM_nAR1e0dA6AUivy8PyAsf5X1dtZ8c8aEGyPar0jxnzjMMMOGwES7J9aL9JRnf8_ZqRzdjdlvx-LvCMHk7G4GrEJ-dBPx0yHgC0GFgs-HEPfIlCH2mSdxvvnXKpGh_JDs79OU-XGnJoQM3XOmWDONTwvRebSsY6k5kQtkmtma4a73J2D1AckvtqzZo8djDEPkynibZTPY6ny7D8cnxI9a7HqZpCe1gGHpf_atyOHk07l-JrSdaSATDzPTm0Q3nVseXT7Qe-15PIrNVlaIZfHB8RPNNze7Z7LOTsyTjWvoqDd9am8KiaPyOp_SoHBS-LtN31ACK3zsa9D2BOduRLz4GOFYD-V3PhfzjvCuw56hXONxzIj0MPUsduEn6Vx4ajLCdtSnhKVvSSkYKMluGrHcCOgrHrVxSFmn3oTsrM7-7JX4k5qSyYHsC5SSzxjkW0ZAPjBRak3Li8AToMg1PD_LeB2N9QOdXXZYKSaygxYXrMkzdRL1kywsnUBdeR6oxnvYzqjLlZRzngNPIkYQApO-oRm_y1]--></g></svg>