<svg xmlns="http://www.w3.org/2000/svg" xmlns:xlink="http://www.w3.org/1999/xlink" contentStyleType="text/css" data-diagram-type="DESCRIPTION" height="882px" preserveAspectRatio="none" style="width:1166px;height:882px;background:#FEFEFE;" version="1.1" viewBox="0 0 1166 882" width="1166px" zoomAndPan="magnify"><title>Resource Allocation System Overview</title><defs/><g><rect fill="#FEFEFE" height="882" style="stroke:none;stroke-width:1;" width="1166" x="0" y="0"/><g class="title" data-source-line="2"><text fill="#333333" font-family="Verdana" font-size="22" font-weight="bold" lengthAdjust="spacing" textLength="467.3066" x="345.1517" y="37.1182">Resource Allocation System Overview</text></g><!--cluster Resource Allocation System--><g class="cluster" data-entity="Resource Allocation System" data-source-line="10" data-uid="ent0002" id="cluster_Resource Allocation System"><rect fill="#FFFFFF" height="726.85" rx="2.5" ry="2.5" style="stroke:#000000;stroke-width:1;" width="907" x="76.93" y="59.7373"/><text fill="#333333" font-family="Verdana" font-size="14" font-weight="bold" lengthAdjust="spacing" textLength="218.4424" x="421.2088" y="75.8125">Resource Allocation System</text></g><!--cluster Core Components--><g class="cluster" data-entity="Core Components" data-source-line="12" data-uid="ent0003" id="cluster_Core Components"><rect fill="#E3F2FD" height="350.94" rx="2.5" ry="2.5" style="stroke:#000000;stroke-width:1;" width="301" x="118.93" y="241.7473"/><text fill="#333333" font-family="Verdana" font-size="14" font-weight="bold" lengthAdjust="spacing" textLength="138.667" x="200.0965" y="257.8225">Core Components</text></g><!--cluster Data Structures--><g class="cluster" data-entity="Data Structures" data-source-line="19" data-uid="ent0008" id="cluster_Data Structures"><rect fill="#E8F5E9" height="89.01" rx="2.5" ry="2.5" style="stroke:#000000;stroke-width:1;" width="513" x="137.93" y="673.5773"/><text fill="#333333" font-family="Verdana" font-size="14" font-weight="bold" lengthAdjust="spacing" textLength="123.8945" x="332.4827" y="689.6525">Data Structures</text></g><!--cluster Allocation Algorithms--><g class="cluster" data-entity="Allocation Algorithms" data-source-line="26" data-uid="ent0013" id="cluster_Allocation Algorithms"><rect fill="#FFEBEE" height="89.02" rx="2.5" ry="2.5" style="stroke:#000000;stroke-width:1;" width="516" x="443.93" y="503.6673"/><text fill="#333333" font-family="Verdana" font-size="14" font-weight="bold" lengthAdjust="spacing" textLength="169.4424" x="617.2088" y="519.7425">Allocation Algorithms</text></g><!--cluster Optimization Layer--><g class="cluster" data-entity="Optimization Layer" data-source-line="33" data-uid="ent0018" id="cluster_Optimization Layer"><rect fill="#FFF9C4" height="89.01" rx="2.5" ry="2.5" style="stroke:#000000;stroke-width:1;" width="436" x="130.93" y="103.7373"/><text fill="#333333" font-family="Verdana" font-size="14" font-weight="bold" lengthAdjust="spacing" textLength="149.3311" x="274.2645" y="119.8125">Optimization Layer</text></g><!--entity pool--><g class="entity" data-entity="pool" data-source-line="13" data-uid="ent0004" id="entity_pool"><rect fill="#FFFFFF" height="37.0146" rx="2.5" ry="2.5" style="stroke:#000000;stroke-width:1;" width="118.5332" x="134.66" y="539.6673"/><text fill="#333333" font-family="Verdana" font-size="14" lengthAdjust="spacing" textLength="98.5332" x="144.66" y="563.7425">Resource Pool</text></g><!--entity manager--><g class="entity" data-entity="manager" data-source-line="14" data-uid="ent0005" id="entity_manager"><rect fill="#FFFFFF" height="37.0146" rx="2.5" ry="2.5" style="stroke:#000000;stroke-width:1;" width="153.6016" x="234.13" y="391.7673"/><text fill="#333333" font-family="Verdana" font-size="14" lengthAdjust="spacing" textLength="133.6016" x="244.13" y="415.8425">Allocation Manager</text></g><!--entity queue--><g class="entity" data-entity="queue" data-source-line="15" data-uid="ent0006" id="entity_queue"><rect fill="#FFFFFF" height="37.0146" rx="2.5" ry="2.5" style="stroke:#000000;stroke-width:1;" width="127.1465" x="276.35" y="277.7473"/><text fill="#333333" font-family="Verdana" font-size="14" lengthAdjust="spacing" textLength="107.1465" x="286.35" y="301.8225">Request Queue</text></g><!--entity tracker--><g class="entity" data-entity="tracker" data-source-line="16" data-uid="ent0007" id="entity_tracker"><rect fill="#FFFFFF" height="37.0146" rx="2.5" ry="2.5" style="stroke:#000000;stroke-width:1;" width="115.1768" x="288.34" y="539.6673"/><text fill="#333333" font-family="Verdana" font-size="14" lengthAdjust="spacing" textLength="95.1768" x="298.34" y="563.7425">State Tracker</text></g><!--entity bitmap--><g class="entity" data-entity="bitmap" data-source-line="20" data-uid="ent0009" id="entity_bitmap"><rect fill="#FFFFFF" height="37.0146" rx="2.5" ry="2.5" style="stroke:#000000;stroke-width:1;" width="69.7041" x="154.08" y="709.5773"/><text fill="#333333" font-family="Verdana" font-size="14" lengthAdjust="spacing" textLength="49.7041" x="164.08" y="733.6525">Bitmap</text></g><!--entity freelist--><g class="entity" data-entity="freelist" data-source-line="21" data-uid="ent0010" id="entity_freelist"><rect fill="#FFFFFF" height="37.0146" rx="2.5" ry="2.5" style="stroke:#000000;stroke-width:1;" width="80.0674" x="258.89" y="709.5773"/><text fill="#333333" font-family="Verdana" font-size="14" lengthAdjust="spacing" textLength="60.0674" x="268.89" y="733.6525">Free List</text></g><!--entity bloom--><g class="entity" data-entity="bloom" data-source-line="22" data-uid="ent0011" id="entity_bloom"><rect fill="#FFFFFF" height="37.0146" rx="2.5" ry="2.5" style="stroke:#000000;stroke-width:1;" width="104.5332" x="373.66" y="709.5773"/><text fill="#333333" font-family="Verdana" font-size="14" lengthAdjust="spacing" textLength="84.5332" x="383.66" y="733.6525">Bloom Filter</text></g><!--entity buddy--><g class="entity" data-entity="buddy" data-source-line="23" data-uid="ent0012" id="entity_buddy"><rect fill="#FFFFFF" height="37.0146" rx="2.5" ry="2.5" style="stroke:#000000;stroke-width:1;" width="121.7324" x="513.06" y="709.5773"/><text fill="#333333" font-family="Verdana" font-size="14" lengthAdjust="spacing" textLength="101.7324" x="523.06" y="733.6525">Buddy System</text></g><!--entity ff--><g class="entity" data-entity="ff" data-source-line="27" data-uid="ent0014" id="entity_ff"><rect fill="#FFFFFF" height="37.0146" rx="2.5" ry="2.5" style="stroke:#000000;stroke-width:1;" width="74.4346" x="459.71" y="539.6673"/><text fill="#333333" font-family="Verdana" font-size="14" lengthAdjust="spacing" textLength="54.4346" x="469.71" y="563.7425">First-Fit</text></g><!--entity bf--><g class="entity" data-entity="bf" data-source-line="28" data-uid="ent0015" id="entity_bf"><rect fill="#FFFFFF" height="37.0146" rx="2.5" ry="2.5" style="stroke:#000000;stroke-width:1;" width="74.5098" x="568.67" y="539.6673"/><text fill="#333333" font-family="Verdana" font-size="14" lengthAdjust="spacing" textLength="54.5098" x="578.67" y="563.7425">Best-Fit</text></g><!--entity rr--><g class="entity" data-entity="rr" data-source-line="29" data-uid="ent0016" id="entity_rr"><rect fill="#FFFFFF" height="37.0146" rx="2.5" ry="2.5" style="stroke:#000000;stroke-width:1;" width="110.6855" x="678.58" y="539.6673"/><text fill="#333333" font-family="Verdana" font-size="14" lengthAdjust="spacing" textLength="90.6855" x="688.58" y="563.7425">Round-Robin</text></g><!--entity pb--><g class="entity" data-entity="pb" data-source-line="30" data-uid="ent0017" id="entity_pb"><rect fill="#FFFFFF" height="37.0146" rx="2.5" ry="2.5" style="stroke:#000000;stroke-width:1;" width="119.0938" x="824.38" y="539.6673"/><text fill="#333333" font-family="Verdana" font-size="14" lengthAdjust="spacing" textLength="99.0938" x="834.38" y="563.7425">Priority-Based</text></g><!--entity cache--><g class="entity" data-entity="cache" data-source-line="34" data-uid="ent0019" id="entity_cache"><rect fill="#FFFFFF" height="37.0146" rx="2.5" ry="2.5" style="stroke:#000000;stroke-width:1;" width="62.6768" x="146.59" y="139.7373"/><text fill="#333333" font-family="Verdana" font-size="14" lengthAdjust="spacing" textLength="42.6768" x="156.59" y="163.8125">Cache</text></g><!--entity batch--><g class="entity" data-entity="batch" data-source-line="35" data-uid="ent0020" id="entity_batch"><rect fill="#FFFFFF" height="37.0146" rx="2.5" ry="2.5" style="stroke:#000000;stroke-width:1;" width="132.2051" x="243.83" y="139.7373"/><text fill="#333333" font-family="Verdana" font-size="14" lengthAdjust="spacing" textLength="112.2051" x="253.83" y="163.8125">Batch Processor</text></g><!--entity lockfree--><g class="entity" data-entity="lockfree" data-source-line="36" data-uid="ent0021" id="entity_lockfree"><rect fill="#FFFFFF" height="37.0146" rx="2.5" ry="2.5" style="stroke:#000000;stroke-width:1;" width="139.2666" x="411.29" y="139.7373"/><text fill="#333333" font-family="Verdana" font-size="14" lengthAdjust="spacing" textLength="119.2666" x="421.29" y="163.8125">Lock-Free Queue</text></g><!--entity user--><g class="entity" data-entity="user" data-source-line="40" data-uid="ent0022" id="entity_user"><ellipse cx="26.9277" cy="698.0773" fill="#FFFFFF" rx="8" ry="8" style="stroke:#000000;stroke-width:1;"/><path d="M26.9277,706.0773 L26.9277,733.0773 M13.9277,714.0773 L39.9277,714.0773 M26.9277,733.0773 L13.9277,748.0773 M26.9277,733.0773 L39.9277,748.0773" fill="none" style="stroke:#000000;stroke-width:1;"/><text fill="#333333" font-family="Verdana" font-size="14" lengthAdjust="spacing" textLength="31.8555" x="11" y="764.1525">User</text></g><!--entity db--><g class="entity" data-entity="db" data-source-line="41" data-uid="ent0023" id="entity_db"><path d="M1000.24,715.0773 C1000.24,705.0773 1074.9251,705.0773 1074.9251,705.0773 C1074.9251,705.0773 1149.6101,705.0773 1149.6101,715.0773 L1149.6101,741.092 C1149.6101,751.092 1074.9251,751.092 1074.9251,751.092 C1074.9251,751.092 1000.24,751.092 1000.24,741.092 L1000.24,715.0773" fill="#FFFFFF" style="stroke:#000000;stroke-width:1;"/><path d="M1000.24,715.0773 C1000.24,725.0773 1074.9251,725.0773 1074.9251,725.0773 C1074.9251,725.0773 1149.6101,725.0773 1149.6101,715.0773" fill="none" style="stroke:#000000;stroke-width:1;"/><text fill="#333333" font-family="Verdana" font-size="14" lengthAdjust="spacing" textLength="129.3701" x="1010.24" y="743.1525">Persistent Storage</text></g><g class="entity" data-entity="GMN38" data-source-line="60" data-uid="ent0039" id="entity_GMN38"><path d="M999.78,505.7773 L999.78,610.5732 L1158.0735,610.5732 L1158.0735,515.7773 L1148.0735,505.7773 L999.78,505.7773" fill="#FFFFFF" style="stroke:#000000;stroke-width:1;"/><path d="M1148.0735,505.7773 L1148.0735,515.7773 L1158.0735,515.7773 L1148.0735,505.7773" fill="#FFFFFF" style="stroke:#000000;stroke-width:1;"/><text fill="#333333" font-family="Verdana" font-size="13" lengthAdjust="spacing" textLength="120.2056" x="1005.78" y="523.8471">Resources can be:</text><text fill="#333333" font-family="Verdana" font-size="13" lengthAdjust="spacing" textLength="108.3164" x="1005.78" y="539.6464">- Memory blocks</text><text fill="#333333" font-family="Verdana" font-size="13" lengthAdjust="spacing" textLength="80.7993" x="1005.78" y="555.4458">- CPU cycles</text><text fill="#333333" font-family="Verdana" font-size="13" lengthAdjust="spacing" textLength="137.2935" x="1005.78" y="571.2451">- Network bandwidth</text><text fill="#333333" font-family="Verdana" font-size="13" lengthAdjust="spacing" textLength="103.3398" x="1005.78" y="587.0444">- Storage space</text><text fill="#333333" font-family="Verdana" font-size="13" lengthAdjust="spacing" textLength="89.9907" x="1005.78" y="602.8437">- Connections</text></g><g class="entity" data-entity="GMN41" data-source-line="69" data-uid="ent0042" id="entity_GMN41"><path d="M335.11,833.5873 L335.11,875.1859 A0,0 0 0 0 335.11,875.1859 L516.7501,875.1859 A0,0 0 0 0 516.7501,875.1859 L516.7501,843.5873 L506.7501,833.5873 L429.93,833.5873 L425.93,746.8873 L421.93,833.5873 L335.11,833.5873 A0,0 0 0 0 335.11,833.5873" fill="#FFFFFF" style="stroke:#000000;stroke-width:1;"/><path d="M506.7501,833.5873 L506.7501,843.5873 L516.7501,843.5873 L506.7501,833.5873" fill="#FFFFFF" style="stroke:#000000;stroke-width:1;"/><text fill="#333333" font-family="Verdana" font-size="13" lengthAdjust="spacing" textLength="148.6494" x="341.11" y="851.6571">Probabilistic structures</text><text fill="#333333" font-family="Verdana" font-size="13" lengthAdjust="spacing" textLength="160.6401" x="341.11" y="867.4564">trade accuracy for space</text></g><!--link user to queue--><g class="link" data-entity-1="user" data-entity-2="queue" data-source-line="44" data-uid="lnk24" id="link_user_queue"><path d="M21.59,688.8073 C15.92,633.2373 13.28,529.2073 59.93,458.7773 C110.67,382.1573 205.3768,339.4011 271.1368,317.1411" fill="none" id="user-to-queue" style="stroke:#000000;stroke-width:1;"/><polygon fill="#000000" points="276.82,315.2173,267.0126,314.3142,272.084,316.8205,269.5777,321.8918,276.82,315.2173" style="stroke:#000000;stroke-width:1;"/><text fill="#333333" font-family="Verdana" font-size="13" lengthAdjust="spacing" textLength="123.8301" x="60.93" y="472.8471">Request Resources</text></g><!--link queue to manager--><g class="link" data-entity-1="queue" data-entity-2="manager" data-source-line="45" data-uid="lnk25" id="link_queue_manager"><path d="M335.27,315.2573 C329.86,336.1573 322.4823,364.6284 317.0823,385.5084" fill="none" id="queue-to-manager" style="stroke:#000000;stroke-width:1;"/><polygon fill="#000000" points="315.58,391.3173,321.706,383.6055,316.8319,386.4766,313.9609,381.6025,315.58,391.3173" style="stroke:#000000;stroke-width:1;"/><text fill="#333333" font-family="Verdana" font-size="13" lengthAdjust="spacing" textLength="106.6597" x="328.16" y="358.8371">Process Request</text></g><!--link manager to tracker--><g class="link" data-entity-1="manager" data-entity-2="tracker" data-source-line="46" data-uid="lnk26" id="link_manager_tracker"><path d="M284.85,429.0373 C270.4,441.2673 256.68,458.3773 263.93,475.7773 C275.03,502.4473 294.7888,521.2689 314.1488,535.7789" fill="none" id="manager-to-tracker" style="stroke:#000000;stroke-width:1;"/><polygon fill="#000000" points="318.95,539.3773,314.1472,530.7789,314.949,536.3786,309.3493,537.1805,318.95,539.3773" style="stroke:#000000;stroke-width:1;"/><text fill="#333333" font-family="Verdana" font-size="13" lengthAdjust="spacing" textLength="115.0322" x="264.93" y="472.8471">Check Availability</text></g><!--link tracker to bitmap--><g class="link" data-entity-1="tracker" data-entity-2="bitmap" data-source-line="47" data-uid="lnk27" id="link_tracker_bitmap"><path d="M327.66,576.8373 C306.37,597.6273 270.34,633.3873 240.93,665.5773 C227.82,679.9273 217.4214,692.1934 207.1814,704.6434" fill="none" id="tracker-to-bitmap" style="stroke:#000000;stroke-width:1;"/><polygon fill="#000000" points="203.37,709.2773,212.1764,704.8673,206.5461,705.4157,205.9978,699.7855,203.37,709.2773" style="stroke:#000000;stroke-width:1;"/><text fill="#333333" font-family="Verdana" font-size="13" lengthAdjust="spacing" textLength="78.6982" x="264.31" y="654.6471">Query State</text></g><!--link tracker to bloom--><g class="link" data-entity-1="tracker" data-entity-2="bloom" data-source-line="48" data-uid="lnk28" id="link_tracker_bloom"><path d="M354.49,577.1473 C369.89,609.4573 399.4994,671.6006 414.8494,703.8206" fill="none" id="tracker-to-bloom" style="stroke:#000000;stroke-width:1;"/><polygon fill="#000000" points="417.43,709.2373,417.1703,699.3919,415.2795,704.7234,409.948,702.8326,417.43,709.2373" style="stroke:#000000;stroke-width:1;"/><text fill="#333333" font-family="Verdana" font-size="13" lengthAdjust="spacing" textLength="122.3066" x="391.72" y="654.6471">Probabilistic Check</text></g><!--link manager to ff--><g class="link" data-entity-1="manager" data-entity-2="ff" data-source-line="49" data-uid="lnk29" id="link_manager_ff"><path d="M341.14,429.2373 C354.83,437.7373 371.03,448.3073 384.93,458.7773 C419.45,484.7873 452.2283,514.6172 473.8883,535.0772" fill="none" id="manager-to-ff" style="stroke:#000000;stroke-width:1;"/><polygon fill="#000000" points="478.25,539.1973,474.4541,530.1093,474.6152,535.7639,468.9607,535.925,478.25,539.1973" style="stroke:#000000;stroke-width:1;"/><text fill="#333333" font-family="Verdana" font-size="13" lengthAdjust="spacing" textLength="104.4697" x="405.13" y="472.8471">Apply Algorithm</text></g><!--link manager to bf--><g class="link" data-entity-1="manager" data-entity-2="bf" data-source-line="50" data-uid="lnk30" id="link_manager_bf"><path d="M387.74,417.8273 C428.58,423.9673 478.38,435.8273 517.93,458.7773 C552.42,478.7973 577.4162,512.0227 591.9762,534.4827" fill="none" id="manager-to-bf" style="stroke:#000000;stroke-width:1;"/><polygon fill="#000000" points="595.24,539.5173,593.7008,529.7895,592.5202,535.3218,586.9879,534.1412,595.24,539.5173" style="stroke:#000000;stroke-width:1;"/><text fill="#333333" font-family="Verdana" font-size="13" lengthAdjust="spacing" textLength="104.4697" x="542.15" y="472.8471">Apply Algorithm</text></g><!--link manager to rr--><g class="link" data-entity-1="manager" data-entity-2="rr" data-source-line="51" data-uid="lnk31" id="link_manager_rr"><path d="M388.15,415.3173 C475.29,421.0373 610.68,433.6873 654.93,458.7773 C688.28,477.6873 710.1076,511.4433 722.3776,534.2533" fill="none" id="manager-to-rr" style="stroke:#000000;stroke-width:1;"/><polygon fill="#000000" points="725.22,539.5373,724.4791,529.7164,722.8513,535.134,717.4337,533.5062,725.22,539.5373" style="stroke:#000000;stroke-width:1;"/><text fill="#333333" font-family="Verdana" font-size="13" lengthAdjust="spacing" textLength="104.4697" x="677.87" y="472.8471">Apply Algorithm</text></g><!--link manager to pb--><g class="link" data-entity-1="manager" data-entity-2="pb" data-source-line="52" data-uid="lnk32" id="link_manager_pb"><path d="M388.02,412.3973 C505.24,415.1973 721.95,424.9373 790.93,458.7773 C827.86,476.8973 854.4559,511.219 869.6759,534.289" fill="none" id="manager-to-pb" style="stroke:#000000;stroke-width:1;"/><polygon fill="#000000" points="872.98,539.2973,871.3627,529.5821,870.2266,535.1237,864.685,533.9876,872.98,539.2973" style="stroke:#000000;stroke-width:1;"/><text fill="#333333" font-family="Verdana" font-size="13" lengthAdjust="spacing" textLength="104.4697" x="816.61" y="472.8471">Apply Algorithm</text></g><!--link manager to pool--><g class="link" data-entity-1="manager" data-entity-2="pool" data-source-line="53" data-uid="lnk33" id="link_manager_pool"><path d="M238.67,429.1773 C224.02,436.0873 210.26,445.6273 200.93,458.7773 C184.08,482.5273 185.5336,512.2089 189.0736,533.4489" fill="none" id="manager-to-pool" style="stroke:#000000;stroke-width:1;"/><polygon fill="#000000" points="190.06,539.3673,192.526,529.8322,189.238,534.4353,184.6348,531.1474,190.06,539.3673" style="stroke:#000000;stroke-width:1;"/><text fill="#333333" font-family="Verdana" font-size="13" lengthAdjust="spacing" textLength="51.3589" x="201.93" y="472.8471">Allocate</text></g><!--link pool to user--><g class="link" data-entity-1="pool" data-entity-2="user" data-source-line="54" data-uid="lnk34" id="link_pool_user"><path d="M176.06,577.1473 C143.41,609.9673 78.8305,674.8926 47.4205,706.4826" fill="none" id="pool-to-user" style="stroke:#000000;stroke-width:1;"/><polygon fill="#000000" points="43.19,710.7373,52.3722,707.1755,46.7154,707.1917,46.6993,701.5349,43.19,710.7373" style="stroke:#000000;stroke-width:1;"/><text fill="#333333" font-family="Verdana" font-size="13" lengthAdjust="spacing" textLength="114.9878" x="111.43" y="654.6471">Return Resources</text></g><!--link tracker to db--><g class="link" data-entity-1="tracker" data-entity-2="db" data-source-line="55" data-uid="lnk35" id="link_tracker_db"><path d="M374.48,577.0873 C393.5,588.2673 419.41,602.0973 443.93,610.5773 C546.06,645.8773 849.8359,693.6906 993.8559,715.2106" fill="none" id="tracker-to-db" style="stroke:#000000;stroke-width:1;"/><polygon fill="#000000" points="999.79,716.0973,991.48,710.8112,994.8449,715.3584,990.2977,718.7233,999.79,716.0973" style="stroke:#000000;stroke-width:1;"/><text fill="#333333" font-family="Verdana" font-size="13" lengthAdjust="spacing" textLength="82.6211" x="640.66" y="654.6471">Persist State</text></g><!--link cache to manager--><g class="link" data-entity-1="cache" data-entity-2="manager" data-source-line="56" data-uid="lnk36" id="link_cache_manager"><path d="M166.85,176.8373 C149.38,207.0673 119.94,269.9273 145.93,314.7673 C168.11,353.0373 206.6813,374.98 243.7413,389.26" fill="none" id="cache-to-manager" style="stroke:#000000;stroke-width:1;"/><polygon fill="#000000" points="249.34,391.4173,242.3801,384.4488,244.6744,389.6195,239.5037,391.9138,249.34,391.4173" style="stroke:#000000;stroke-width:1;"/><text fill="#333333" font-family="Verdana" font-size="13" lengthAdjust="spacing" textLength="111.0522" x="146.93" y="301.8271">Speed Up Access</text></g><!--link batch to queue--><g class="link" data-entity-1="batch" data-entity-2="queue" data-source-line="57" data-uid="lnk37" id="link_batch_queue"><path d="M313.85,177.0273 C319.6,203.0873 328.9577,245.5381 334.7077,271.6081" fill="none" id="batch-to-queue" style="stroke:#000000;stroke-width:1;"/><polygon fill="#000000" points="336,277.4673,337.9677,267.817,334.9231,272.5847,330.1554,269.5401,336,277.4673" style="stroke:#000000;stroke-width:1;"/><text fill="#333333" font-family="Verdana" font-size="13" lengthAdjust="spacing" textLength="110.646" x="325.03" y="222.8171">Batch Processing</text></g><!--link pool to GMN38--><g class="link" data-entity-1="pool" data-entity-2="GMN38" data-source-line="60" data-uid="lnk40" id="link_pool_GMN38"><path d="M205.52,539.3873 C221.08,516.1773 251.12,477.8473 288.43,462.2273 C355.46,434.1573 873.14,440.3073 942.43,462.2273 C970.6,471.1373 997.99,488.1773 1020.75,505.4573" fill="none" id="pool-GMN38" style="stroke:#000000;stroke-width:1;stroke-dasharray:7,7;"/></g><!--SRC=[XPHDRzim38Rl-XLSUjWfbtK3rXq6f6byQjUiMK_33hBC949aoPNe5jxG_pvAbbEdS547I6Jg2SMFb_f0UwmH6YEr5QJ98DnXSArN20jZd9AadOLD5mXhk7r4_wZnIOXmqBQHNjPGIdNOUTVQQkcCyt1MhE9dH5IubQsXmbdAo7bwnbwKgnjdqTA6Eex1eo9fTmP7ICC7oHs-1aIsm-pjm6VmJm0_wUl8Bvr7M0u7XncShSwBJyLLXkDp30j-7xsldJD_G0PeU355Zew_aPQFyWcl-_MqxuSM0y7F5bjCy4DSJQ4RaeJmotCIsI_rwmG_JwHv9Kd2XdohgFMOqlnQV5bTJATvgQcMJN9SfkKKL7X4kDQ14hVbDyCla-wCSpKKsb2Ejeo6IRAjgYxtgoUZuSsiHaLUc9tpclPrpAqeLfUhrNHkXVQ1veNEOMydmy0HKauYTr7iypjNQfieFzdJjTSngcv-AGDMlM3ADzEvRKZN-c-VqBNiqATSYelbv-bSbbBjUwcek9fCHPBQmzexXI6uNFvecuAldJhCKrzVHCWLFiJcvgYVXP2AU7xl0_gut_Alg5XU9QS8ipNwm3A8xZQCSLwpI5Mb41zvpgpbcUNqWeZ_W_dyUwzo-0Q3_eSP2wBVYKmU6wPo9WCjXfr8vI5WQhb7TO35ezH6bjfm1yIm6S5UrCnncfxr5iVf54YAJQULoK4WhNgl9oTkjmmjciPqBm8y0Sht0E_V0PhoFO1le8Zqiu0YlSUDLE5OLnvvEohhED4gUiyzotL8KdfLzKs3MC5z0miLgo-IWawwTw8pRNT2MCTtbDUxFO7RljoJnpXOinPA_9QiSxZ1sd4logYta6tBzJseJXaS33-Gdfm_i89jzQGhscTxbXe4dYKS_ZmI6zeAOZmvgj8HSNyvh9URwBJLuNXLfaqkMOKWbMgvTXriMV_zKKV7_m40]--></g></svg>