<svg xmlns="http://www.w3.org/2000/svg" xmlns:xlink="http://www.w3.org/1999/xlink" contentStyleType="text/css" data-diagram-type="STATE" height="696px" preserveAspectRatio="none" style="width:717px;height:696px;background:#FEFEFE;" version="1.1" viewBox="0 0 717 696" width="717px" zoomAndPan="magnify"><title>Resource State Transitions</title><defs/><g><rect fill="#FEFEFE" height="696" style="stroke:none;stroke-width:1;" width="717" x="0" y="0"/><g class="title" data-source-line="2"><text fill="#333333" font-family="Verdana" font-size="22" font-weight="bold" lengthAdjust="spacing" textLength="332.3955" x="187.9946" y="37.1182">Resource State Transitions</text></g><g id="Available"><rect fill="#C8E6C9" height="66.1826" rx="12.5" ry="12.5" style="stroke:#1976D2;stroke-width:1;" width="120.1309" x="442.36" y="202.9173"/><line style="stroke:#1976D2;stroke-width:1;" x1="442.36" x2="562.4909" y1="229.932" y2="229.932"/><text fill="#333333" font-family="Verdana" font-size="14" lengthAdjust="spacing" textLength="63.2598" x="470.7955" y="221.9925">Available</text><text fill="#333333" font-family="Verdana" font-size="12" lengthAdjust="spacing" textLength="96.7617" x="447.36" y="246.9964">Resource is free</text><text fill="#333333" font-family="Verdana" font-size="12" lengthAdjust="spacing" textLength="100.1309" x="447.36" y="261.5804">Can be allocated</text></g><g id="Reserved"><rect fill="#FFF59D" height="66.1826" rx="12.5" ry="12.5" style="stroke:#1976D2;stroke-width:1;" width="166.0566" x="230.4" y="59.7373"/><line style="stroke:#1976D2;stroke-width:1;" x1="230.4" x2="396.4566" y1="86.752" y2="86.752"/><text fill="#333333" font-family="Verdana" font-size="14" lengthAdjust="spacing" textLength="65.0303" x="280.9132" y="78.8125">Reserved</text><text fill="#333333" font-family="Verdana" font-size="12" lengthAdjust="spacing" textLength="124.8457" x="235.4" y="103.8164">Tentatively allocated</text><text fill="#333333" font-family="Verdana" font-size="12" lengthAdjust="spacing" textLength="146.0566" x="235.4" y="118.4004">Waiting for confirmation</text></g><g id="Allocated"><rect fill="#FFCDD2" height="66.1826" rx="12.5" ry="12.5" style="stroke:#1976D2;stroke-width:1;" width="150.8164" x="133.02" y="202.9173"/><line style="stroke:#1976D2;stroke-width:1;" x1="133.02" x2="283.8364" y1="229.932" y2="229.932"/><text fill="#333333" font-family="Verdana" font-size="14" lengthAdjust="spacing" textLength="64.0322" x="176.4121" y="221.9925">Allocated</text><text fill="#333333" font-family="Verdana" font-size="12" lengthAdjust="spacing" textLength="106.6582" x="138.02" y="246.9964">In use by process</text><text fill="#333333" font-family="Verdana" font-size="12" lengthAdjust="spacing" textLength="130.8164" x="138.02" y="261.5804">Cannot be reassigned</text></g><g id="Blocked"><rect fill="#FFE0B2" height="66.1826" rx="12.5" ry="12.5" style="stroke:#1976D2;stroke-width:1;" width="165.8457" x="388.5" y="346.1073"/><line style="stroke:#1976D2;stroke-width:1;" x1="388.5" x2="554.3457" y1="373.122" y2="373.122"/><text fill="#333333" font-family="Verdana" font-size="14" lengthAdjust="spacing" textLength="54.5781" x="444.1338" y="365.1825">Blocked</text><text fill="#333333" font-family="Verdana" font-size="12" lengthAdjust="spacing" textLength="144.7441" x="393.5" y="390.1864">Temporarily unavailable</text><text fill="#333333" font-family="Verdana" font-size="12" lengthAdjust="spacing" textLength="145.8457" x="393.5" y="404.7704">Maintenance/Error state</text></g><g id="Deallocating"><rect fill="#FFF9C4" height="66.1826" rx="12.5" ry="12.5" style="stroke:#1976D2;stroke-width:1;" width="140.1465" x="401.35" y="489.2873"/><line style="stroke:#1976D2;stroke-width:1;" x1="401.35" x2="541.4965" y1="516.302" y2="516.302"/><text fill="#333333" font-family="Verdana" font-size="14" lengthAdjust="spacing" textLength="86.3584" x="428.244" y="508.3625">Deallocating</text><text fill="#333333" font-family="Verdana" font-size="12" lengthAdjust="spacing" textLength="88.752" x="406.35" y="533.3664">Being released</text><text fill="#333333" font-family="Verdana" font-size="12" lengthAdjust="spacing" textLength="120.1465" x="406.35" y="547.9504">Cleanup in progress</text></g><ellipse cx="690.42" cy="92.8273" fill="#FFFFFF" rx="10" ry="10" style="stroke:#000000;stroke-width:1;"/><g class="entity" data-entity="GMN2" data-source-line="48" data-uid="ent0003" id="entity_GMN2"><path d="M431.14,72.0273 L431.14,88.8273 L396.92,92.8273 L431.14,96.8273 L431.14,113.6259 A0,0 0 0 0 431.14,113.6259 L645.7054,113.6259 A0,0 0 0 0 645.7054,113.6259 L645.7054,82.0273 L635.7054,72.0273 L431.14,72.0273 A0,0 0 0 0 431.14,72.0273" fill="#FFFFFF" style="stroke:#000000;stroke-width:1;"/><path d="M635.7054,72.0273 L635.7054,82.0273 L645.7054,82.0273 L635.7054,72.0273" fill="#FFFFFF" style="stroke:#000000;stroke-width:1;"/><text fill="#333333" font-family="Verdana" font-size="13" lengthAdjust="spacing" textLength="193.5654" x="437.14" y="90.0971">Reservation timeout prevents</text><text fill="#333333" font-family="Verdana" font-size="13" lengthAdjust="spacing" textLength="118.2822" x="437.14" y="105.8964">resource hoarding</text></g><g class="entity" data-entity="GMN5" data-source-line="53" data-uid="ent0006" id="entity_GMN5"><path d="M175.23,358.3973 L175.23,399.9959 A0,0 0 0 0 175.23,399.9959 L353.6201,399.9959 A0,0 0 0 0 353.6201,399.9959 L353.6201,383.1973 L388.24,379.1973 L353.6201,375.1973 L353.6201,368.3973 L343.6201,358.3973 L175.23,358.3973 A0,0 0 0 0 175.23,358.3973" fill="#FFFFFF" style="stroke:#000000;stroke-width:1;"/><path d="M343.6201,358.3973 L343.6201,368.3973 L353.6201,368.3973 L343.6201,358.3973" fill="#FFFFFF" style="stroke:#000000;stroke-width:1;"/><text fill="#333333" font-family="Verdana" font-size="13" lengthAdjust="spacing" textLength="157.3901" x="181.23" y="376.4671">Admin intervention may</text><text fill="#333333" font-family="Verdana" font-size="13" lengthAdjust="spacing" textLength="74.9912" x="181.23" y="392.2664">be required</text></g><g class="entity" data-entity="GMN8" data-source-line="58" data-uid="ent0009" id="entity_GMN8"><path d="M384.37,616.4673 L384.37,689.6646 A0,0 0 0 0 384.37,689.6646 L558.4755,689.6646 A0,0 0 0 0 558.4755,689.6646 L558.4755,626.4673 L548.4755,616.4673 L475.42,616.4673 L471.42,555.8573 L467.42,616.4673 L384.37,616.4673 A0,0 0 0 0 384.37,616.4673" fill="#FFFFFF" style="stroke:#000000;stroke-width:1;"/><path d="M548.4755,616.4673 L548.4755,626.4673 L558.4755,626.4673 L548.4755,616.4673" fill="#FFFFFF" style="stroke:#000000;stroke-width:1;"/><text fill="#333333" font-family="Verdana" font-size="13" lengthAdjust="spacing" textLength="83.313" x="390.37" y="634.5371">May involve:</text><text fill="#333333" font-family="Verdana" font-size="13" lengthAdjust="spacing" textLength="96.2432" x="390.37" y="650.3364">- Data cleanup</text><text fill="#333333" font-family="Verdana" font-size="13" lengthAdjust="spacing" textLength="123.8428" x="390.37" y="666.1358">- State persistence</text><text fill="#333333" font-family="Verdana" font-size="13" lengthAdjust="spacing" textLength="153.1055" x="390.37" y="681.9351">- Notification of waiters</text></g><!--link *start* to Available--><g class="link" data-entity-1=".start." data-entity-2="Available" data-source-line="10" data-uid="lnk3" id="link_.start._Available"><path d="M684.27,101.2773 C678.83,107.8173 670.67,117.5573 663.42,125.9173 C645.07,147.0873 643.53,155.7173 621.42,172.9173 C603.68,186.7273 587.76,196.2509 568.14,206.1209" fill="none" id="*start*-to-Available" style="stroke:#000000;stroke-width:1;"/><polygon fill="#000000" points="562.78,208.8173,572.6176,208.3461,567.2467,206.5703,569.0224,201.1994,562.78,208.8173" style="stroke:#000000;stroke-width:1;"/><text fill="#333333" font-family="Verdana" font-size="13" lengthAdjust="spacing" textLength="55.4722" x="640.05" y="169.9871">Initialize</text></g><!--link Available to Reserved--><g class="link" data-entity-1="Available" data-entity-2="Reserved" data-source-line="37" data-uid="lnk4" id="link_Available_Reserved"><path d="M491.11,202.4273 C484.27,186.6873 474.19,168.5173 460.42,155.9173 C449.9,146.2873 429.6237,136.5786 402.4737,125.7586" fill="none" id="Available-to-Reserved" style="stroke:#000000;stroke-width:1;"/><polygon fill="#000000" points="396.9,123.5373,403.7797,130.585,401.5447,125.3884,406.7414,123.1534,396.9,123.5373" style="stroke:#000000;stroke-width:1;"/><text fill="#333333" font-family="Verdana" font-size="13" lengthAdjust="spacing" textLength="112.2329" x="475.68" y="169.9871">Request received</text></g><!--link Reserved to Available--><g class="link" data-entity-1="Reserved" data-entity-2="Available" data-source-line="39" data-uid="lnk6" id="link_Reserved_Available"><path d="M321.46,126.0773 C326.83,141.9273 335.36,160.2873 348.42,172.9173 C374.01,197.6773 404.9968,211.2942 436.1768,220.5242" fill="none" id="Reserved-to-Available" style="stroke:#000000;stroke-width:1;"/><polygon fill="#000000" points="441.93,222.2273,434.4356,215.8372,437.1357,220.8081,432.1648,223.5082,441.93,222.2273" style="stroke:#000000;stroke-width:1;"/><text fill="#333333" font-family="Verdana" font-size="13" lengthAdjust="spacing" textLength="102.3052" x="349.42" y="169.9871">Timeout/Cancel</text></g><!--link Reserved to Allocated--><g class="link" data-entity-1="Reserved" data-entity-2="Allocated" data-source-line="38" data-uid="lnk5" id="link_Reserved_Allocated"><path d="M266.58,126.2573 C256.31,134.9873 246.19,145.0573 238.42,155.9173 C228.43,169.8973 223.1109,181.8971 218.3209,197.0271" fill="none" id="Reserved-to-Allocated" style="stroke:#000000;stroke-width:1;"/><polygon fill="#000000" points="216.51,202.7473,223.0399,195.3743,218.0191,197.9805,215.413,192.9597,216.51,202.7473" style="stroke:#000000;stroke-width:1;"/><text fill="#333333" font-family="Verdana" font-size="13" lengthAdjust="spacing" textLength="67.3677" x="239.42" y="169.9871">Confirmed</text></g><!--link Allocated to Deallocating--><g class="link" data-entity-1="Allocated" data-entity-2="Deallocating" data-source-line="40" data-uid="lnk7" id="link_Allocated_Deallocating"><path d="M143.81,269.5373 C84.33,303.8273 11,360.0173 51.42,412.2873 C93.88,467.1873 286.8385,498.8058 394.9985,512.6458" fill="none" id="Allocated-to-Deallocating" style="stroke:#000000;stroke-width:1;"/><polygon fill="#000000" points="400.95,513.4073,392.5305,508.2973,395.9904,512.7727,391.5151,516.2326,400.95,513.4073" style="stroke:#000000;stroke-width:1;"/><text fill="#333333" font-family="Verdana" font-size="13" lengthAdjust="spacing" textLength="104.2476" x="52.42" y="384.7671">Release request</text></g><!--link Deallocating to Available--><g class="link" data-entity-1="Deallocating" data-entity-2="Available" data-source-line="41" data-uid="lnk8" id="link_Deallocating_Available"><path d="M537.67,489.0273 C549.1,480.7673 559.75,470.8773 567.42,459.2873 C603.08,405.4173 586.85,380.4673 592.42,316.1073 C593.08,308.5773 595.94,305.7973 592.42,299.1073 C585.63,286.1673 579.6087,278.9487 567.7587,270.2087" fill="none" id="Deallocating-to-Available" style="stroke:#000000;stroke-width:1;"/><polygon fill="#000000" points="562.93,266.6473,567.7988,275.2086,566.9539,269.6152,572.5473,268.7703,562.93,266.6473" style="stroke:#000000;stroke-width:1;"/><text fill="#333333" font-family="Verdana" font-size="13" lengthAdjust="spacing" textLength="116.9048" x="592.48" y="384.7671">Cleanup complete</text></g><!--link Available to Blocked--><g class="link" data-entity-1="Available" data-entity-2="Blocked" data-source-line="42" data-uid="lnk9" id="link_Available_Blocked"><path d="M441.89,243.3773 C405.96,250.6273 363.12,266.0973 340.42,299.1073 C336.14,305.3273 336.38,309.7173 340.42,316.1073 C346.75,326.0973 360.6252,334.6501 382.5752,344.6001" fill="none" id="Available-to-Blocked" style="stroke:#000000;stroke-width:1;"/><polygon fill="#000000" points="388.04,347.0773,381.4943,339.7184,383.486,345.013,378.1914,347.0047,388.04,347.0773" style="stroke:#000000;stroke-width:1;"/><text fill="#333333" font-family="Verdana" font-size="13" lengthAdjust="spacing" textLength="120.8594" x="341.42" y="313.1771">Maintenance/Error</text></g><!--link Blocked to Available--><g class="link" data-entity-1="Blocked" data-entity-2="Available" data-source-line="43" data-uid="lnk10" id="link_Blocked_Available"><path d="M478.5,345.9573 C483.54,323.0373 488.983,298.2177 494.023,275.2677" fill="none" id="Blocked-to-Available" style="stroke:#000000;stroke-width:1;"/><polygon fill="#000000" points="495.31,269.4073,489.4726,277.3398,494.2375,274.2909,497.2864,279.0558,495.31,269.4073" style="stroke:#000000;stroke-width:1;"/><text fill="#333333" font-family="Verdana" font-size="13" lengthAdjust="spacing" textLength="94.6182" x="489.78" y="313.1771">Issue resolved</text></g><!--link Allocated to Blocked--><g class="link" data-entity-1="Allocated" data-entity-2="Blocked" data-source-line="44" data-uid="lnk11" id="link_Allocated_Blocked"><path d="M211.5,269.2273 C214.71,285.4673 221.23,304.1873 234.42,316.1073 C280.69,357.8773 311.24,329.8973 371.42,346.1073 C376.88,347.5773 376.7214,347.4726 382.3614,349.1226" fill="none" id="Allocated-to-Blocked" style="stroke:#000000;stroke-width:1;"/><polygon fill="#000000" points="388.12,350.8073,380.6052,344.4412,383.3211,349.4034,378.3589,352.1193,388.12,350.8073" style="stroke:#000000;stroke-width:1;"/><text fill="#333333" font-family="Verdana" font-size="13" lengthAdjust="spacing" textLength="93.7739" x="235.42" y="313.1771">Error detected</text></g><!--link Blocked to Deallocating--><g class="link" data-entity-1="Blocked" data-entity-2="Deallocating" data-source-line="45" data-uid="lnk12" id="link_Blocked_Deallocating"><path d="M471.42,412.5873 C471.42,435.5473 471.42,460.2173 471.42,483.1373" fill="none" id="Blocked-to-Deallocating" style="stroke:#000000;stroke-width:1;"/><polygon fill="#000000" points="471.42,489.1373,475.42,480.1373,471.42,484.1373,467.42,480.1373,471.42,489.1373" style="stroke:#000000;stroke-width:1;"/><text fill="#333333" font-family="Verdana" font-size="13" lengthAdjust="spacing" textLength="86.9248" x="472.42" y="456.3571">Force release</text></g><!--SRC=[VLHDZzCm4BtxLmpQ6rArq8M5ze2qJHg9mt8eAt5071ndqbfrx60xHGNntvd9HvEc4iaXgkVDctblndqL3rWXr4PgAwAE1c67mJLU8NoDCYAyU6c3ZjhP84GuQbjBBol8fJhklMjiaJZZFDnbMtudYC3fcpbi-v0ji_G6vdo1leUyNNruJ9TpIEPix04FxJC155ZAniHRYFZ- -WSi5f_WwIIraJd9MyDdItAaqR-H1BKQn-XTyd7xcApWZm1wfbaNMtI0qYFU019f8KUGnZX5f8NuEz1JAleJ5cHIbhrVfJtxvNWDBsW9gKzepXE26UYRfBxj7aeIg9mjjQyapsKiz3IaSgKaJPU3ZiivguSc8EHdgBrJ6C8DWeHO5rcBHnc2tjkfc0q1Zrs5xPlDK64uPIbLxRpqcgGqLWu6pL3Fj6yHhRGAxxVUawAMVIoJOky3AsRVLicxljPLQ0qRvAz7GytsfiqG2OLiKuEsh7dlMJGL6eV76p8nUeS_6moHE1NIJ0fnYRMhDBMg6yCDPB8MBxf2ryJxXBKQCMOpSDRehXD1XTi6n5LuJZoeKgwg3P9trth-uxKOOZSt8uI6gmTdMFPrhoDXDx22QYfUqodRJ53c-CRqin62ref-wVqXWYilZa_slDrdY9rbD2myqSNeDjGFz-_Wf2-8Ng0jW1bxNeDbIzktqwrrKT7GMRvd9YQlvBaDvPtDsXDqnfIx65t5N5CvRTQpF1FTYVrPjmSBI6MKeBfXz4VTFsUDFkX0pYlipx-ug4kjEfL4_ujkD876-ly0]--></g></svg>